<mxfile host="app.diagrams.net" modified="2023-12-16T13:20:18.408Z" agent="Mozilla/5.0 (Windows NT 10.0; Win64; x64; rv:120.0) Gecko/20100101 Firefox/120.0" etag="fq9pSPjSz3ut9ysZksBO" version="22.1.11" type="github">
  <diagram name="Page-1" id="YZ-UUNwmaFJo9r2CFLKS">
    <mxGraphModel dx="684" dy="324" grid="1" gridSize="10" guides="1" tooltips="1" connect="1" arrows="1" fold="1" page="1" pageScale="1" pageWidth="850" pageHeight="1100" math="0" shadow="0">
      <root>
        <mxCell id="0" />
        <mxCell id="1" parent="0" />
        <mxCell id="Ya-Gv7zuva_r2_n2X0PA-1" value="" style="rounded=0;whiteSpace=wrap;html=1;" vertex="1" parent="1">
          <mxGeometry x="80" y="100" width="120" height="170" as="geometry" />
        </mxCell>
        <mxCell id="Ya-Gv7zuva_r2_n2X0PA-3" value="" style="rounded=0;whiteSpace=wrap;html=1;" vertex="1" parent="1">
          <mxGeometry x="135" y="270" width="10" height="30" as="geometry" />
        </mxCell>
        <mxCell id="Ya-Gv7zuva_r2_n2X0PA-4" value="P1" style="rounded=0;whiteSpace=wrap;html=1;fillColor=#e1d5e7;strokeColor=#9673a6;" vertex="1" parent="1">
          <mxGeometry x="160" y="250" width="30" height="10" as="geometry" />
        </mxCell>
        <mxCell id="Ya-Gv7zuva_r2_n2X0PA-5" value="1" style="rounded=0;whiteSpace=wrap;html=1;fillColor=#e1d5e7;strokeColor=#9673a6;" vertex="1" parent="1">
          <mxGeometry x="90" y="250" width="30" height="10" as="geometry" />
        </mxCell>
        <mxCell id="Ya-Gv7zuva_r2_n2X0PA-6" value="P2" style="rounded=0;whiteSpace=wrap;html=1;fillColor=#e1d5e7;strokeColor=#9673a6;" vertex="1" parent="1">
          <mxGeometry x="160" y="230" width="30" height="10" as="geometry" />
        </mxCell>
        <mxCell id="Ya-Gv7zuva_r2_n2X0PA-7" value="2" style="rounded=0;whiteSpace=wrap;html=1;fillColor=#e1d5e7;strokeColor=#9673a6;" vertex="1" parent="1">
          <mxGeometry x="90" y="230" width="30" height="10" as="geometry" />
        </mxCell>
        <mxCell id="Ya-Gv7zuva_r2_n2X0PA-9" value="P3" style="rounded=0;whiteSpace=wrap;html=1;fillColor=#e1d5e7;strokeColor=#9673a6;" vertex="1" parent="1">
          <mxGeometry x="160" y="210" width="30" height="10" as="geometry" />
        </mxCell>
        <mxCell id="Ya-Gv7zuva_r2_n2X0PA-10" value="P4" style="rounded=0;whiteSpace=wrap;html=1;fillColor=#e1d5e7;strokeColor=#9673a6;" vertex="1" parent="1">
          <mxGeometry x="160" y="190" width="30" height="10" as="geometry" />
        </mxCell>
        <mxCell id="Ya-Gv7zuva_r2_n2X0PA-11" value="P5" style="rounded=0;whiteSpace=wrap;html=1;fillColor=#e1d5e7;strokeColor=#9673a6;" vertex="1" parent="1">
          <mxGeometry x="160" y="170" width="30" height="10" as="geometry" />
        </mxCell>
        <mxCell id="Ya-Gv7zuva_r2_n2X0PA-12" value="P6" style="rounded=0;whiteSpace=wrap;html=1;fillColor=#e1d5e7;strokeColor=#9673a6;" vertex="1" parent="1">
          <mxGeometry x="160" y="150" width="30" height="10" as="geometry" />
        </mxCell>
        <mxCell id="Ya-Gv7zuva_r2_n2X0PA-14" value="3" style="rounded=0;whiteSpace=wrap;html=1;fillColor=#e1d5e7;strokeColor=#9673a6;" vertex="1" parent="1">
          <mxGeometry x="90" y="210" width="30" height="10" as="geometry" />
        </mxCell>
        <mxCell id="Ya-Gv7zuva_r2_n2X0PA-15" value="4" style="rounded=0;whiteSpace=wrap;html=1;fillColor=#e1d5e7;strokeColor=#9673a6;" vertex="1" parent="1">
          <mxGeometry x="90" y="190" width="30" height="10" as="geometry" />
        </mxCell>
        <mxCell id="Ya-Gv7zuva_r2_n2X0PA-16" value="5" style="rounded=0;whiteSpace=wrap;html=1;fillColor=#e1d5e7;strokeColor=#9673a6;" vertex="1" parent="1">
          <mxGeometry x="90" y="170" width="30" height="10" as="geometry" />
        </mxCell>
        <mxCell id="Ya-Gv7zuva_r2_n2X0PA-17" value="6" style="rounded=0;whiteSpace=wrap;html=1;fillColor=#e1d5e7;strokeColor=#9673a6;" vertex="1" parent="1">
          <mxGeometry x="90" y="150" width="30" height="10" as="geometry" />
        </mxCell>
        <mxCell id="Ya-Gv7zuva_r2_n2X0PA-26" value="" style="endArrow=none;html=1;rounded=0;fillColor=#e1d5e7;strokeColor=#9673a6;" edge="1" parent="1">
          <mxGeometry width="50" height="50" relative="1" as="geometry">
            <mxPoint x="174.93" y="160" as="sourcePoint" />
            <mxPoint x="174.93" y="160" as="targetPoint" />
            <Array as="points">
              <mxPoint x="174.93" y="170" />
            </Array>
          </mxGeometry>
        </mxCell>
        <mxCell id="Ya-Gv7zuva_r2_n2X0PA-30" value="" style="endArrow=none;html=1;rounded=0;fillColor=#e1d5e7;strokeColor=#9673a6;" edge="1" parent="1">
          <mxGeometry width="50" height="50" relative="1" as="geometry">
            <mxPoint x="174.93" y="220" as="sourcePoint" />
            <mxPoint x="174.93" y="220" as="targetPoint" />
            <Array as="points">
              <mxPoint x="174.93" y="230" />
            </Array>
          </mxGeometry>
        </mxCell>
        <mxCell id="Ya-Gv7zuva_r2_n2X0PA-31" value="" style="endArrow=none;html=1;rounded=0;fillColor=#e1d5e7;strokeColor=#9673a6;" edge="1" parent="1">
          <mxGeometry width="50" height="50" relative="1" as="geometry">
            <mxPoint x="30" y="70" as="sourcePoint" />
            <mxPoint x="30" y="70" as="targetPoint" />
            <Array as="points">
              <mxPoint x="30" y="80" />
            </Array>
          </mxGeometry>
        </mxCell>
        <mxCell id="Ya-Gv7zuva_r2_n2X0PA-33" value="" style="endArrow=none;html=1;rounded=0;fillColor=#e1d5e7;strokeColor=#9673a6;" edge="1" parent="1">
          <mxGeometry width="50" height="50" relative="1" as="geometry">
            <mxPoint x="174.93" y="200" as="sourcePoint" />
            <mxPoint x="174.93" y="200" as="targetPoint" />
            <Array as="points">
              <mxPoint x="174.93" y="210" />
            </Array>
          </mxGeometry>
        </mxCell>
        <mxCell id="Ya-Gv7zuva_r2_n2X0PA-35" value="Old Controller" style="text;html=1;align=center;verticalAlign=middle;resizable=0;points=[];autosize=1;strokeColor=#b85450;fillColor=#f8cecc;" vertex="1" parent="1">
          <mxGeometry x="90" y="60" width="100" height="30" as="geometry" />
        </mxCell>
        <mxCell id="Ya-Gv7zuva_r2_n2X0PA-36" value="" style="rounded=0;whiteSpace=wrap;html=1;" vertex="1" parent="1">
          <mxGeometry x="80" y="400" width="120" height="170" as="geometry" />
        </mxCell>
        <mxCell id="Ya-Gv7zuva_r2_n2X0PA-37" value="" style="rounded=0;whiteSpace=wrap;html=1;" vertex="1" parent="1">
          <mxGeometry x="135" y="570" width="10" height="30" as="geometry" />
        </mxCell>
        <mxCell id="Ya-Gv7zuva_r2_n2X0PA-38" value="P1" style="rounded=0;whiteSpace=wrap;html=1;fillColor=#e1d5e7;strokeColor=#9673a6;" vertex="1" parent="1">
          <mxGeometry x="160" y="550" width="30" height="10" as="geometry" />
        </mxCell>
        <mxCell id="Ya-Gv7zuva_r2_n2X0PA-39" value="1" style="rounded=0;whiteSpace=wrap;html=1;fillColor=#e1d5e7;strokeColor=#9673a6;" vertex="1" parent="1">
          <mxGeometry x="90" y="550" width="30" height="10" as="geometry" />
        </mxCell>
        <mxCell id="Ya-Gv7zuva_r2_n2X0PA-40" value="P2" style="rounded=0;whiteSpace=wrap;html=1;fillColor=#e1d5e7;strokeColor=#9673a6;" vertex="1" parent="1">
          <mxGeometry x="160" y="530" width="30" height="10" as="geometry" />
        </mxCell>
        <mxCell id="Ya-Gv7zuva_r2_n2X0PA-41" value="2" style="rounded=0;whiteSpace=wrap;html=1;fillColor=#e1d5e7;strokeColor=#9673a6;" vertex="1" parent="1">
          <mxGeometry x="90" y="530" width="30" height="10" as="geometry" />
        </mxCell>
        <mxCell id="Ya-Gv7zuva_r2_n2X0PA-42" value="P3" style="rounded=0;whiteSpace=wrap;html=1;fillColor=#e1d5e7;strokeColor=#9673a6;" vertex="1" parent="1">
          <mxGeometry x="160" y="510" width="30" height="10" as="geometry" />
        </mxCell>
        <mxCell id="Ya-Gv7zuva_r2_n2X0PA-43" value="P4" style="rounded=0;whiteSpace=wrap;html=1;fillColor=#e1d5e7;strokeColor=#9673a6;" vertex="1" parent="1">
          <mxGeometry x="160" y="490" width="30" height="10" as="geometry" />
        </mxCell>
        <mxCell id="Ya-Gv7zuva_r2_n2X0PA-44" value="P5" style="rounded=0;whiteSpace=wrap;html=1;fillColor=#e1d5e7;strokeColor=#9673a6;" vertex="1" parent="1">
          <mxGeometry x="160" y="470" width="30" height="10" as="geometry" />
        </mxCell>
        <mxCell id="Ya-Gv7zuva_r2_n2X0PA-45" value="P6" style="rounded=0;whiteSpace=wrap;html=1;fillColor=#e1d5e7;strokeColor=#9673a6;" vertex="1" parent="1">
          <mxGeometry x="160" y="450" width="30" height="10" as="geometry" />
        </mxCell>
        <mxCell id="Ya-Gv7zuva_r2_n2X0PA-46" value="3" style="rounded=0;whiteSpace=wrap;html=1;fillColor=#e1d5e7;strokeColor=#9673a6;" vertex="1" parent="1">
          <mxGeometry x="90" y="510" width="30" height="10" as="geometry" />
        </mxCell>
        <mxCell id="Ya-Gv7zuva_r2_n2X0PA-47" value="4" style="rounded=0;whiteSpace=wrap;html=1;fillColor=#e1d5e7;strokeColor=#9673a6;" vertex="1" parent="1">
          <mxGeometry x="90" y="490" width="30" height="10" as="geometry" />
        </mxCell>
        <mxCell id="Ya-Gv7zuva_r2_n2X0PA-48" value="5" style="rounded=0;whiteSpace=wrap;html=1;fillColor=#e1d5e7;strokeColor=#9673a6;" vertex="1" parent="1">
          <mxGeometry x="90" y="470" width="30" height="10" as="geometry" />
        </mxCell>
        <mxCell id="Ya-Gv7zuva_r2_n2X0PA-49" value="6" style="rounded=0;whiteSpace=wrap;html=1;fillColor=#e1d5e7;strokeColor=#9673a6;" vertex="1" parent="1">
          <mxGeometry x="90" y="450" width="30" height="10" as="geometry" />
        </mxCell>
        <mxCell id="Ya-Gv7zuva_r2_n2X0PA-50" value="" style="endArrow=none;html=1;rounded=0;fillColor=#e1d5e7;strokeColor=#9673a6;" edge="1" parent="1">
          <mxGeometry width="50" height="50" relative="1" as="geometry">
            <mxPoint x="174.93" y="460" as="sourcePoint" />
            <mxPoint x="174.93" y="460" as="targetPoint" />
            <Array as="points">
              <mxPoint x="174.93" y="470" />
            </Array>
          </mxGeometry>
        </mxCell>
        <mxCell id="Ya-Gv7zuva_r2_n2X0PA-51" value="" style="endArrow=none;html=1;rounded=0;fillColor=#e1d5e7;strokeColor=#9673a6;" edge="1" parent="1">
          <mxGeometry width="50" height="50" relative="1" as="geometry">
            <mxPoint x="174.93" y="520" as="sourcePoint" />
            <mxPoint x="174.93" y="520" as="targetPoint" />
            <Array as="points">
              <mxPoint x="174.93" y="530" />
            </Array>
          </mxGeometry>
        </mxCell>
        <mxCell id="Ya-Gv7zuva_r2_n2X0PA-52" value="" style="endArrow=none;html=1;rounded=0;fillColor=#e1d5e7;strokeColor=#9673a6;" edge="1" parent="1">
          <mxGeometry width="50" height="50" relative="1" as="geometry">
            <mxPoint x="174.93" y="500" as="sourcePoint" />
            <mxPoint x="174.93" y="500" as="targetPoint" />
            <Array as="points">
              <mxPoint x="174.93" y="510" />
            </Array>
          </mxGeometry>
        </mxCell>
        <mxCell id="Ya-Gv7zuva_r2_n2X0PA-53" value="Step 0 - Closed" style="text;html=1;align=center;verticalAlign=middle;resizable=0;points=[];autosize=1;strokeColor=#b85450;fillColor=#f8cecc;" vertex="1" parent="1">
          <mxGeometry x="85" y="360" width="110" height="30" as="geometry" />
        </mxCell>
        <mxCell id="Ya-Gv7zuva_r2_n2X0PA-56" value="" style="shape=image;imageAspect=0;aspect=fixed;verticalLabelPosition=bottom;verticalAlign=top;image=data:image/jpeg,/9j/4AAQSkZJRgABAQAAAQABAAD/4QAqRXhpZgAASUkqAAgAAAABADEBAgAHAAAAGgAAAAAAAABHb29nbGUAAP/bAIQAAwICCgoKCgoKCgoKCAoICAgICAgICAgICAgICAgICAgICAgICAgICAgICAgICggICAgKCgoICA0NCggNCAgKCAEDBAQGBQYHBgYIDQ0HBw0ICAgNCA0NCAgICAgICAgICAgICA0ICAgICAgICAgICAgICAgICAgICAgICAgICAgI/8AAEQgDVQRxAwEiAAIRAQMRAf/EAB0AAAEFAQEBAQAAAAAAAAAAAAIAAQMEBQYHCAn/xABeEAACAQICBgYHBQQFCAYGCAcAAQIDEQQhBQYSMVHwBxNBYXGRCCKBobHB0RQyQlLhFRaS8SNDU2JyFzNEVIKTotIYJCVjc8IJNIOjstMmVXSElLTD1OJFZKSz4xn/xAAaAQEBAQEBAQEAAAAAAAAAAAAAAQIDBAUG/8QANBEBAQACAQQBAgQGAQMEAwAAAAECERIDITFRE0FhBBQycSJSgZGhsdEjQuEFYmPBU3KS/9oADAMBAAIRAxEAPwD0DB4RLcsjr9C4NStc5qETf0JXsz8/k98dRLUyE1uRzuleiKLz2Uz0XQM8jcjTOemtvmvTHQ+uyPuOM0p0VuO5M+wq2jYvsM3G6oQl2GL09ukzfFGN1UqQ7DMe1HemfYOlOjNPsOH090Tr8pxvSrpM4+fKekGW6OmGu07nTPRU1uXuOM0hqfUh2PyOdxsb3K08DrbKPazsNC9JclvZ5NUoTjvTQMMczMukuL6b0N0nXtmjt9Fa8RlbNHyBgtMNbmzpdGa7Sj2nWXbFx0+wcHpuMjQVZM+adB9JXF+89A0H0iJ5Nm2XqNTRsZdhi6Q1EhLsH0XrXF9p0mD0jF9pYryPTnROnf1TzbWHobTveF/FI+s4wTK2L1chLsNbNPz+1j6CoZ2hZ9x5pprokqQ3RuvA/R7TXRopXsvcefaf6LN/qnbHrXFzvTlfnxi9V3HfG3iZlXV9H2brH0Sp3vC/sPMNPdEVr7K59p6sfxM+rnem+b8Xq93GVi9Xcs0e0aU1JqQ3xyv2I57GaJ4r3HeZy+HK4vFMfo3ZZPo3TLjvO51g1aTPN8fgXGVjc7p4ek6ua2uLWZ6poTXvdd2Pn3QNU7ShWy3nmzxldccrH0fobWuEl95eZ0GD1ijfJnybHTU4vJs6jVjW2rKSTZ57jp03t9W6P1gUslvNSjhXI4HUSpdJs9Y0bWTVjjvbprTIr6OsR0kdBXoox8TQsy6RGoBTiFFXBIHhNGDpzczWnkYmnJ5G4PBuk6n6yfceHaxO8vae+dLeFbp3W9M+dNKVntZ7z29Pw8/U8uy1RnZo77SjvCx5fqvjbHfTx6a7jq5yMyrhCpVom3FDVcGNtMzBM3KNXIy3hGinjsW4p+AGrVldjRw1ziMNrdaVm+067RGmIytZmk27LVLA+sn3nu2rdP1UeOanVE2vE9o0RkkefNvFHrDVsmeC676y+vbzXeeza6Y60WfNOnam1Uk+9/ExItdRoOoptI9G0boO2zbuPL9W6byses6E0q1sprLLx/Uzm1i946Nr3h7D6f1Yh6i8EfNPRxZuPsPpnV1+ovA8lbjQnAHYGqVgViDnW0kYBbIoSJFEio7DNEuwDKIVweva9V+B8hdKS9f2s+v9el6r8GfIfSgvX9p4Ov4r6v4PzHA1YjYaAdWORLhoZHixfYybOBju8A3EPAU8vYKRzzMQxiHsigiXZMeHRBKJbw0SFxLNCJzdRtANE8kRyiQ0haK9i3IgaJVCkOFYTRA1KJK0BSRK0aZQVEVaqLdRFaoanlzyaWqNL+kR9P8AR/SyXPYfNuplH10fT+oNL1UfW6P6X5/8Vf4q7fFr1fYcjjYnY4teqcnjInrfPUaUSGtEs00Q14m0UKhG2S1UV5Gmoe4FhXEFBIawbQ0iiNoHZJLDWAi2RtklaGaKImhINoZIoYJCsOjOwFTcVUi5Mr7I2JqaJLA0kSpGk0isLZJHEbZCIrDWJWhtkCFoZomaBsERtDSRJYZoCFoaxK4jWAjsDYkaE0BBIjsTyiBYCPZBaJWgZIJpXaAcSeSI3EuxSxiyPNddHkel4/ceZ65mM72dOn5jyfSUc/aVYouaRWZWhE+fb3fcw8K2IiZVWOZsV0Zc45m4Xw1NFwOu1dpeuu45bRvYdlqrH10fV6P0fC/EeK+h9T4eqvDh7vjmdYqNllvavufc2rX3b8svGzafMam32V2ePPy/XtYYO/Fu2Xbm0u22SSaSy3ew/Y9P9Mfhur+qsuVHu9md08tzaz7LXe6+4B0O7hu4b8+Hu7cjVej+N12O972una7zve3aPHAXyz7vhw9u/huOjix+ov8Aonnv4eHkuztZ4N5rLtzVnkrrK+01bPs9htLR+7tytl7MnkvgF+y/r7bbuNu3evLcVz32XfbhwtbPsW+3dnxyTuD9m53/AKX8Ms/A6CWj+Kyefj28c7cR6mjfLs7O55b+3w4JBdud+yPv/iGN79jf3V/D/wDwiGjbxWUC7o+rmc/jtYIrtMHE6/Qi9/vPxub9jH0Fq5iNx2FBnzFoLpegn99exp+eZ6RoTpSi7Z38Gctxp65FEqgcnozXiEuUb+F0zCW5mti8qINTAJ70TUqqZPBGkc9jNU4S7Ecppjoxi75Hp6pBqiZ1Db5u090QLPL3HnunOiJq7S9x9ozwCfYZuM1Npy7DF6crrOpp8HaQ1KqQ7MjJnQlHemfbului2L3Je1HnmsXQ2ne0fccr07PDpz2+Z6ONa4m1gdaJR7TuNN9D8o7k/YcTj9RqsHkmYssXtXX6F6QWu1noeg+k/dn7z56lhJx3plrD6Sku1l2vF9f6D6Qou2Z2mjdY4y7T4u0TrjKL3ne6C6S7Wu2Npp9YUcSmPWwEZb0jxnQPSYnbP3ne6K11i+0hpZ0pqTCSeRwuneixNPL3ZHqWG0xGXaXoVExFfK+nuizf6t/Yeaaf6Kou/q+4+6sRq/CXYjk9N9GcZbkjpM7EuO358af6K2vur2WPHtcdQGnnBr2H6S6e6JHnkea6x9D9/vQv4o9OPXrll035409CSi9z8jptH6OlJbj6Y0z0Hxu2o27ihg+izYe73GsutKxOm8V0dqVKW9e47vVno92ez3HqmA1OUew3cNoqMTz5dS12mGmbqxorYSR12GxdigpoicjlG3UUMTcWJV0Y+CxNjavkdpWLGdTVn3Es6JYr0riobi6ZUnSuZWOwtzecbFLFRKPLtaNXNpNWyZ5LrN0Rp3kkfTtbAKRlYzQa3G5lYzcdvkZ6mShuW4eF45M+hdMapLNpHE6a1LvuR3nU35c+DgKOMNTCTuR4rVuSdrFzRWi5J7jtyTTUwmjFJbjL0xoDJ5dh6Pq9oW6L2lNT8mzPNdPi7XnR7ozy7W7LgQaraxyjOOeV7HZdOOjHGdrbt9jy/RD9deKPXO+LzXtX1n0c43bcfYe8YWulFHzV0YaQts91sz2fEaaajfuPH1PLvj4U+knS1o85HhmMlm3xZ12u+nHN27DjZouM7LXYalYlKWe49f0dhouzVjyjVTRl8z0XRuGlFq1/A49R0xfQvRtTs4+XwPpPQdW0F4Hzh0Xyu14I+jNGx9ReB4sq1jGdpzWBQ3mTS1yjxOe6RKzseK6Z1ulSZjGbW9n1PonWFS7TpMPibnyZqd0q8X5s9q1a17Uks15lssNyvU4oaUTO0bpJSSNVrIjTgNfI+qz5C6Uo+ufYevEPVZ8hdKkfX9p4et4r6v4P9UeeVI5FnCQyRFOJcwsMjwYPt9SdmvgYZewjki3gY5EEoEyYxDSiS2BpErRxrtEWyWqCItknpROd7OiWUSNomkgJDZpXnEryRaqlZoinih7BxiFsFTaOmiSSDpQHlAIq1CtNF2pEqVYmp5Yy8Ok1H++j6d1HXqnzBqIvXPqLUf7q9h9fofpfnfxf667LGx9U5bGwOtxiyOZxsT014IzIR3lfEIuwiV60TUppl1UV6iLlSJXqRNtK7GuSSgBYoQmOkEkBGJxJbC2QIXEFoncCOcDQhHSCsKxQFh7BWEzKIqjIYomqEcURU1MmiBSRNFFgCwtkkaGaKIrDNE1gWis6Q7I1ibZB2QaR2BaJdkbZIaQ2GsSuILiZRG4jOJJYTia2K7iC0TyiRuJREwZIllEFxAglEFxJnEFxDDM0isjzDXPt8D1PSccjy3XRb/Axn4d+l5jy3HRzKyiXsasyq4nzq+3j4VMTEzZRzNTEIzZRzOmNTLwsYfE2Oy1AxW1Usef1kdx0PUG6vuPq/h++Uj4v4vtjlX1nqRgsl4frfvfu3nfUcBfs7N+e5fFXy3XzMDUfBpRXs7OxK7Vkvl5ZHfxj57uPHnLfnvP2eE7R+Bzu8qw5aP8AK+7xa7++/DIJ6Ptzxss7LP2/Q15VVuVu9Zvm/sW/216uLj3W3nXTCjHRvne2ed93Z2e/MP8AZ3L+V/nuCqaXiuc7Jq/Z2fTdkUMRrLFcODvm+7y5bEhVuWCt2d+++X65+XtIp4ft9+Xb7eHf8zFxetas1fO179iz7+/dv7u/Kr658Gnvu8rrh48cy3XtJvbrtmPd5COJ/epcuX0HMbjvxj8/NI6y4up27K7lkcxjdVa1W+3Um797SXhYoUfSQss8LT/ifusWKHpJxvnhFa/ZUd7fw895+TnTy9P1XKJMD0eTi8qlRP8AxM67Q9fEUd1SUuCe/wB9znqPpKUb/wDqmX/iNv3pL3lh+kbhm/8A1aS/2ifFl6OT0zRHSliILNNvyv8AzOr0Z0/1o29Rnhn/AEgcI1/mJp98svd8SeHpA4P+xqX9jXvt8THw30vKPpLRvpTVI74PvvC/k1UXwfgdJg/S9it9PPvjP4q6+J8rYPp1wD+9TmvCKb+JJLpd0c/7VeMF9Tc6d9G4+w8D6XlB76fvqf8AyjVo+lrhO2Nv9p/OC958XT6TtG2T62fh1TT+NsvHzLmD1/0bL+taX96m1878+F98PsbfalD0q8E+x939JT+eyaOH9J3APftL/boP/wDVPiX9+NG/6xH2xmv/ACklPWbRz/0qmvHbXxiX456qb+77mo+kbo9/il7eq/8AmlldOOjpfjf8Cfwkz4boaW0e/wDSaL8ZpNex7uNw1LBu2ziKLvu/pI/yJwno2+2MX0jaMn/Wf+7k15pNHOaT0jo2e6sv93Nf+U+Ta2h8K7f09HP/AL2Cv7+8CnqpQe6tTfcqsH/5hxnpuZX2+hNMaIwMt1SL/wBlr/ynDaW1QoO+zUXk18jz2OqFPd1sfZVj/wAw71JX51b/AMRf81vI55dPGtTOtvG6sW3ST9pnxotdpWWoj/M/4sviOtQ5L8T8zjek6Tqe2xgdLzjufvOs0Rr5KLWfvOEp6jz4vxuySOpc/wA0vfkYvSOb3jQPSfuvI9A0L0iwe+cfbJJnyJPVOqt05W8Wi5T0JWX9ZNeEn9TPwrzfcujdcqT/AKyH8cfqbVHTdN/jh/HH6nwPT0dXX9bL25vzJYUcSv61+Ub/APw395Z0r7T5H323Te9x84/Uo43V6jPth5x+p8KwqYpf1r/hjf8A+FZhyxuLX9c/4YL/AMqNfF9z5Ps+u9KdHVJ3fq+45LSfR7TW7Z9x83vSWL/tn/DD/lI54/FvfWlbwj/yj4vufJ9nsWl9Uoq6OOx2itntOCqzxX9s/KK+CsQdRie2q+fYS9I+R1takHSgcTLAV7/5x+SEqFdfjY+OnOPQoRRoUMUjy6axH5/cAq2JX4vcjU6dS5x65GqQ1qtjytY/F/mQP7RxfFG+Kcnq/XpoqVKh5vDTGKXDyf1G/a2J7bP2WJxOTuZYizBnWOKjpCu96LEcRW7UTjV5OjxFNNGTV0MmRRqVOBLRrVfymuJti19TLvcWMHqbFdhvQxU/y+8k+1TWeyaZtHgdXUt3wJcdo/KxFS1imvwXJKusl/wMEfMXpC6pNLrEt7al8mfOGjsK1NZdp+gWtmq8cVFwkvVfceaz9GKldtTe/dsnqw6mpquWeO7t59qLXslxyPS8ZpFuHsNLRfQlGnb1t3cbkujz+95oxlZVkeOY/DNu7M+eFdz2Sr0a96KdXowe8cl0ytTdGSVn2Hp+jqF2rrgZ+gdHdWrNbjbjpmEXfgefLu3K9q6MsDZr2W8mfROBpep7D5S1G6WqFNraasezYD0hMFs51EnbdY8uWN9OmNQdItHJnzzrxh8meta3dL2Fq32Zq/HsPG9a9ZKU7pSN9PG/VMq4HC1pRd0d7qjr7KLir9u6/wADiItBUWlJPvPRcZfLi+ydQdcNtLPeuJ6/o/EXifIXR5rTCNrzXtdj6E1b6SMPs2dWF+28keTLDV7O2NaOucPVfgz5G6V8J6zfefTetGvVCSaVWF+G3H6nzn0l6QpyvsyTd+xnj6uG5X1PwmXHKV5VOmX8HR3EU7Ghg2uJ4senY+x1OrL4aWEpZFORo06ysZ9SojnngmHUKESbqyKjNFo43F2maLZJ6UALotUDjli745E4EbgWrATgZ4t7Z1Yq3LWLKiN/HWOcWqSJYxFhaeRNGJzrWg04DzplinAOpTAzKlMqVoGrOkUq9M64RyyrZ1Ej/SI+odRIeqvBHzPqDT/pPL4n1NqNR9VH1uj+mPgfip/FXU4yHqnOYqB1mNo5HPYuieix4GPCmVa9I1Y0CnXpFGNVgV5QNKpRK8qRpdKE4ETiXZ0iN0jW1VUgkiXqhKmUAoi2CZQC6oCDYBlAtdWBKmVNKbgNsll0werKivsiaJ3TH6ooo14kUUXa9IrRpmRLRROBTpkygADHSD2B1AqAURnEmUB+rAruIzgWOrGcCKruILiWerBcAitsjOBO4DbBGVdxGsTuA2wBXcAJQLTgRygUVnEFxLGwC4jYrygBsFhwGcS7SsjSkcjyvXNbz1jSkDynXCObOefh36M7vMcVHP2kMoFzFQzYDpnz6+ziysTAoxp5mvioGdTjmaxvcy8K9fDnf9D1G0/aclPCXR6Z0QaCbd7H1/wsvPF8P8bZwyfR2rmltmK7vHel8e9cDdr63O2/gs8lnlub2lfclZWfbxr6tanuSXH2K3Ltu7uGXSU+j7Ltt3+DW5vtvws87n7PDen4LqeXH4jWWXH32zz8d2XZe/jll19YZvwvn5775dtlvWVuOfpdLo3jlknzbs7uKe4v0+j6H1/l5vxZuy+3J41LF1ZKy2rX7vpfLs7fG2UKw1WXHvunkuzseeXhm32WPd6WpNPh8N2+yyLEdVYrstu812+P0HH7rt4DDVeq/wCTsru7v927frXy7F32KWpFR7759tux3du63ZZK9lftPoVauRXYr+zttw423/XOKpoWCXZ7Ff3eOZqYy/VqV4D+4M+EvP8AUY95/ZsOPuj/AMoxODu/A37IKWHNDYF1Z8DT9JpnRww6wpodSOqZVUPs4Swhd6s2dWMHSlPZqz6uDjP17XtLZbimuDdk/EI5qFAeWGNatTX8iSGOkoOndbDltWsrqXFPeslbv8gMSOHH6o0HSG6kFUXTY3Ul5UhdSEUJU2QyoM1eqBdIox6mFZHLCPizadAHqSjFjhmtza8G18B5TqfnmvCUvrc13hwJYciMmWOrL+tqd/8ASSfzM7F6Ur5f0tTLc+sldeDTuvYdDVwxRr4M0qHR+nsT/b1v99Uf/m9x0+E1nxS/r6uW7+kl9TFwmENulQJYu2lR12xa/wBJrf7yX1LVLpAxi3Ymt/vZ/wDMZSohdUY1E22F0k47/Wq3h1kvfmOukvHf6zW3W/zkreW73GN1QSpDUXbb/wAqGPt/6zVt/i+e927x6fStj1/pNXzX05sYnVDukNT0m23Lpb0h/rNTzX0CfTJpH/WZ/wANO/nsGC6I3UE1PS7dBDpm0iv9Ik/GMfoSrpu0j/b92cIP4xZzTojOgTjPR3dO+nDSH9t/wQ/5QV046Q/tv+CHyVjmuoEqBOM9LuuhxPpBaQiv85F+NOPwtZ+Xmc3jfSq0nHdKl7aCb9uay9hn6VoHB6SoZnTHDH0ltekU/S10p+bD+3D/AP8AsRZXpgaSXZh340nv9k15M8hlhxvs50+PH0zyvt7RQ9MrSHbTwz/9nJf+Z++5YXpnY3+xw7/2JZ+TR4f9lCWFRPix9HK+3uy9NHF/6th37ai9yb+PsZYj6aeJ3fZKPip1PK3PtPBYYUL7KPiw9Lzvt9DYb026vbgoPvVaS+MbF+h6b7tnglfurNr/AOFc8T5q+zhLCk+HD0c6+n4em8u3Av2V1v8AbD5mhhvTao/iwlVLttVg7e5e4+VFhwnQJ8OPo519aYb008K/vYass+ycH2+H1L9H0ycFfOhWS8Itr3xPjxYYkVAnw4rzr7Op+mBo78lZf7Ef+b6lqPpeaLe/rl3dS/k2fFCwwawyJ8GP3X5K+3qPpX6Kf46iXfRl8LX9xcXpRaI7cRbxpVPlFv2HwhLCAvBk+DH2c6++sP6SGiZf6TCz4wmvZnHf3FyHTroqVrYqlm7Wu0/Jra9x+fMcIPDBE+Ce1+S+n6C0+l3Rkm0sVR7/AF1xt295JW170fa/2ijbL+sj27u0/PaOA5zJ46N3ZfAxehPbUzffUNa8BLdXou/9+P1J1jMG91Wm7/34/U+BqejCxHAPi+5mfhntrb7ySwz3VIfxx+pL9goPdOP8S+p8FSwkuL838mPCFRbpzXhOS+DJ8X3Xb70homk3baXmHLQEPzLzPg6nXrLdVqLwqTXwZfp6dxK3V6q/9pP6kvSvs2+446srsnbwk0HHQ81uqP8AiPialrhjFuxFX+NktPXfGrdiKv8AHIz8V9m32nU0BJ75vzInqv8A3vefHkOlDHr/AEmplu3P4osYbpWx6z+0Sf8AiUH/AOUl6W25lp9a1dUX2T94C1WqLdPnzPlNdNmkF/Wr2wj9LFiPT5j/AM8X404/Kxyv4Z2+evql6ArfmK0tC1+J8xv0i9ILc6b43i/+YafpOaQX4ab9kv8AmL+Wvpn5n05S0fiE96t7yTqq/dz7T5fh6V+OX9VT/in9USQ9LnFr71CD4JTmvfa5fy19Jetff+301s1yWnVxC7D5no+mPX7cPH2VH84mrov0xJ39ag0u6ab98DN/C784tY/iMp4yfRKxdfgP9uq8GeFR9LvPOjK3Haj/AMpYfpfU7Z0ql+FofG6OX5T/ANrv+ay/me1SxlR/hBhiKn5WeOUfS8odtKpf/DF/+ZGphfSwwz/BP2wSv/xGb+F+3+G8fxN9vXqWOqflfkGtKT/L8TzXA+k3hpdkl/sfSRsUPSLwr/WnL5JnG/g5fp/hv85lPr/l28NOS/Kw/wBvv8pyFLp8wb3v/hn/AMhaw/Tjgn+JZ8VNeb2LL2ifgsP5f8Jfx3U9/wCXRy00/wArIZ6V7jOpdMeBf44edvii3Q6UMDL8cN9vvxTv4NoflMZ4/wBH53K+f9t7VTWWNOe1K9j3fVXp5wsUlKTTXZY+dKOv2Bk3/SQy3+tDJ+G0WJ6z4Dd1kb8NqDfltP3HSfh5Hnz69yfVuK9IrBNfff8ACZFbp4wj3T9z+h84wx+Df417sveKjPCSf3/j9fea+GOPOvo+n0y4T+0Q1TpVwr3VI+Z85VMBheyoufIaOiMO91WP8T58rk+Ge1530+in0jYZ/wBbD+JCWu9B/wBZH+JHzt+7tF7qsf4vmC9XIL+tj/F9bF+Ge1+Svoz966P54/xIdafpP8UfM+co6tJ3tWXD76+ov3Rkt1VX/wAS+o+H7r8l9Po9aXpv8SCWkofmR85funV7Kr/if1HerOJW6o/N/Uvw/c+T7PpJYyPEnVaPFeZ8zR0Ti1uqS9j/AFJqdLGr+sn/ABD4k+T7PpXrI8V5iklxPm77dj1/WS8/qwv3kx6/Ey/FV+SPoh24idM+eo6449dvuX0+ZYpdIGOXZf8A2UPip8ke+9UF1B4PT6T8Z2wXl+vyLEel3ErfT+JPjpzj2vEYcrU6J5Gumev/AGXPkSUumia30n7/AKMl6eRzj2KlQJY4c8no9OyW+k/P6ouUOnul2wkjPx5el54+3p32UbqDzqn09Yft2l4osw6c8L+b/hfyFwy9HKe3fKgP1Bx2H6ZsK/x28U/oaNLpSwr/AK2PmZuN9Lynt0HUAyombDX7DP8ArYeaLEdaaD3VIPwkvqZ1fRuJ3RAdEkjpam/xx80FHGQ/MvMaFd0hnSLUpLihsuIRU6oHqi7sIZ0RoUnTInSNHqQXQKM10iOVM05UCOVAaGf1Yzpl/qBupGhzulaeR5NrjA9j0vRyZ5HrjTzZyz8O/R/U81xFPMF0i7XpZjdSeDW31pWNiqZnU6WZuYuiZ9KhmXGd1yvZpYHC3se89C+hklfvXPNjxnRuHPfeien6nl7UfovwOO84/M/j8tYV9H6rYSKivLw5zOgpxVudx5tg9ZNjJvcll77br7rO6/RT4rX+yt3Z+zJ5uz5y3M/Xa7PxWV7vQZ1Ir67veVp6Rin2fH+Xu92XleO6RM9/fZW3Zdjtuv37jnMT0hN7n3bu5vOO/db6Zlkn1Y5PaK+skF2/LPz/AF7jOq66xXal7Vfnsz7jwnSuuFSTdr555Nr7t3e1uPbuzW8wq+stVt799t72kl32bcnxurLzbc+kTb3/AB/SBFdqefhZd/D22+BhY/pAWee7t+V7b7dmT+fjH2uq/lvu9/ZZNO99/dvK83Uv23e63Zvve91layslleyyLbYuHevWv8pPO2v+Uc8i/Z9Xivd9RGd17H5nKA6iSbI9j8/t+j2CNMdxDSH2RtNotkJRDUR4obNo9kSiSbIrDZtHsiUCRIdxKItgdQDsFYIjcAZUyfZE0BXcQJQLDiC4lEOwC4FhxB6suhVq0ipViaNSJQxKKo8LE06UTOwZr04koWwFskiiKxjS6DsDqISQ6QNBsPshWHQ2odkSiSJCsNiLYGUSSwxAGwM4EgmQY+lIZM4bGwzO90nE4fHxzO2DNUerG6ssJCUDqwgUAlRJ4xC2AIFTHUCZRHUQIYxDVMlSHsBHsBKmSJCsBHshbAaQTACMR1EJIa5SE4A9UTIdojSONImjRHgTU4EAU6BbpYcelEs0YmGoKjhkTdQSU0T9WYdFV4cD7P3GgqYPVEXSj9mDhQLfVjxpBFdYYX2ctKIrDTSr9mBeHLeyC0NIpSwo32Mu7ISiNIzpYEiqYA2I0gpUCDnf2aQ4jQ1+w6WOGJngy7NPOcRoawNHBWO7xGibmNjNG27DUqcWbGnkBPAlxUS1RpEXTElgC1hMKan2Umw+GM1uLGjcMb+DoX7DLw0LG/o5nMqSOBF+zjUhTJuoDnWR9gA/Z5udSC6BrSMdYAkho81I0CWNEKy/2eRYnBPsy8MjehQIMRSA5DEQlf70v4pfUmo6QrLdVqLhapNeVnkaNehmRPDGbGleOsGJW6tV/wB7PLzYEdZcV2V6y8Ks/qWJ0iN0iaVNh9d8bG2ziKuXY5bS8pJp+1Mmj0iY6/8A6xPjmoNeWzb2WsU1hyxSwBdRna9HpXx6/r2892xSt4ZQWQcOmjSC/rv/AHdPLuVorIzp4BAPR5eOPo3XQUenjSC/rI+Ow0/dJL3FqHpE6QXbDdvtUy8qi990cstGgywA44+jddxgvST0gu2n7VU9/wDSW9xpw9J/HcIexy5XjmeZrBIKOGJwnprb1heldil/VRt/jz9v9Hb2ZeLLlH0tq634dPLtqQ/+Qre88ceFIupzJxnpXuuH9LqdvWwqv3Tg/jTXnY0MN6V8Xa+Gd+3Km14ffjdd9onz/wDYy1QwQ4xH0lR9Jug0v+rtcbRVk+H+c9+fsLX/AEjsI/6mX8Cy9qk7+y5860cMWY0BwiWvozCdPuAdtqm14qa+EWX4dNei3vVv8SmvjTPmhYYiq4McYlfTFTpV0O99SMbvte5eSt7SOt0jaFk8qtNR7L1KW17fWWb8PM+TtI4I5zE4Y1wR9uUdP6IluxEUkrv16bt7VNe7yNrReiMBUts1kr9qzy/2bte8+D9HYXNZdp6HofR97cDnljpZ3fXVTUXCN2jiFf8A2l8vqVafR1Sk3bExSW/PL3v5Hzlj9GyUN7Xg2eb6YxtWD9WpUjn2VJq3k0TGbL2faL6M2rbGJjnuSqZ+V8izX6M8VFpRxF3wVV3XDty9x8OaE1zxammsRW9tWb+LfmdlDpCxkc1iKifjf5e7cavThLX1pi9RtJU0rVW7q6SqqVl2XzdgqWhNKr8ct1125ceUfH+O6aNJLdip+2NJ39rhf3lnD+kvpSKt19+N42v4pOK8kh8ca7vranjNKr8z/wBn9C1LWrSkN8X7YPz3W9p8u6K9LHSkbWnT/gnfxyqLM6eHpX6SWcnCT8JK3ck3JD4sfR/E94/yn6Qjvpr+D6E1Ppoxi30U/BM8Ij6Y2My2qUGlbdJJv29U17LHUaN9Oau7ReGhsLdGLg1fi06STb7Xu7nZE+HFd5PU307V1voeV/hl8SSHpBS/FQfm/oeXx9MWDd6mDjJve9im/ddK3ckWKHpb4SVlLApK+doQ+Kn8vYPgwTlk9Qh6QsO2jNe2/wAiwvSDo9tOa8jhMT6V+iZ2TwCjFKyUYPafGUnGclJt8ezsyZPg+n3QD+/hpX32SrpZ7k0oyWXc8/Iflsb9U+TL06rHdO+Gkvu1PJfW/uOF09r3SqXspe1fqdZhelPVdpXhU2rfevVirvNtxcEoxhuS+9LtaRNV1s1YqVElVnSpJSc5bacnaLklbZsnKygkk/WkruKuznl+DmXiumH4i43vHk70tFsNaUhx9x6XitJat1Jf0eJlTi25XnUotQi3lBXacpLd+LPtdrubEaD0A16uOltN2ScqGV+2W5W7lZnG/wDp2V8WPRPx0nmV5LicZF9pUo4mKe9Ht2G6KtEVH6ukGlZetKCs5filla0F2cS/L0dtFtRtpWmpP1pvq1KKhZ22PX9ao3b1b7r5JqxJ/wCm9SX6NX/1DDX1eTaN0jT/ADR80fSXRVSpukrTjftSavn8DgMR6IeGqf5jSdKcpZwi6dnsWutq1XKb/Kk+3wFT9A/FLOGO2Xns9X1iXHPZqQfz3n1fw34fLpXdn9nxvxPWx6s1t7jpHRvamt1sne68W7cN6f15evq/L8zskk83fL2q3G1lm3uucDV9CDSSts6VxCbdrKdXZVuL+05LvcW+zML/AKHGmYJOGla7aSydSSztb7zrN2Tz3Xee7NP606+P3/s+Pfwtv/dHby1Pfvule9v0z3vgsrEmF1Jd+1b8lfutlbi32fO/nFX0X9ZE7R0jUsm83VUr2fapX+9e18917PsOPQDrVBNw0g5NRuovqrN2skrwbWebTve7yRr5+n7v9mPyef0s/vf+Hqa6PZtbnbO2923ZLO+Vk1w8hUejGb3Re/Oy7M9zS48PM8uw2peucJNKspRi203HDtSV/VSvBWt+Lffeuy1rRVXXVb1TaV1syo0N6Ss79XFPtVo3vZPaytLvjenl4zk//bc/+qx+U6nqf3/509Zo9Ek3+Dd5dueXhfibOE6FW16zS54NcO9W4PO/imM1+1wo5zwlGokpXSoXvZXynHttvezbflkW9H9Nus+zGUtGxcWoNWw1RtqWzm9mql2vdK1l4263ozKduth/ez/cax/D9SX9H9rHt/8AkTX5o+S+g55T/lw1i/8Aqt//AIaf/wC6HM/l/wD5un//AF/4en4Op/Jf7z/l+TsoiRJUQMT81p9c6Q6Q6QSGgOyJRCFYaAtDbISHKG2RMcZyAG4kyvVqkMsSXQvjlKljSxCuhoSOIrElhrF0IrCSCkDICKojMxMzRqmNiJiC9gEbNFGNoupkbVBEqpBkgpMSRlCTEKwRV2ZCsIcKJCbBuJsKaTGHQjIYdCQVgM7SFPI4rSVP1megYmGRxmnKdmdMErHURbAdxWOzmZRE4h2GaAGw9h5IQDIJCsKwCQ7EggBQ9vIQVwGSEOhFBpD2L37NfVxqLc5um13pJ5ewptkaSRpksGBCsKLMi7QLVKJTw8zRpIxW4lpwLOyRUyaJhs8B2MEANhIdiATGbEyGdUA5Mi2iGdcGE7gWYzJYxIoUy4ogKMA9kBzEqxKqWKJIIiUgosjUWVSRVxej0y5RZOkTbenG4vR9mQ042Oq0hgTBxOGsXbnoCiS0okUIlimg1FynTNLR7zM+ii7gnmYHTYWORa2CDAyL0YhioXAHqyzKmBsBnSONMLYJdkJRNDU1e0Uqm1d2ssvEj09q84O3HcVabtuL1XSMpOO077Ksk91rmWo5bSGjmuwzakT0bGacou21D8DTat9629dtu488x1W8m1uu7eBpFacQGTANEqwqCzNRLIz6KNDaERHsFjC4cfDxLdOJRJ1C4FLE4JGgmPUhkGnPzpgOBerUCtOBkBCllcghSzJpj0YgWsPgy7Rw4sNEt4aVnz2mgMaQapkqRIojYalTHlhixhqZpU8DkZtHD6Sw285fHUsz0HTeEscNj6d3Y1KxYHRFG8j1rVjR97Hmer2HvKx7hqZgckc+pXTCLuldE+pu7DxXXHA2v4n0npfCep7DwXpAoZs54XuuUcDojD+sdVOjkYOh4+sdLVjkd2cY5rSNMzfs5t4+mUVTI76Po3C+sjpsThlYy9D0/WRt4sbXTAxlAvaCwN1cjxCNrQdO0SWopYrBlD7OdDi6RlTgTa6VVTHVEsbBLSpF2K6ohxwpdp0SeNEbNM77Ox44M1I0CSOHJtdM5YPuXkiWnhO5eSL6w5NToF5VLjFjQOk50pKUJzhKL2ouEnBqXFOL3nqmsPThjcXCjTlOVGlQpRpxhh6lSnttK0p1HGSc5TfrO9832nllOibOjMSlkd8OrlPFebPp427063D66YuKtHF4uK4RxmJS8bKrY0sB0r4+LTWOxt4/d/63XdvZKbT9qZyP21FDE6TSOn5jP6Vj4sfT0v8A6RWlabco6QxN/wC9OE15VISXuKOI9M3TUclj6nbvpYV+94fyR4/pfT+84/FaTuz1YdfL63f7yOGXTx+kfSGB9OjTcWm8Xt27JYfDWf8Ai2aUb+aOhoenzpj+1oeLwsMvCzR8nUaxr0qmWR3nXv1mP9p/wx8cr6jj6fGlrWdWhbtf2VbXmqlvd7TYpf8ApFNIJJbGDlbe3SqpvxtXS/hivYfH2JkUKkjf5ifyY/2PinuvtD//AKPY/wDssH/uq3/7gY+LdoRPzGP8mP8AY+P71yskRxgTNgWPkadisJCGlIaDsYG4hoFca4ww0FKRVnWFiKpVVUqjqTIazCuNORRUcyfD1iBktFBXQ4Z3DnEhwEy3ViEVJIFhyAsRENVGBjXvN/Es5/GyzKVf0TuN/DyMHRKyN2iZVKxJjXHIpxXBHYTQkxhXGTDR2xhrCAK4kgbBIB2EmCOmZA1kcnp6B1tRHN6fpZG8UrmLiiwJDwO7mkEhosSKExNCTGIHSHURrC2gHbEmNcSYBIeIKYozKDuOmCmE2RV7A6SlBNKzi3F2ea2ovJ/LzIsTidpuTtdttpJJZvsXZ4IrqRLTDUFYnpUhoUyzRgYtEtChYv0okeFgXVCxzregRJIgwJIkaPENFvRuj1N7N7PNrvtnYrwiBG0BJksyvUkBFWrladQepIrTka0g0W8NAr0oF6kiVRKJOmQSnYrVsYAeIxaQFHFXM2pIPDyIN2MyWEinRmW6ZluLdKRcw7KUEWsOjNdFmpTuY+OwhuwRWxdAjOnLulZksUWMRQA2DTJ4lrCPMr2LeBhmSq6jRjNaMTM0XA2KcSMUFREaWaJ5oikgh7DpCiiRRAUUHIFIU2BSx8cjna8DodIVcjm8bXNQA5oryxSM/E48pvGGtJtv0cUXPtJy9LGl2njxo263B1lYtwlc5XC6TLdPTCXgTRt0iJrmJT0kn2linpDvDW1jE0jMrMt1sVco1qpNG0SkLaIpMamRW3gKhdM3R6NCJRbpslTIIRJ40yUaejKFzoIYLIzdA08/YdbDDZHHKtR5/rPRscHiaijd9tnbxPStbKGTPLdMwzOmLGSzqhUXWXe4981QeSPnrVz76PoLU55I5dR06bsNOS9S3ceA6/dp7zpj7h4Nr4s34snT8tZeHF6Eh6x0uIhkYOgY+t7TosRE71zjCxdMpSNHEIqVKJHaJ9Fsu4moVcJCw+ImF2VzdwM7RRz9FmxQlkSi/UdyhiKOYcqgygRUXUkkIEkYE0KYIaECxTgFCmTwpmdtI4wJoUySNIlVMbEKpE9OiFGmWadMloi6oysXjNlm7UiczpV5nSOGavidZWjGxOtDLOIo3MPSWCO+Mea2hq6QciJIbBUMy5iKGR2YRQmbWGr5GDA1aCyNbWJK2LuValUrYqrYr05PeybVf60YrdeMTa6ZGyC4hpDSMMI+eef0EkaAaII2hmFIGSKCQLEKTAo4xFO5exK55+Bm10RUimKcyrTqEzkAMg6MyMVMqtzB1jQlVMXDzL8ZhKkkwbiuMBFiTn8bvN3FSMLGokStPRm42qRi6LkbVNEWDuOhhyNEJsQNywOxAi2gCuIa49yB7hIEdAEmOgUEgFNGHpqnkbk2ZmkIZFxHD1ogrllnG07MgaPQ5UyHQw9wGHkIFoB7iG2hYbOSXFq4Hb6pdE+IxX+ag2uKtZX8Tpq/oy49f1d/Bxfwbse8636eWh9EUalOKdWpGmk+x1KkNpOVuxRT8j57j6VWkvzw/gX8/eeSZ55d8Z2+70XHGeTy9HTHf2UvJfVFWXQPjF/VS8v1NSj6WGkO103/ALFvg8/b7iSHpa4/t6pr/wAN/wDMa31PszrH2yKvQdjF/Uz9lvqNT6DMY8+pqW/wP5I3n6WeNf4aX8D7PGX095p4T0wMX20qUu97fyJvqel44+3IR6EMZ/Y1P93L42+JHPofxUd9Kdv8L+aPRIemBie2lT9jkvmzRo+mFWtZ0I/x/wD8N/iTln6a44+3ktfo+xEVd0p2SvdRb+RhxVmfQugfS3XWJVsOlRb9Zxe20n2uNldLfxM70p9QqNCVDGYdKNHFNqSh93rXDrFKPdUgpOyyyfFmZnd6ynnwvCeZXikGWI1MinSZYgjoymiSRZEglIC7h62y01k+I3W7+8gjMZzAknMpYioKrWKNapcsCnMakrkSYdGRpna/RpFpVEZ6xQDq3Io69Yq7JMohxgRVd0g6cSzGAcaADYeoaNIzlAtU5ma1GjCRcolGgX8KzFdVyA9RDQDZBjYyiU3A18VTM6cCxzqKKNDAU8yikbGjIFqOj0ZRNJIrYFZF2xllFURFsks5EE6yAmhAIq/bCpiNLJdpdI1JVCliMejBxmsfeYGL04+JqYptv6U0kuORymO0pcqYjSDfaVXM6SaZ2OeIuBGRHKQEWVNrVxKoRqQ20DaaOKYcdIMpsTBtqUdKNdpap6ZZgpBqQNulhpku0cXc5GNY0cFjbE01t00SxTpGXh8WaWFxJzsb20sDTsXUiphqpbTI0sQkWYMqUy3RRKOm1dXbzzY7LqsvYchq2s+e47OG72Hmy8ukcTrQ1Z+08p04sz1fWmieV6aW864Oearq9/nEe/6lyy8j570RU9deJ9AakVLpGeo103WaZl6vsPDdeadr+09v05LLzPEekGpv8bGen5dMvDltX4+sb+JRjauQzN3FrI7VyjBxDzFTpg4reS0GR1S06RBi6RZ6wimrgVcPTzNKlIhp0yenTDSakiyoEVGBcijNakQqBZowFGBZoUzO2tHhTJ4Ug4UyeECba0jjTJY0yWFMljSJs0hhSLEKYUaZLGINKuJjkcfpevZnaY/ceaaxVrNnfDu8nUSxxCIcSkzB+2lqhjj0yPMs0sNZk+JpZBUZomq7i7HPJZmxQnkBHBZh1MPY1tFKvApVJovYqDMerEii6znlCIurYiLsKGaHYzZGAgtBWEBHsguJI4jMgisMyRoHZArVImdiqJrziQzpFHOTQUKhq1MCV6mC8w1tU6wkgwvsLLFHBkEtCBfpsip0rEyZUE2FcAK4RVxTMXF7zaxTMbEbyQaWizbpmNotGxFmasSDDXFcNHYNxMFsB3Ia4hrgHcVwUOAaCUgEOmAaYTACTAdlLE0y4+eefYR1ImoOL0rRszNudFpugc9Y7Tw50zBuG0A2VDpDRQhmwGmyXR8fXj/iXxsQtEuC+/H/ABR+KKtfXPpb0v8AsfBJdlTCr/8At6iPjaB9j+lbUtobA/3pYN+37PL5X958d2PH0f0/1rt1PM/oa5doaJnLOMW/BZFPbPun0e9V8OtFU61WlBtqpKUpRT9WLfHgk3bwNdTqcJvTOOO7p8Vx1eq/kl5CeiZrfGXkz7ifSToW19rD+DjFO/g4rz+ha0frHoau1BOhKUsrXjd+fw/Q8/5i/XGu06f3fChNRPqbp49GmCozxeDy6uPWVKCz2qazlKD33ivW2e1I+WaMz0Y5zKbjNxsW4RPpz0jaP/Y2i+6WG/8Aydb6M+Zqe9ePPmfUfpOZaJ0av+8w/wD+Tq+7P4GM/wBWDWPivmSgy3GRRpItwOjCcJSI0h7kEiYM5jJkNSYEVaoVpslqEbRtKjchdYKYCDI3MlpzIbEkCVrytQRKiKmTIyp4EsCKLJaSAdwHpomURpQMtLGGqGrQRiUmamFmZrcaMQrkUZkiI1tFVM3ERNSZn1kGKptGno+qZ8g6U7FZdZhtIZE89KWOR+3WKeJ0uy6Zrr8TpjvMvEac7zk62k2+0pzxDNzFjbp8Rp3vMvE6ZbMWUxjUiLVbGNlZ1AQWyoPaHUwacSxDBsAp4VKG1fPaa2e3K2fv+PAqxpmxTwYawAGQoBbBrPAkf2UDN6sJUS+sOO6ZEZsoDNF2dIhlRKqvEs02RKBLBBGhh6heo4uxlU5lunUJpuVsU9KmvhtKI5BktHEtGdLt3dLFot0sXY4jD6VLUNNmdNbeqauYvM7CnpBJHiejdbNntLuI6Qe84ZYW11mU07HWrSKd8zzLS9XNkWO1llPtKXXX3m8cdOWV2fRi9dHumpuItE8KwrtI9S1Qx2SzM5xrCvTcdibwPGNepZ+09QxNb1fYeS62Yi8mYwjrleynq5HNm1iYmVq/2mtiEdKxHPYuOYFFk+KWZBBBtYY8EBJklNDSxJBE9JEKiWaKI0tUok6iR0ieETDpBU0W6MSKlAt04GWolhAmhEaMSxCJlvRRgTwiNCBKoEDKAaphQRJGJYlZulvuvwPLNaKmZ6ppmOR5NrNLM9PTeLrMCQ0KoMpESmel5GjDEl7DaSZiqZNTrBXSUMai0qiZzEK5aoaQaKbbssJcp4nRQWH0qW6mMRFYv7K5zGNLbXEcDk2CxtoW0YZIQw+0ALGY4gBaGYQwEQMiVICSAilTAdMmYNjYjjRDUAriMhSGQ7GuA6CQDHjICHFxMTELM3tI1E7WyfauzxRgYk0rV0aa8DJ0czWgZIdDjNg7RGhNgXFtDbQQ7HuDfnnn5pMKJIcEcgINEbY6YlBxkEmRphxZQQpCGKMvSOHucriqNmzuq1K5haS0cdJWXNEbLGIw7RBJnVgwG0E2CpEWmbJcD96P+JfFcCu2SYR+tH/El7wr649KON9CaPfCWEa9uGqJLyl7j4/kfXfpMyf7E0ff82Gv7KFS3m7b/wCXyI2eXo+L+9dc/M/obYzP0J6O8Ns6Dgkv9DrP22qc9+fE/PumrtH6QdFOBUtFYWEt08Lsy/21JN+85fibqRvozvX5s4ZZLwXw9xawqd1a+/s4n2P/ANDnC9lV+1J+7I0tD+idhack5VNpJ32Ukr24t3y39/eX8xifFXcdAGJqT0VQ65uUlCpBud5N002oqTebtHLO+4+B8Zh1CrUhH7katWEf8Eakox/4Uj7s6SukKho7CunBra2NmlTTzbe5232W9v3nwnHNtve7t+Ld35sx0d/xX6VvqfSekqnbM+pfSif/AGVoxf8AeUPL7HW/Q+WKiPqP0moN6I0W3nadBP24OrZ5+HvN5/qw/es4/V8zU2W6TKdMnhI7MLW0M2RqQVyApSIZBglEcgbByIKki7QFQGwmKKAKKJYIGKJIobIlpomiBAMyp0iagRElIlWLkIjtD0GE0RVdo0MEyjViXcAjNai/GRLGoQJi2iNJJSK1WJI2R1ZBKrSQDYbImzTIZFLEUy80NKkEYdSBBI1sTgzPqUTpK52KwVg1TJI0jTCNQF1RaVMONILpHh6Bq4TClajTNXDGbWpE8MGO6BKpibMbVXnTK1SmWqrCr4W0Uyys6ZEkRzRNUZE2aYQSBkFNAyZoRSQ6QmxgDTJ6FQrMlo7wq+kBJEkSOqFR3GdUjlIFsKklWBVQGI7IiaFQt065mKQLxA0NunVzOx1e08onmqxjJYaVa3P3mLjtqXT2uvrWnHecBpzSylK5yr01J9pVqY5vtJMNLcnb6I0jka89KKx5jDHSXaTx0lLiXgszdpXxd2RxrnLLSrJYaTY4nN1dKqW6LOTw+kzXw+k0ZuLczbhNRMyli+8t4euc7HSZNOiXKcSjh5mhFnOu0T0Yluminh5F+mjFdIsU4k8IkVJFqnEy6CpwJVEeCJVAM0EIEqiKMCSMQVjaelaJ41rJWzfiew6zSyPE9aKufn4nq6Tw9ZjzrChMqOoD9oPXHkaPWDqsZv2gKNcJWisSSLGGX1gLqgjahjiSOkDn1Mmo1GQb/wBuXf5jmX1jHIh9oTBYjDQtoVwRAHcTYO0IBbQmIZsA6FJyaS3t2S7+GeRHUj2ewcaRdCNoawbFsgDsjW5/mHYa3PPPiFCxmONIimFca4zDKHEmLiN5sYhmNiGbWNbASyNamY+jew2KbMoTQw8mDJkUzY1xXGQU6YSBTHQUSHuDYdGQ9wrgj3AO49gEFc0DiEkR7QaYBOJBWw9ydsa5RgaQ0dc5/F4FrnyO6qUzNxmBudMazpxU4EaZrY3B2M2cDozVfaJ8HH1o/wCKPDj5e0iaJ8DH1o/4o+yzWfs3hp9c+lPG2hMCv7+F91Cbt7vc+4+PD7F9KulfQuA7qmGTXhh6i92Xl7D47UTzdHx/V0z8/wBkmG3rntP0W1Rk46GoyTzWAck1xVOTT8z87FA+/wDUzS8ZaAhJNZYGtHw2VUjb2WOP4mdsf3dOj5r420f04aRsn9qq7k96fldP3WLz6aMfJWeIqeKdn7kcBhqFkvAuRid+GPpndaOktMVKr2qk5Tl+acnJ+bfiV6YFOBIiolgs14n076SdV/sfRXfLD39mDqr5o+Yodnij6e9Jen/2Ron/ABYfyeDqX96W449T9WH7t4+MnzNAliyKLJonVgY6YLYrkBocjiE2WBpsrNE8pDRpBEKiKMSeVMaNMGgxRJGAUKZLGJFKKHHsPshZCig4DWHTCrNBkrkVeuJIVTIn2C7QVivSLVIw2kHTEMAMpEdSQ8mRyYEbAsWVBbLd89qyXbbtfwRXNMhQW2NYYA5QKdbBl6Mh7FTTKeDFDCmo4kbgXaaUHATJ5QIJjaaSUy/QkZtKRo0SC5GQ9wLkkYhlE1mNOrdWJa0bfQzutz9pYivVZEyatO+ZE0aZRyIZyJqhBKRYgWK41x7FCTJaTzI0yWigq1GYMpDXAqTCo3zz7Rmx5AbQO59oaciOUwHIFSbYINx7gJj2GG2gohkNtDXCDJYIguWMMwySiE0XIUSKpTKiupk9DFleSGiQ228JpI18FpJHIxZPRxRmxqZPQcFjTboYjI83wmk7HQ6P05c45YvRhm7XDM0aSMTRuLub2H3Hnr2Y1YpxLdNEFMtU4mHZLBEkUAiWmgykjEfYChELZCVy+tLyfgeHazSzZ7drbLJ+B4ZrG/WfierpPD1WBKQG0NNgnrjyVJtjqRGmT0KFygqbLOHwUpbjd0PqjKVj0TQmoW7I55ZyEjzbCarSfYdNo/UR9p6ro7U23Yjbo6vWPNl1b9GtPI/3GXBjHsP7DXAYx8mRxfLAkxmxHs0h2OAIaBXHTGQkNBxDMQ0ELZBJeqyAHZGFtAgPYZsSQzFAsENgoihY1gmC0XSK2LZkVzXxRkVd5VjV0casGY2jpbjWTIDYEh2wWzKBbHQ0hg0dMNMC4SYBoQyEAVh0NcSAJBApj7QBjtgxkMmFSXHuChMB7gSgEh2BjaRwlzmsXhjuK1K5h47BHSVNOTnAsaOpXnFcZL4k2Iw5Uu00+86MvsL0radtD4Jf38Nf/cVH8bbj48hA+38Xo5ae0FSjRlFYikqd4yd7VqEbOD7Vtwk2m+K7z51rejXpCP8AUye/7qb8rI8vTymO5fO3oyluq8vijqdFdIWKpUnQhWlGhJNOlk4Pb+9ZNXV757LVzoJdAOOWXUVP4Hyhv8huOX9RU/3cvodbljfrGNVwVOmWKVO52M+hzGrfQqLucJJ9+9EcujDGR/qanjsStbxsTlPbUl9OYiDJnSPo7xX9jP8Aha+XYV5ag4n+yl5X+A3PaaYtOefkfUPpPq2idFLg6Huwc18GeD6s9GOKq1YxVKSu0m3FpWut+XYe6+mFjIwwmAw6a24O7V89mNHqrtd8mreD4nHOy5Yf1/03JqV8z0mSKRn0qxOqx305rW2OqhV60brCaNriqDbZUjUGliBo2vRLsI5GTQrGlTmNKKVIZUg1UDizKo4xCsTKIzgFRbIwbQDAe4E5DSkRuYBssYWBBSRcoozVXIyLNCoUosngzCrjkOiGAe0FBNEMmTSIKgShYFxnIZGmUlwJsdgTYDRqksKhTlLMkhMC5cCbB2xSZQEinVZbkylVCDos0cMzKpTNTDMItxC2xoojnMMocVWKTZNWeZXmyxkwLYmyOcjSFUmV7k2Ncb2jdri1a/fbMgRYhBxQISZQ6DjIjuOg1ErqANgoewU8mRtjtkU5ABOQCFcdIJRU2TMjjAkSAGQFw6iIrBSTCuCIIOJJRkRJksGErRo1R6qK1Jk1WYZV5g3HbACCTEJDoCSFQtYfGWZnykHRkStSu60Fpu3ad9ozSKaR41h6jR1Og9YbNJs8+eD09PPXl6vSlct0omDonSSa3nQYSrc8z3ypFEmpoeMSWmiLRRiE0GgpIM2uK1vj6rPCtPx9ZnvOty9VnhuslPNnq6TxdVykx0Ke8KlC56o8tHhsO27I9J1R1OvZtFPUTVZyadsj3rVnVtJLI5Z567RZFHQOqSVsjsMNoZI1KGES7CWcTx27dGf9lD+zlpxEok0K3VCJ9kcaV8TpiuAEfRcSuPcEdAFtDoAIgcVxhMBh9oQrAIcYdAIFscZsUMCwrgWJAmCx2xmaFbFGPXeZsYhmNid4WNHR0jUMrR8TWZkKMhmwUJshTtjgiXPEIdIKL559oI4bGkOhkx0EEhRY1xwCFca4goriEJoAlIfaAuOAYRGEkSh7ENahcmQ7iNjAx+izDxujzuZUjJx2FNyppQ6P+k7F6OqOeHnsqWVSnK7hO27ajuut21vtldHsOE9N3F2tKhSb4pyS8r+654ZjcBzz8jPnRsW4Y5d7FmWU8V9HUvTbxPbh6fsnNfFSRJT9NjEb/s9P+Ofhvt8j5nksyWCbJ8OHpfky9vpyPpvVv9Wh/vGuz/ATUPTXn24WFu6q7+bg/h7T5jVHuBSM/Bh6a+TL2+qF6an/APSp8bzX/Ln5It0/TUpP72Ft4Sj8HBL3/V/JsYjKkPgw9Hy19WYn0z4JPq8Ln+G7jZPvtnY+fukDXyrjq0q1V5uyjFfdgluS+rzz7zlYoOJvHpY4+GLnb5TRmEqhEkE0ddA+tH60jbBMifrBmMmSQJoKBbp1wKVItxwZlpGsQyzhsURVsEQQp2Mq26VUkbMqnXLcMSRUtVlecx5ViGTChlMKCBjAnhECWiizCRXpk1NGViclpyILhRIq5GoSKRUjMkVQybTORBVH2xmzWkA6YNyZEUyoa4EpilIinICOtIVKoBWYFFmtJtfjIJEMJBpmVDKZWrslqMq15hNlTNXCTMrDo1cKgjVlFbN7+s+zguJRqMmcipOYRXrMrOoT1ahXmzUYppSIaonIGc8zaaDsisOpiQXRrBpDX5+ggaEkOkJIW0FFYTGkxpSAGcSBsKcgNkAbkkECiQCWMQlABSJEwiKsiBFiqiBhTWGTEwUgJEyWkRxiyaMAylTJERxgSxQELQFw60iFsM6SRZI0RQRMog0rymNSnmKqhQBpqU5jTrWIaEhqrJpXaap6xNZM9W0VjrpHzlh8XstWPT9T9Y72TZ5+ph9Xr6XU+leuUmWIxM3R+KujUpo8z2bFYUg0hSRGa5HWmGR4lrdSzZ7vrFHJniutNLNno6Tx9RwFVGrq7o3bmkUMRRzPRujXQV5J27N56bdRw09S1F1dUUsj1LAYWyRj6r6N2UjqIo8VraNxAsSSQ2yRUewJQJLApANsCDGCPhgNLnnncRJBpn0HI4QA4BXCiAmOgHEMPcBgojXGTAIYTY1wFcaTHuMgGuJikwWwExmxWG2gIMSjExCzNvEPIxKu8NRqYA0kzMwMjSTM1TMYZiIzToSkCmODYrjpgBJk2ux3HTATHuUHcJMjQQBtjoBD3AMTYNxXCiHBHTANDpgJj3IDbFtAbQiA9oqYtZFgr4tlgxa9G5FW0a7E8pWZdjK5vY5TE4VrsPoT0cehejiaVTE4l/0NNrckvw7Urt3sklfceO4rC82PpLorxTjq7pFxupRhXtbfnRtv479/uOfUzsnZrGd21PRurn9pT8euy+FiHR/RjoDGS6ihXj10k9nYqxcr2e5NZ232PianF5eG/M7voQbWk8E08/tNJX8ZqO/svc53Cyb5Xsc56VukrUieAxdbCzkpOnNbE1kp05pShK3Zk7PvTOeiey+mTFLTE+/DYdv/AN4vgkeNwievDLeMvtzy82HSHUQrhRRskMJDqIUYk2obC2SVUx7EUGyOgrDOJF0uYeRqYZmHTlY1MNWMVqNSor/Ailg0KFUs0jm2pSwIDwpqJEkKQNMf7MSLBms6AXUk2umU6ACgadSiVJxCaRbJLAFREiqkudVoLVpSjtz3O1l4nIORJS0tOKspO3C+X6ewJa09K0Yxk0ndfC/YUetM9175vz4iVUumdtNVglIoQqliEyLtYbInIeUyNlDSZDInkiCZU2hqEdJhVWQRkEXoSLE5fAo06hMpk0HqSKddk9SRWkyizhImpQKODiaEAzRTqFOpIlrSKs2JERTmQyqDV5EKNMnchoofZFslXZ7CuOxWBCHGYzCpIsaQ0WDOoA6fPPcO2S0LNb7W8/1IJgNYBksI9optdgEaCAuSAJkqQCJYgBViQtE8yvNAA0KMRh4sInJ6SIIFiAZSJAVGSpFapMCJyBEg7AFSLDZChOQXQKiGgEOogTUkHXQNNhVWEUKjsbmr2ltloxKrCoSIsun0Dqvpm8VmdvhK+R4PqZphqye49e0PjbreeTPHVe3HPcdMpASK0cQSuqcG9sLT248j1kw+bPYtJUrpnA6U0E29x0xunnyea4TQLlJeJ7bqBoCyjkUtX9UVdZcD1LQeiVFLI1lmzpr6PoWRdBhENIwgGPcKSBsAzkJMKwtkBrCGsOB8KRCcgEPc+g4nQ6YHPPaFtAEOmCkOAVxriuJgIcQmArCGQrgOhrCGuAzGkONcBpAhMCQEWJeRi1t5sYlmRVXxDUaGCRoplDBF1MyE2JA3FcgdCQLkM5BB3HuRbQ+2BKmOiNSCUgDTHuRRkGFTWHTIoyCbAO44ArkijTH2gNodMAkx0wFIcmgW0PcC440HuV8Sya5WxTNDNqrMt0dxUnvLdJfACaUT6B9HXGwxGA0ho/aUa1WnKVLaeUlOm4NLjsytdLj35fPo+D0hKElKEnCad4yi3Fp9zVmc8ptZdOtj6LGPu70slwlCz37vWXwX06Toy9HPGUcbh6tWDhCnVhOUm4tLZal2PPdbK/uOUpdNekIqyxVT2tP4p7zN0r006Qmmniquas7NR+EVn4Wfyusr27d1/hi/6U2n44jStecGnCMadJNdrgnf3treeXxQq9Rybcm23m297EkenGaknpy83Yk/5jxY1ueefMKMTVaPz4E9KIFsiSO4xsSSBcA4g2I1DbA7Q+yMAkiajUIhRRGmpQqF6jIysNMvUpnOxqL8JFugzPhIvYaZlpaIpzGqSMrEYnMNbXKtYrTqEDrkc6pWNrKkA6pV60GVYIlqViCVQjnMG5qM7SbQ20C0PGIFinWLEKxSjEmigL0aocSrAkhUAnkQVESbYMwKVQgRYqkAZ2sUiWKIqbJbhdo6pEkFWkKlAG2hhYZFiVQCm7RXEruqGRVZkcK+y7/HwIqlUhnK5qJaatUu8wIjMKJWRDXCjEeVMKAJgAuXPPPkGh3BbI2wXIINyAmwNsOEQpoMlsMokkQJqVIinTJXXIZTABhIVxIAkTkdgmBFKZHNByI2wyjaHiDJiiwi1TZYpMrUmWYgT1GU6jJ6kynNgOokqRDTZNEqiQLCvzzz5AsingiTYIoomigo40wJkrRDMMK80PFDyFJgaWicW01Y9e1P0xdHimHeZ3uqWkLI5Z47bxuns2FqF5I5zQePukdJhWeOx3lE8DcqYnQpv4ZBVaZGVDRGjbHUYWkZuChZmxRQZqSKCuJIZM0HaGaDghOIEaH2R7BWACw444HwVGQQCYSZ9BxEmEgLjoA0x0wEwrgOhxkxwHExkxJgOhhNjAPcYTY1gHBHBAfnwG2RmOjIqYvcZDlma+MMeoyjTwT555+ehYzsEzQuRoEhmxNgSZFJyGlMGm7v3WPdtQugalVoxrYio6cZK62bJ23Xe0rLyZjLOY+TVrwfrRKqfUD9HXR73Yl+G3Sd/cvcQv0asF2Yh+1037018GZ+XFrhk+aHWHUz6Vl6MOF7MTl3qNvj8x4+ixh3uxOXFRT+E/mPmwPjyfNcZBqZ9HVfRMpvKOKz7L0013XSn8PI8T6QdQKuBrujVs8tqFSN9mpHddXSaaeTTWWWbuanUxy8UuNnlgRkSplaMiVSNspEx2AmPcAkx1IBMdsArj7QCYgD2grkakSpARtkGIZPIqYmQFCTz9pdpIotlyg8gJgJINsCUgIKsDOxEDVmyLDYJTdrpPvZYMV0QWjuq2jIpKM4pOz2Z3un5M47F0LNrtTs+edxuVNaQKIbphU0HGHYWhQiGoDU3ZhzRlTJicQmx5BrQLDbJIJoKjsMx5DNAWcOXYSM+nMsKqZo0acy5RqGRGsSwxhnS7atetkYmIrZh19IGdXxBZC1YdQdVCkq4Sql0i3tCciuqpLSZAaiSRiSwiGohYCFImWGJKMC2qZNrpnOiDsl6pTK8qZWQwYpAuQKYRYhIPaK20MqgTYazIrEzRGohEkYhsGIQVHUDpIGqxU5AWJ1civKqDWqg1oNWurXV13q+/252NRmhcyxWrR2YpKzz2nvu+5ZWRTsGkVk4kIlpwChUietUTtbhmDKJDJANJgXHkwGFJgSiHYOEAoIQ55595Ioh/oFJARoSFJgOYBOQ6I3IdTCCsJxG2uee4IJtJGQaZCmEpBTVEQtE0iBoMhkAG2DJBNjpzLEa5TiyWBrSpdsikyRIjaIHjImVTnnnxIUOiCXaDiiC5LBhdpoxJtgiTJEwbJyBkxSfP8AIdICCcR1EnqRI7BB00bmh6zRjUma2DZKPRdWtKbj0fRle/geIaNxjiz1LVXTF0eXPF1xr0LCU1YklErYKrdFhnFUuGialBGdQRp0YkEyQLDSE4mgykPcVg0AFh7CCAAYkuEQfALYUQUKKPouI0wkCglHnnsAJMfaGQgEh0xIQBCuMhIBxtocFAOMOJgIYVhIBhJDsFskFfFGHW3+03ayOfxMs/eBr4KJoWKOAlkX0yNRFMgqssSZXqxLFLAy9aPifSnSvN/sai1dXjQvZ2vdpPzvzmfNWC+9H/EvifSHTHU/7Fotbl1Cfb+JL4s83W84fu3j4rF1G9HKni8PTrwxU7TWcVnszX3otX3xf1sbMvRF7VipP/Za96mvgcN6OnTCsJUlQrO2Gqu+3J5U6lklLhsvJSfZa+Z67pr0mcPRxMKVtuk7KrVg01Tb3SW/aXFLszOGfyS6nh0x467+XOP0T5peri5p5djt7p5eTAXoo1lmsZJPtaUv+ZP2Hoeu3T1hcNTjUjONVySlCFOSk5J24PL+ZqaP6ZsLWwksTCaSjFudNtKpCXYnF239j7TlMuo3xxfOeldWcRo/GYeLxcqqlNOynP1bSX3k29/d4Hdel/T9XCSyvepG/wDign5er8DxarrTLFY7rm361RbKbeUdpKK7j2f0upf0WD/xSfj/AEa9+bPVrWWG/P8A4c/pk+c6ciaMipSZZp89h6XFLcdAXCAJMTYKYtoAmNtEbmJyAPbNHCR2vZvMh1B1iGtwFuvLP3GdiKxaw9GUtybfga2E6O6889myfa9w2unJykWqEzucH0SP8c0u5Xf0R1OjujejFZ3k+Jm5xZjXkTXj5Dqk+B7xhNUKMfwR9qTfmzRjoel+WP8ACvpz5GOcb4PnP7LLgyDEaGqb1GWWeSe7y3H0lOhQj+CL/wBlfQoaX1n6qO1TSjbLKKtnlmtzT8CzP7JxfNkpT7bleTfbke/4LSVKsryo0rt3bVOMW3ftcbB4vVTB1M5UFF9uxKS7n6t9nPty9+Z056Tjt8+U6+ZYVdXT+Z7jh+hvA1LrratJtNx/o4Shfg8758s4nTXQRiIt9XONaO9WezJ/7MnbPuka5SpxrkNJ4iMndK10vMGFtl3+8rW7+x+RBpnV+vQdq0JQfZtKyfh2FCOI7zWmV/aDjIrU2WIQZGtHuC5DuAzphUcpBQQ6pElOJNhkhOZp6B0LOvVp0YW6ypLYgpNRTk1krvK7tZLtbSWbRk1lbj7cmvFdj+BQ1SvY9D6D+iSppSpNKap0aKTr1Hm47X3Uk8rtJvPcjzHEyPo30WKuxojTdRXulWz3O9PATlk9/wCJNd5jqXWNsXHvXU1vRV0fdJaQinbNOdK/lt3XzLtP0T9HS+7jJ3Su9mVJpcW73yz8e/cfCeHbazbcms23e74tu97s+mfQr01SdbG0MRUi1iMPQpUaVSX+canVVSNNSecnGUPu5+quCPP1Mc8Zby8GOUt1p6hD0SdHbvtk3Ls9aj29yQpehrg874yomn+WmvNN+DMzo46D40tM4+VWk/sFCnQq4N1JylHbmoyu23aWxs1E77st5456Q2tyxGksROjV6zDuNFQdKb6puNKKlZJ7O1tXTdjjjc8rqZff/wAOtkk7x7pL0NcM16mMlfsbhBryUk/I8I6UOjWpo7EdTUakpR6ylUins1IbVrq+5p5Ndl1xRxurGnq0K1Fxq1VbEUXZVJ7usimrXt926tbM+h/Tbn/T4DvpY73VMPl77necscpLdys6llsnh4LSmWoQM2hI0KczqytUyxFlaEieIDVCtURamynVYSoJgWDkwDTFK4Nx5MikwhbRJGRFceKAsKQzqEMpkTqFE0pi2iNDJ88/Auk2dzDlUbtd7lZX7FwI7iKg1EJIFIO4C2A4TGYwaHJkUpDyZGwFIGwaiOogNGBLFA2HTAe49wXIbaAViFoNsBsJQsTI2xJhlNFkjIYsK4XSawYEIksaYUFyGSLaohqgDSh1QuoNONInp0Sba4sR4UkjSNtYVBxwaLtOLDsC4m7+zkQ1dFjZxYyQ7ZbqYECODLtnSBIkgSfZweoZASZKmRqnYd1gC2h9sqSqDKYRblVGjIrRDgBbpGthZGRh0aFKYGtSrHTasaVakkcZTmaGjsW00znlFfQ+hsfdLibMJHm+p2nbpcT0PDV7nkvZuVp4VGlTZl0ZF+lMw0sqQSZFElpsQGohOAUZlXGaTUTQm3GXjdOxjc57TWtyj2nmWsWvt755Fk2m3q/74LljHz3+/wD3v3fUY1wqbeajLnniPcWye1zEh7c889wviKIBDxBUh0wHuIVufYJMB0xIFMdSAewrjCuA4pDXGAIYSYyAcYTEwIK6OfxW8365h4tZ8889gVf0fu5558tNGbo+WRox555+BK0UiKoyaxHNCCLC/eXivifSXSZnoKn3qj75xb8j5tob14n0hr5TvoGm+6FvZUXyTRx6k74/u3j9Xy5TiO2GkPOJ2YiBw8iaNRq6TaurNJ7+58V3MWwFslVq6oZVof44/E+i/S0qXw+D47S91Jp++3vPnbVF/wBPT/xx9zVz6G9Lan/1bBv/ALzZ86EmvZkeXqfrw/q6Y+MnzVSZYhIr0UTRZ3ck9xXA2wZSAkchnIhdUjlWAnnUHpTz4kmi9GSqNJL2noGr2pkY2c83wFykWRyGH1elO2yrp9ltx2WhujlZOb8Yo6ujKMVkkvAp1tKdiOVytb0vYfCUaStGKv7/AIfoSrSTe7JGQmu3MDEaZUEc23QU0iHFachBZs8+010g5NQ38ThMdpypNtuT558jUxZuT2HFdI1NXz58TGxnSl+WN/aeVOuA5HSYxOVdriekabe63cV8ZrlOas9xy8EWII3qJ3b2itZ3B3Oiw+v0e2LODhSLuFwbfYLIR6Xo/WynL8VvE6CjpXg/eePfYFuLuEhUh92TtwefxyOem3s6x6qR2asY1IflqRUreF9xgY/oVwOIfq/9WqO/rRu6e71bx7ms7WdrnOaI1vnHKolbijttD6YjPc/qYu54PLxjWDooxOHbbi500/v005R7m7Zq+9XXyRh0Y9jPprCaQa7ct1nmrd6M7WToyw+ITlG1Ks89uK9Vv+9Hd33WZfk9rMXz/SwiflcD7MdFrLqHiMLnUg9i9lVjnB8M1uv2J2MSmb23IjWCuSx0cXqW4tYeRNtcWHU0c+y6ad8sndZpprNNPt4+6jidFy9vF8Tr3QJKWGRnnpfj280xdFrJn0h6OlO2gdMvi8b4ZaNh/wAx49rXojK9s7ew9e6AW3q9plW7dIJd/wD2bSv7L3XsNZ5bw/rP9ufDVfMOomLoQxOHliYynhVVg8RCN9p0/wAVrPsybW9pPe2j7ejp7V6o8CqUITqSklg3TjJ1oSVVL+kkrSjKM/z958FQp/A+jvQux+Go1sdWxMqUeqw1GrSlU2dqLjUqdY6d89q2xuz3cB18Ny316cOndXT7I1lqU1Srdbd0lSk6yhdydPZe1lH1n6t8lnwPA9IaT1angU1sqj1lTq9hTWJVbYvZ3Tnb7rW2tn7t8jmej70jaT01jpVq0no/FRp0sNtRfVxlHq1Fyja8E9qopNrNW7jyj0gNH0IaUxUMOqUaMXR2Y0fuJuhTlJZZX23K9uJ5ul0rL3/fs75Zyzt+zmtTqSliKKbsuupNt5ZKpF27c3a1j6D9N6r/ANYwC4Ucbl41cOr/APD8T500FD+mo9+IoLzrQVvkfQvpw2WIwPF0MX5KtS4ePu8vTl+vD+rGP6a8DoVC3CuZVGqW6UjrYxtr0ahZVQo0mWaZjSp3Iq1mSuRBUZYiJyGbGYEpFYJsCUhnIidQuge2FtkSmKUypTzmAmOOkRlLF5AtiYzKp4yCTARcweD2mldRTveUn6qSV3352srdrQRBAmoojla+8npSVnxysVsLY8ERSYVOAEtWiO8OgdoaUgAaEh2hrAK41wgZIBmAwmwJAK5HJhtEcggGKIcaLZdw+jueecgaVqNJlmOGL0MDYJ0Sba0rU6RLFEjQNyKTAY8kDtAJSJaNUgTE5kVpxkSKRRhUJVMVYvwqBxmZyqEkaxlV6Vn2EMqCI41glUAP7GhpYMZ1WOq42aVsRhDKr4ax0UatyvjMGalYsc5KICRbxUMyvGJtz0KDJaMSPZJ6KCJ6UrB9aVnIB1ANSjXL9GZi4eZqUZGaOv1S0psyPYdB469j56pYvZeR6jqbppux588Wo9ZoTNLCmHomtc6HDwOGm1mnEn2BUUkY+ndPxinnmJA+mNMKHaeZax69pXzMrXLXdK+fgeMaZ1icn57jvjhtLXU6x68OWSZxWM0g5dpnzxF+e8lhE7zHTGzZ82HC6rnliNaNoLisMJIqHYSGFEBx0NcSYBpiuMNcAmJMZCAcTEmNcB0JMdMVgGExxgGbEmJsQEOIMHGSzN6qc/jJO4WNHR5qRMzALd7DTiSqKIE0GmNMQ2rI9+6Nuk3B1cG8Bjnsw3Rm7qNrpq8knsyi7Wby3HgjgRygYzx5dmpdPpul0U6DkrxxMX4YiPb4q/v7R49DOhZbsSl3faKfw3+7yPmF0xpR5ucvjv8ANWuc9PqafQLoh7sUrf8AjU3z5gr0fNFP/Sv/AHtJfNnyzO/Fg2fH4Gvjy/mpynp9W4HoC0bTnGaxV9lp2dSnZ+NuP8rHD+k7rzSrujQpSU40m5ScZKUbuOwknG6uknfPLdxPCku8dRE6ffdu9Lc+2pBwiSIjQ8pHXTmO4DYEqo0W3uLoDKZuav6vOo81k+0uau6oOfrSyjzuPQcJCNNJRWSRjLJZEGiNARpLIvV8bYqYjSJkYrSFzjpva7X0g3uHhWSMr7SQSxRdG2rU0lvOW01iJyyW4vTxZRraTRZFYNXRE32WIP2NI1K+mUinU1gibjKGjomV91yxV0W0V6muMY5JZ+JmV9cszUl9I150HwIHVsZi1y8Av3uXd4W/Q1xq9mjHGmxorTuzvXu+pyy1lg96XsRaw2lqT7fMcV26LH6aUpXXPPAX7UMWWHi7WfvWZLPBtZozo22aelH2mporS+y7rJ+45KNRk9KuZsV61ojW6+UsuD7Ds9H49PtytlnkeC4LHu51ugNPyj915dsWcssW49r0dpHJwmlOlJbM6cs4yi8mmmnxPO9fuhNbMq+DvKMfWlh2vXiu3Yzztwzdr27EdFoPTEam7et67TpMLj5Rzg7S93g12o57salfKaxbz7O55Z/Iv6MW1Ky8X3JZt+SZ9Ca+dFVLSMOtoqFHHxj60V6sKzj2Tt2vsqWb3J3R8/Rw9TCurCrBwruE6OxLKUdvKUu+8U1FrJ3umzt5jpKsy0hdu26+S7ucy5hZXOaw2INPB4mz4HOx1jS0/h/V9nPPcel9A7/7C0wlvU8db/a0fTS9t2/ceS6Y0jaLd+xl/oH6eo6OnXpV6bq4HEu9WMVeUJ7PVuai8pxlTezKO/JF4243X7ueeUjwqi8j6K6A+gKGO0ZpCvOyrVP6HBzbTVKWHSrOT/L1sn1cs/ux7zv5ac1Rmtp04wd16uxXg7/4Une3bsr2cOs1c6U9XaNOdGhWVGjUT6yCdenF3jsu91k3HK6s/IdTrZWaxxu/2eXDCb72Pk/0f9RVjdJYWhNLY2pV6qfbChF1HDv2pJRt2x2jd9IXUeOC0lWp01/RVNnEU1v2I1rvq/8AYkpJf3XE+g9Az1Zw9SNajWhTqwfqVI166lF2s8+31Xs59hPp7AauYyq61bFxnVkknJ4yUG9lWW61rLuSzM/LeW9XWtf1bmE1rcfH2hqr6/D2Wf2nDWy3vrqdsj6B9N6V8ZhF2RwlV93r12nl/wCyXLO50dq/qxSqQqxr09ulKNSKeInOLnBqUW4u+3ZpNLj7Dw70g+kaGkcd1tK/UU6UaFJyVnNKc5ynZ7tqU3ZPOyWR0xvLKXXjfn7pZqX7vNacS1TiRQiTQR6XNbpTLkJlSmTwkYE22DJA7QtoiIpxIpSJpyIKkTSVFORC5hTZEzSCY6YNwrERImGpESDRQe2DJisM4kQ6ZKq5CEmBIiSJFEkS58CqOKJVECmg5MAWhpIdTEwprAthOINwEkM4jsW0AEgGiRsawANDxp3JFEtYekAeGwli3SQosKJNukiSUSGSJXIgqEVFOQCY8ZFjFYdJJrtIyrMawymElcGgJAbJYqUPgQIGksJBxqESY9wJlMdTINoO5lpPthKoV0wlICy6gtshjULr0f6u03HP8Kktr2oCOnUNCjK6sZOHouTsubGxgaaWbavwAw9J4ezM2UDqNK0bq5ztdHSVzyiNRDTAgxqkyuZSmM0FQw8pXsm0ldvsS733kLYFmhLM2aJjUTXwrAtNnTao6W2Ze7nntOXuSYfEWd0Ys2r6J1d0srLgdXDTqSPn7Q2tbS389pqYrXvLeee4Nbeq6X1vSW+x5rrZrvfczz7TOt8n2+84/HaWlI3j0y5NTTunnNswpvzI9ojmeiRjZdZmX4SyM6KL1OVyg9ocaz5uMQQJj3BHQUQgbiQQTC2gUIArj3BHAcdA3EmASExkIAhIawkA9xXGsJgMLn3ibGaAjxJgYxG7XMXGILF7R9TJeHPwNOBkaMZrQYBiaGE2AANg2NJAC0DsBicQI1AWwSWEwu0TgAyaSInEALgyY0mRuRAzzOv1V1Z2vWl91Lw7jO1c0NttNrK/md5ShZWW7uM2tSLNNKKsiCtiiHF4nZRhVcU27nPTTSxOMKjqladQrVsYkXSLNXE2KOI0ql2mfXxrk7IPE6DlTjt1Vsx3572jWlVq+kZSeRQxmLUPvyS7u0zNLa2pZU8v7xy2Jxjk7t3d+07Tp7ZtbmkNZE77K9rfyMWvpOT7fIqzYJ2mMjOzzm2IUUSKJapoMligUiRIgSExxAS08fJbm/M19Ha3Sj97Nd1rmDIAzZKO8w2sMJ+PBmnRtvXNzzGMjX0bpyUe9cOdxyuHpuV6DTnZmhh8W07o5jBaYUvHnnlm1hqtzjY6O00NrA0047+HYz0zQumlJbV8+1dv6nhtJ7NmdXoHTmy738fA5WNPacBi084Sams1YLXTUilpajsvZpaRoxbpVNyqR/LLjF9v5W753OJ0fpZRtUh7VfzR1TxDnFVKUtmrBqUXwfB9z3fzMeGp2fLmltF1KFSdGtFwq05OE4S3prtXGLWaksmhvtuR9W9IOoNPTWFdSlGMNKUI2cbJOqkv83N72n+CXY33nx3WhKLlCacZxk4zjJWlGUW04tPc08n4HWTZci0hpPaur5cDEq4R8MjapaOTzZpTwV47PZe52nZ58rtyVSDdr9isvBEbwp1cNCokWhEXbnpyVPDlvDYU6NaERKtEobVhRweZapUTWWASF9nRNrtnTpDxomksOgXAG1aCFctOIypohtV2h7lxRSEkgijchmzScYjLCJgZEosaFM26ej1/IKpgki7GTSwxNHCl6yHlJF2M2dEGKLNdljR0abbVTaUdmTTglJuVnsxzaSTeTfZwY2M241y4qC4AVcIEVoxCiiaOGLeHwg2iooEqgaUcCEsANtM4Zml9gB+wDYzFEO5f/Z5JT0ZcbGWwWjVlo9EP2AbGc0KxpLAC+xDaM1oWyaDwiGWEKqgmWKdQkq4bIr2sZVbVUlVQz1WJI4hEbi+qoEyCNYNVQqN8949WvdJcAJyI5SKFtk+HmVXIaNQg1ZMqyIlibj9akTQe46ZC64DriMp3IfbKqq+XEJTLpdrLqDqoVlMOnUJo2miySMyGVQtUMZG1miKGNQs4apmUpyJqUwrpqbUo27bHNaSw2/xNrRlUr6VoWTLKzXMLIaUgqqzI7HRxp3O3HzyHggSahEIsUIGhSqWKcahYgwysxqj7ZXTDUwu1qFUatUI6bCqxJpVDFMzZIv4hFGZqQAC0EgWyiVYbNLajm992kvF/M0I4JXjCLTbe++Xnut3mTCRJKYRt/u3L8y/iGMHb8PMcaUSFYjTE5GV0kTHuAPcGhpjgXHuDQxJgpjoGjjpA3Eggkwrg3HuA4rjJiTAITGYyCnuMFcZoIgxG4xcZE2q5jYgKn0aa0UZejWakSA7iGQ+0VDAtBDMmlNcQmK40EhXHsIgBohmyabIJs0qGTLeh9HOcv7q3lWnRcmkju9B6L2Y95i0a2Aw6irJFhxDwlHIjx+JSRhrbJ0lUMqUwMZXbdyhiMXYsipcTjVxMitWbze4tYDA7b9Z2Xa+BzGsumEpOMHeO6+WZ1xm0WsXrKoZxzkvLnwMbWXXutX2VOV1FWSt2c8bmDiKtyBnomEiWinUuOgbDo2yJA3HaGsAVMnsQQJUyVo6JEAiQyEK4hXAGQDQeyEoGbWtIkg4ILYCSIuktDFNHT6K1hva+T7Gcnsg7ueefaZs21HreAx6e8mp4pwduw8/1e07ZpS3dj+p2sMWpqz7Nz+Rwyx03t1OB0y4r1X7Ow6vVHXW00nlfJrsa78zyzDV2u016VRXTT7M/HtOdibe+4PTMqFSNem7We/emnZuMuKfmjnvSD6LFjaX7UwcV1yiljqEd72F/nUlvnDJSbzlBRf4TC1M1uS/oaucJr+jk+x/ll8nx8T0vUjWCWFq2l62Gn6lVPNbDvaVuMbu67U2Y3xPL4/wVY1KdY6v0iejVaPxt6S/6niovEYZrOMbv+kpJ8ItqUV+ScV2Hn9LHHfzHGujhj47Di43ntJqd/wANmnFq2edmnfKz33KqqmfDFhrGl0i+pi2inHFok+1AaFPR8nHbt6iko37LtNpd+5laqx3pNtWv6v5VuvxtxIOsJoNdjOLJOsQXWooh6pi6pk6rIbrQIOrYrEzkC5ICPYFHIPrUNGSAmhXGnUb+XkRSgFGouefcBJGlfxFQwWd32blx8TTq4SMZQeexKz4X/NZrLiXNYKdNTi6e0qUoqUXUVpNXab71fczNqsbE0M93kVFTNDG4lN+q3a2/cyo5GohqVMkrLn6jQmTQVgIHSJKUierZK5Wi7sC2q4U8UUWiaVJ2v2eOYXYnimM8WyvcZhFh4uw0cayu0NYKn+2sJY0rpBxgESfaQXigZQG2ACWLQ/2zuInSGVAoatiSjXqM0VhwZYW5RjSrArFGo9GIT0OF2z6eKJo4ouR0KTw0KU5KH2gGWINb9jjPQIOTElXAliDoFqymTw1RCcnJyxDGjWZ32E1ET7Pn5Grh+jVMjNyeXbbD2z1yj0Sp/wAjRodC8X2+7m5Wb1I8g0xrPOpZOMYpJRUYRUUkrLJLJX397bMpYtn0Phegmlvk/Jfr2HOawdFNKCbTfkvYXROpHjaxZcwuMLumNX1HcY8KLRmx2laincOIOj8FKV9lXUVtSd0klxd2vLMOxlpJFk9NgYXDyl92Ldt77F4t5L2sOVOzt8M0Zaa+iayvnuNXSNHaRzVCodLg53jYg4zE4ezzKrjmbmlcLmzE2TrHClCJPAjS3BwplZWFEsQiQRZNAMjTHQrDxQE9KRYayK9OJZiBkY1FCbNjGUjJqwZY0gfPPgDtD1IgSKCgx9ojuEmUHYQGz3iAdCuBtBJGGjthJgXCQUQQCEBImK4ykJsBXCBQQZp7joC46AJMVwbjtgh7iGEmGjpicwRJhEeI3GNWNmvuMfFIIt6PNJMzdHmjEAkJjJCuA7Y1xMZsB0Ntc/UYTAfaGlIZyAkyB6kiGTHkx8PSvJIDf0Bo/tOso8DL0bSsi/1ljmrQeMUUc5pPHXZPjcUYVStd5hQYitZFDCYd1JJLjZLixq89p27O0WP03ClD1X/SLdbsfG/ZY0rL1s0m6d6adnulbeu7L6nEVqhNpHFuTcnm27t95QnI9WOOmbQykCJjXOjIrjpgWHTAO4mMg0GoGJNFkeyNtWCrKDRFTqh7RmgriGuPYgeKJAEEzLZOI6QkOokWFYTiGkO0FQOBvavaXa9V+wyGiCtWsZs2r0R13vLmHxRzmr2lNuNn95bzcoI4WI3sNidpNdqzR6lqPrJGpT6qo/6SLsm98k91+NjxjD1bM3NH4lqSknZpq3sOdx2sun0VrFqP+1NHVsDOyxWGaq4KpJfclZug79kZ2nh6lvwtPJpNfD1OpKLlCacJwlKnUhLKUJwbjOL7LxkmnbK6Z9q6ga2bezWhL+lpWVeP9pQe/uunZp8Txv0yuj37Pi6eOpL/AKvjl69t0MZTV5f7+laorWzjUed8r0r341Opj9Y8bhiWTRqGbRqlxs9GnHa0qwarFBTFGsNDUpTLUWZOHx9i7LSK7CaRZuA5lSWOGjjO4mhYnUIXXYSrCcCobrxusHjTGkgGdUenXZC5iYaX1V7ROpd3fuK8ZEsahBsaN0q1lZSVmop3ezftjwJ60ZSSlJtxSUE272tuiu5eRjU8Q07xey+7sDo4iTTjdtN3aM6Vfo6PlJNrdm+Cst5UjTI8TpN/dV7fy3EkG0vECfDVWskldtWed/BeJNXpSj95W8TPdWzT7b3uuz+RJicdKTbk23xbbfvLoPPFEbqleUhyxNrUZkykVKcyxEVUjGTBuPcyHEKESZUAASJLDywlknl4DMoFodMaoue0hcr5EFlMTkR1aDW8hjIC26o0ahU2hOQFzaJ4VyjSzLUsLYosxroTxSKMokMmNmmm8cP9vMraJENmmpDSyJoawxRkKiVqkRs06/Ca8KPZc2cL0lw4Hl46kE4vZMP0rU1vTNTDdMVFdjPDISDTK53CPoGHTPQ7UzmNYek2hO9k/Lt553nkrZG5DacF3TulFNuydt5gTZcmVpRzFd8YenL4WJ6UirYlpoy00aWLaWym9m92uxvdfx/XixlIrxkHFhqLVJnR6Kq5HMUpGvgK1rGVHpmlzz5nNuOZ1mk80cvWWZuOeUKnEvx0o07pRVlZeqmllbJPt7yjBjSZpyWXVuCpkMWPJhlehIW0V6cwtoC3CoTRrGeqo7rhdrtVpkSoorOsTUKoQVTRnPPPvKGIwduefM6TDzyKekaQactVhZiRJiY5kLZoLaHFbm4ihIdAtBXM6aFEVxrDoinsONYcB7jgiuASY9wLjsIOw4I7YQ4mCK4U6Y7YNxJhTvnnIZDDgBiGZOO+Zp12ZmMkGas6PNCJnYB5F6LAkuOwFIK4Q4zBuJsKdibBuMwHkyLaHkyOQQ05mpoTC3lf2Iyqe86XR1G1uczNVvQyFVrFbriCviDm0jxVbeZOJq8N5ZxNQWhtGupNWVyqLAYJRW1PdZuz8DzbTOLUpyayV3ZdmVzv+kXEuFoRvZfe9vZnY8wxU/id+nPqmSnVZDIOoyNnoYMxXHQLKHYosZiiUSRJYkcQ0wsOkKUeeecx4MIjSKCJoyBsKEjNE48QYyHIsHYd88+wFjXMNJoBKIKYcQ0NRGkw0UsVXAKpiCrLMFImjTDKfQ2LcJJr2noNDGWaf4ZfG3zPNW+06zV7G7cGu2NjGUWOqnxRYwuPM3DYm/iWqVPM4DtNTNYJUqm0n2NSXZKMlZxfFW7D3rFaqrS+iMTg9+IpUvtGGf4lUoNzpWzvaUG6btvSae8+ZtF1rPPtPf8A0cNd+pxMW3kotP8AvQ3NeKUpW7zGXbV9NS9tPifB1M2nk02mnvTTs0+9NNew14bj0L0r+jlaP0ziIQjahibY7DtL1dmu5OpFdj2KymvBx4nnVGWR65d93DQZsjJZIjaNIRJEjY8CaRMphdYRhEE8Z/Eu0ZmdFk0JmVX2V6ocQaiIIGx4MZoFhYs05c8S5gcLtc582VzOps3NBaWjT2r3vKLUbJb+D4LvJQsU6aaVna2b3XfbZ8L8UWtXtLOntNKLbjKGaTaUlm1fcyjpOk4OO0r3SyT3d3j4kdeaTsn2K/j2pX7CG09fYbvLLdu+aJMRUS7brdf9DNqO5f1frUo1P6ZSdPZd9j717eq1fLfa/c/MbUMVRcXnvtey79wfWWRDi6923xd+/wBpHc0JpTBUiWhJeIFSQNJKLLUWVaZYQINSDTI0PcwqWDLLaytv7SnESmBbuWJNduZTpzJpTyKJ8RQTRnyVi9h8ZkZ+NxGfcUPOrftIyFVx51yA3IHrCG4o0yDU0fDMv1JFTBZLyLDkBBUIFAtOAEYBdKmIjYbDyL86AMMMFhORDUoljqB1AjWmVOmBGBoVaJGqRBDCIViVxQyRe6I2iKZYsNKBdoqumQVKZp06RJLAJhWJBE6RZqYKxA4Bog4SAQSQFygjQwyMyjkX6EjNVrV4XXsObxtCx09GV0YmlqZYzWXFC2SOciJzOjgstg9aVnMVzUgs9aOqxWjIJAXISuTOBUpk8WSsibJ6KIEizRZBo4aQse8gKIsWw05jFPMgkX69Ej+zmoKtnzccsbC5YiiumIYdEaPtCTB2gufmQOh0wEwoyIoriTGQrgFtDDIcBxNg3HAe4mxmxrgEpDgbQSYBX5+AyY20K/PlzkGdhqGVi1z3GnWkZdbeBZwUrF65l4Y0bgHGYVyJBXCi2hOQLGcgCbGbBbFtAoJSIpyHqSK1WsGWhoyN2dPQjkczoDO/idNReRmrEsmVKsyWcyCqZjSliqp1OqrdK027bt/BnK4VbVSMe82tdNLQ6rYjK01L3eznuYs32anbuzek/WWM3KK2Xue1Huvl8LnkteR0mk6Vo8XxOYrI9WE1NOeV3UDkDYKQEkdUNcZs3dUcJCVRKpZp5JPi9z7rGr0m6rU8POCpv70NppO+e5ZXdv0Jvusnbbj4oLZPQNQ+jaVeLqNPZS2u3Oy+HhY4fHtbcktyk0vYy7lXigQSBEi0EmO5AgNkVYjIVivBlmLAaNQnjIpVWRRx9mZo0toBTKEtIjQ0kjFXbZiT00ZtHSSFUxl9xGtrGJxHPKK9ONyOCuWnkE2fq0hbZVlUF1hYm0kpFzVzG7NRcHk+fEoOY1N53JYbd9i6jjLu3r2mxgsUmYc6m3ThLtSsy3hKhwsXbpKNK512pGk3TrQdstpbXh2+7wOS0TX3HoWO0DKkqVXJ06kdqnNcVbai+EovemcqR13ptaMWJ0TorScFtSo1HgK8lvjCacFKXc61CLX/AIq4nyjh0rKzvl5dx9v6P0Qsfq3pjBr1qlOH22jHtU6cVWhbu28Lbu2+8+FdA4xOC81c7dO9v2TLyuTIJImrSK7Z1YpXJKZEySBUSxQ41xXMiSmwkRKQcWBco1CSpIrwYZhTOJHJklwZBCo7y7HDveldX9+/uAwsb27TbouKg9les1a73J3zaXDxJVZVWTe/m/eBPDmlXxqbleKUXa2yt1luze52z7SteDzu73yXzf0CBoUkrXzAxs1fJWXDf7yRYfPfl2XIqzS3p9uXbfiUVKg8ET4mUd0c1a7urO/DwXErOoFXaE/5CZBTZPEKKESZEcYkmySqJDpDIOKIAuFcjq1CGNcC9GtYD7TcrxTZLDDMKV2BUpFuNNgVEQ0qRpBKiStCigugKAcIimhRAuUIluNMq4aZciFLqwIRFVYG0BZcgbFV1BfaCCacyPbIp1RosjQpzAbExrgNIFseUyJyKylijY0jqlUpwVSaSjKzitpXcXudt9mYCrMs1dJzkkpNtLJJttLuV8kiNHgXKLM2Ey1RqgaUsOmVq2iyejWLiqBXMV8DYh2Tqp4S5nYjRg2MymXKUiKVGwUGEamEqlbTEBUahJjIXRYVzVREcmWK9PeUmzrHGlJhxqAJCSNMjRLAiTJYATRJYMromgwJolmmyrAs0kZZXaMhV1cip1CZyIu1B0CKcDShQIMVgwjP2ub/AKDC+z85iCs0TYNx7lbEmJApj3AcSYhyKQ9wR0wHQ7YKfPPcEAVwWx0xmA8hhSfPPgMwHTHuCufiJMIJSHuCpCDJqnPNjKqmlWZmVgJKEjRUufPnnLOw/LLe3zzz8wmTFciTHTCxKwFIilVIZYgKtTkDKWV+woSxDKeIxhdIvVMajPliCs6pGpm9I7fVqPqX72b8TF1fj/Rx8X72bCmcLO9UFRkVaeQ1WoVMXXyEaT6C/wA43wT9hzmmLubb9nwOq1bw94zl3JIoaSwV6kVbPfn5moOY0pH1PbzzyuVxJ3esGFsnz2HEYpnoxZoMHQu0d9o3U2E4R73Y4nBneavafjlBvP5P9cyZ2/QjD1g1BlDOnn3dq58x9Xei/FYl+rFyksrN3l7DssTjkpb8jpdROkqOGrw2dlpzjfK+928eBwueWuzrxj3nULUCOH0diXOOzUp4ad01neMG3v7z4PwmqVecXNUp7Obb2X7ez9PA/VinQhisLUbslVhaVu1NZ+4+cOl7XPDYSKwuGhBzUXGUrJ23Lz8f5eXpday2a711yx3r1HxG6bWTyafPgHGlc+kdTuiChiYupNpt3bWXKueedJ/Q+8P6+HvUp57cFnKC4969/ln7MfxGOWXH6s5dHLHHl9K8ukRtjyYDZ6nn2NMNVCJMUpAPWqHqHQV6O9bSVRTknDDX+8vvT3fd4LPfveduJ5/qpoP7RXp0uyUknbh8vYfq/wBCuosMNhqahFJKEUst2XOZ5Ot1OM7ea3jjyrynV70F9GxilOjGcrZupKUnfzOd6QPQDwVSLeH28PUtlKlJyhlxpTumuNrPvR9duRPQieH5cp9XfhPT8aOlDooxWjK3VYiK2ZX6mvC/V1UuF7OM0vvQea7HJZnM0Kh+rPpQ9ClPH4CtDZXWbLqUZWzhWgm4SW571ZpPOLaPycwjadndNZNPemt68U7o93S6nOfeeXDLHjfs2aOQpSI4js7hMAJsFSKyKI4o1DR0doKpV+5Ft+DM0bOrdXapVFfOLTRo0HuMfV7Czp1J06kZRk6b9WWTyatv7HxXzLODrnGtOw0XVtmdxofT8nBU5SbgpOSi80m1ZtcL9rR51gqu46nRFQ52EfUvoozTxdSg7OliMDiKTT7ZbVKS/wCDrPefn9itE9RWq0P7HEV8P3vqas6fv2Ln2Z6Nun3S0hhZN+q63VPwrwlR8lKcW+5HzH0+aM6jTWlaaVktJYqaXBV5df8A/ql6X1avhy/WA3IYyCTPQ56S3JIshTJohkaYSBQcOwlB7A6Q8IEjiQPFEhGiVslDRkRuY9yORNCxRxTjdLtJ6OIy5zKaiHGIF2XEquJLSqkrw62XK+78PaQPHCScOsz2NpQvdX2rN7t9rLfYhcr5v6t+eZFSxDWX4b7u/iu8uYeMUrvMCt1d8vmPKFnbn3E87b+UQSYBKQ6YA9w1FvDyJ2VaDJkwo0xOtYFMoYyr2fMB6+K5Q2FKcYl/AUyK3sDKKTyz4h7aKUKtiaFUy0lIKsSaLI60gIHEjTJZIjkgGkxkNKQ22Bawssy/tGXhZZmgpBaOTIXIlVG5BMIGpIhuKbI5MCRyJabK6ZJCQaTSAGY6ZkAwAmwJACGkAkSKICRLSkRJEkUBbhWLVKsZyJKcwNmlXJ1K5lU6xbp1gqergEzOrYGxt4WrcHEwuZ2MKMDQoQuvYNPDFjCQLsclpWjZvxMo6fT2GOaq0zrK5WHQQMR7nRzEgyMJSAk2gozIVIOmBajM29E4iCi77+zn3GDBE1yJpbnPMlhUKCqhxqmUalOsTV5ZGVGsWoVwIBi1tocDkR7CQg6nkgkwb+8dIIJMdMFBWKFtCQNx0Akx7jbQyZAW0IG/PP0FcAmIHn3CCnE2JCTDIrjMZMTCBqmZilzzz4mpMysYywHhWWXIoYefOZJOuFWOtBniCvKWV8vPMpVMQ+JrQvTrleeIK3WjuZrQedcrzmGwJ888/W6RDJgIOSIYso9E0JV9SPx9hs1TA0TL1Kff8suWb02eatRUrRM3HyNSozI0tOyCu81AwC6py7HUirPz5Y2s+EX2x2ySUXbf+Hs99ixqbTf2OUkt1WHwk/kZeHl/TSk3m49pieat8OU1qWTPO8Q8z0TW38R55VievDw5iw8yKpiXGV0HSIsWao0q2n3KO/NAaGxz6yLb3NNc+BlU2S0p2Zniu32Zgenrq9GyhGX9LZQhZ5q+TZ816d0+rObe1UlK7b35keiNFylSck20s7FOOr+0m27Wu7Hmx6clrfKu41O6TpUqbsnazvlf2nTdFWucqs5dYrptvPsV9x4/T1iVODgopvjbcaepevPU3Vs328LkvS82Rq9S+Ntfpm1Spqcq1NKKlL1opZPv7tyPIkj1LXLWCVWm3ZqPeue48vsevp749/o50kgahJYUom006PofxWzjqF9zqJM/XnUGV6EbbrI/FynjHTnGccpRkpRfeufI/S70XfSCo4qhBbaVSKUKtNtbcJJZ5cHvT3NHi/EY26rp0730+knRLWGplTD42M1eLTJVjIxzckvafOr1xHrtUisPNvcot+Flc/EPTVVOvWa3PEVmvB1Zte4/Rb0zPSYp4bDTw1GaeKrQcIKLu6cZZSqS4JK9r73Y/N3BUj6H4fGyW36vN1buyemrAcS3CkevbJoU23ZeC72fRPo++j5DEVIyxa/o3nsvdbv4/DLtPA9AStUi+xNM+kNCdM8cPFXezZWuvA4dW5a1iY633eu9K/Q7oilFRUYRlbJ5K78efacZ0faGweErQnKzptpOTW1HPJNru8Dx3pO6SXjpQ2JO0bu93nxy3A4PWT+hjBvdl4WPJOnnrvXp54z6PsHp/wCi/CVtFYrGUoQVWhTp1qc4pXS62mppSXZOm5eLSPgPCUrSt3nteh+k6ssFiMI5N0q1OMLNt7KVSM7d6drWyseQdTab8eef5nox7Tu8uVa+E3nTYN2t7zlKMjo9v1fYKkendHuN2a9GV7bNWlJeKnFo8u9LylbWHSvYniacl37WGoP3nZ6oVr1Kdn+KK9u0re85v0z4r94NI/8AiUl/7iBen5rd8PI4MkI6ULhtHdzSQiaFPDkkoUnT2o+pVjKKlSk7xnB39enKyd1LfBt2TuhqVcjIlh+eecwoURdaEq5AWyDJDSqgSqgTU8LJ3aV0ldvgss/N24seUV7iBVdwpz557SB5RGjEC9glMglZJFkO2Pc0JYomlRtln4FWTazXZ2liWMcm3LN9r4t9pmgbAOqO4d4pVFa1s+JA8Ko7kQQDbAkchnIiuFBhV6BMivRZYAjrSM2q87mjWMvF5BdpMOaeHMKhWszoMBHi+faFiQSCqx5559wMYmWxdYROqFVkV5EFjrBrkUZhSZdBpyEgZyG2hoTUJZmjBmTSkaVOWQXaR1SGdQaZE2RSnIhuPUkQ9YUTxkFFleFQnpgWISGYEZkc6hBp4LDJxbe9bijWI1irLeR7YqbHcmRDFksGTRtNFBumRkkWVAXEpAsUZAWKcizRqFKLJ4yJppr4eqWHVMehXLSrGdK0Yq5LhaNjPpV8zSw1TMyrJ1honG4mOZ3+m6Nzh9I4Z3OmLGUUdke/P6DMa52cRpkiIoSJYlQtknpEcQ0wJdrnngBKqJyImgJ1UJFLnIhSCUiC3BhuRVjIJzJoT/aBFX2DDSaZiYmhooSZHQSY9+eeAKYgiRC2gEx7lU7FcES5553AEJMZoYgdIfaBQ4Q9xDDhCTFcETCDuORtj7XPPgAqssjFxVU0cTVMTESzKDo1rc88+6Kvic3z3HrHo+al0sTXvVV4QTk0+2y+p6Vpr0itGYerKisC5OnLYc1SoON1wcpbb8bGLnq6k26Sdt2vlT7Utyd+79BKs33887z6oo+lPop/ewD/ANxQfvbv7uBYq+lHoj/UpeyhR557x8mX8hxnt8oKp3MeFbw57PgfWNH0o9D9uDkv/u9GX/mt7r93YNL0lNCSsvsLaeTcsLRSXda9/ba3vHyZfyU4z2+Ur889gzkfWuv3R7gNIaPnisHRhQqwjOcHThGntOCbcKiitlppZPN3s07XPkPr8jp085n4+nlLNHqMh2gZ1SNzO2mHe6Irf0dPuv8AHn2m9Krkchq/UvT/AMMreZ1VDcefKd2oUpGRpx2RrTMbTv3TMV670b4dy0dXkvwdTJ+2o4fHL2nE4ynKNeN90or33T+HkzuugfFOWDxtH82FnNZdtKXWfJvzOSx+G/pKb7L2+HPkY/7qt8Od1ypWbv25nnmJWftPT+kDDWku/wCJ5lit7PVj4c1YhrxJUxM2KbQ0SepSIpI0PeuiXWPCdRVpV2oqVJpSyUoz3Ra4u6PLMfpezlFSTi293auew5LbY6qGJhJbfa7ayrR555+G5qzgYymnK1vcckqhLDGyW5tGuKaegdJWmaMYwo0s5b5tblwXbnfnM84sSOTGUSyaagVETiHYbZKqrVplnQWmq2HmqlCpKnUX4oOza4Pemu5phKkM6BmxNPatXPTW0jRjszhTrNfjvKk/altJ+ORHrN6aOk68XGCp0Lq23HaqTV+DnaKfjFruPFZUB44c5fHj6N32DHYipVnKpVnKpVm7zqTd5Sfe32cEsl2IGlTsXYUx50ToshogzBSsGSxpf0BG80jtcZoFTWzK6dsmee4Ss4yUlvTuevaO1qw9Whap6tWK3p8F7znkxXnNKk6MpJP2/AnwmBlLNvK9+USVdIU9pt55tXWeRj4zSLcsrqN8khpXrmjsLHqcvvK2fxOLjK8n4/Mt6tY2/b6qhJyzv2eBWgvicxapo6vRtrZ8DlsMtx0dOD9Xv+S+pipHS6jYduvDZWXWQSXH1lY5T0pMVt6a0lK9/wDrjiv9mlTi/Jpx5R6t0JYFSx+Ej2faqE5eEZqbXt2be08L6YNKqtpLH1FuljcRbv2Z7DftcW7lw8t5dpHJwqfAKUiG4Fatbu+XE7uaZzLUMbY966OfQyrYihCvisSsLGrBTp0Y01UrbEleDqSlKMIOUbS2LNpb3fJdFL0DYX9XSUrd+GhKXnGol/w+043r4T6tzp5X6PmX7cH9q7z6Zl6CEOzSM7d+Gpv4VEPL0E4dmkKj47WGha/dszT9l2Y/M9P3/tr4svT5kjjQo4g+nI+gxD/X53/+zRtfsy629vbc5XpE9EKvhaFSvSxEcQqUXOpS6p0aipR+/KN5zjJxXrOOTsnvyRZ18MrqVL0sp9HicKhKpmfSrFiM+eX7Dvpz0lkx4oBMQRNFk0WVqdQmTAsOQMJEMpWF1wDV3mDFgTkHFk0Jqch3IBMVyUFcamxkwoMgtU2T7RWoliIWnkUsVQuX4ojlIiM+lgiZJos0qZdVJNFagaVa9iy6Nt+Rm2t9RpYpviGtrFWRBcHbAciaNpozFKsQxkPcptLWmRRmA2DtA2s05ZmhTZmUN5p0IBopyIJSLmIp28TPnImhFVqEPWA1pkdwLUJFlMrUI5mnTwZFQORBWlY1KmjGjH0k7DQBYgeFUy0w6dUukbNKqSRmZNKqXaNQgvxkEpkEZhXIClMZSBmDtBVhVSWFYqKZJGQRcUyaNQqQkG5hpehWLuHxVjHjULdORnStR4lMo4nRye4gqVCbD40QrCxuijMqUrZHeSoqSOf0roqx0lc8sWBEljIUqYKZ0ckqY9wUK4BCiMJsCS4kR3HIJFIdSI0x0idwfWc8sRGMBUGGgPcjZIdPnngC3zyxAPcJMFMZgGJMETAJDNivzz7Rkwg2K4G0K4USYzBvz9RXAK4NxmwHPnIMpGwJ1iCc/kRTrFQFeqZtVk2IqlOUjUg+hfRaa26nfTl8H/I8P14/9ZxH/j1eH53l7N1u49h9GKpevJf93Lt7suJ4zrtL/rWI/wDHq9343ZezntOeP67/AEdL+mMhRG2Q1ITOzCNojpPMKUgFID7N6H5f9kYhf3Kv/wDjfPn3HxjCp8L5n2f0KR/7Hrdt4zut39VY+L5VOfmefo/qz/d0z8YgnIG49wJHtcnT6pVcpx42kvYdhhKuVjz/AFZxWzNd6a8ztcPVtkcM/KtGUjI0791+wvqoUNLfda8OeJzjTvfRm0+44uNN/dqKVKSe7YqxlTlx7JFjWrCSpycJK06ctlq1rSg7P4J+DPNNStNOhXhNZNNW+DXk+e36H6WtHKrOGJjksVShWt2baXVVkn3Tjf8A2r9pzz7Xftfo831s0Z1tJVFvtd+Ntx4/pPDZ378+efp7loPONSm963Lw57zyTWqnaclllzfxOmGX0ZrlpIUZBVYkNj0RldoYdS8eAWlNFbKv8DOdQsvHtx2X7DYyZIKMQpRHNKSQ6HSCsRohCQ4CYVOIyQYDyBaCTGuALiJIIVjAJEiI0HGQEc4ETLLAkRdo4oKIw8WNIdxCp0LiSLEF5ijptVaNqVafZ6tOPfd3lbyiPhjRqYbq6FOm8nK9SXG73X9nOZWoUO08/kq/oyleSOmxNKzhws+fkZWrlG75yOu01gUlT42T+ZikdT0OVNmu6rdlQw+IxLb/AO6p+r7dqUfefMGKxbnKU2/WnJzk+MpPak/a22fReBqdVo3SuJbsnQp4Kk3k3UxE47UY+EUm1vsfN1jfTnky+gpIp46ltLZy9b1c93rZewtoiqU7uKt+OCt/to7I+rPT30zUprR9GE5wjJ4qc1CTgn1Kw8IJ7LTaW27Ld7jP6M9L6tSweHWJxMo43qKf2tVMVjqMuvUf6VJwlCGxtX2dl2atvA/9IHL+l0b/AOHjl/xYQ8g9H3oHel61aDrdTRw9OnUrOMVOrNVJTjGFKLezf1JOU5JqKtk7nz8MJelLbrW7dfvXa5WZ6n28/s+iYfuoldYmm/8A7/jdrffd1t/d7DZwWpmr9ejPEQq1XhaWVWtHG45UIPL709pwVrq/DLdfPiNcfQModX/1TFVo10rpYvq50qnc3ThCUHwa2l3M7PpfwuG0Tq/VwUWkp4b7HSTsqmIxFazq1XFLNt7dWb3JLwPN/BbJhlbbf7R23lN3KTs5PXStq9DC13hsXP7VGhN4dUsdjXJ1Yp9WkpTUWnLemrWuWvQ00nUq4DSKqVJ1Nmu4rrakqjSlhLyS23JpSd21e28+PKcT649DiNtH6Ukv7aWf+HAN+7a+B6up0+GF7+vP7uWGdyyn9Xyxo2+zG+/Zjfdvt3ZeRpQZnaPl6sfBd3ZzwL1I+hXmWkg2RQJLGaHTJYSIkEpEF37Qti2yr3T2ru9uFr2t7CncGdQFMCRkkIFdFmlMAmCGwLEDqQcSMkiiUTUUTQfPDnntI6KCS55595GmhTxMbZrPngVJVU3dFeVTnn9AI1gaXalbdYUMRYozxIvtLCrtSqRSiQwnffvIalRgWJTHUyoqjDVQC05jbRXSJHywCb8iOUhbRDUkBcw0zYwdUwMJc0aVUNLeJqmdVrE82ynVpMCtWqEcKg9SixqdFgX8JX58zeo4o5ynRy7y7hZtE2roFXvkU9IYBNFdYov06t4k2Ocq4AhjgzTxcbFeLLBEqRMkSQiDKJAPWhRrE1TRD2NrajvyV/Wy35GQqwGzGQMkZ0cWT0cWBaUSSJX6/nnyDjVIq0pBKZWcg9oIn2y1Qq5GemWKNQNLNVkKkPOZGmBo4PGmhXipL2HPwqGxgaxIrnsdhbMz7m/piHkc9N8/E7RwsSXGBUh7mmTxHSBTFcgN+8TYNxbXPORkGmFFkUZEkWaEm0IVxAZanz3Ctzzz4kaQ8EYbFcJMAdAOO4g7XPPYIB2x78oGUhAFcVwXzzuFcB2xAyE2XSH2uf1HAuC5c88+8JsciGcx5VirUql0GnMrzq/Xnn4Cq1CrJmpF0eVUqykGRyZph7f6MmIf2mVvyPx3X7vp8vMNZdX6tTF4iNOE5z6+r6sIuTd5t5WXeem+jDJfaZJtJuDtxbs1b3lfTWE0pgsfWrUMLVa65yT6p1adSLikneKs13+q7nn3rKuv0jzyj0ZY97sHiPHqZ2fttb3gVOjjHf6pXv8A+DP4Nfoe7U/SG03u/Z9/DD1l8/grZeQ/9JfTX/1bLw+z120/DZVvB+8nyZep/dZHgtToyx+b+x4nLP8AzMm7d1k7vuV7mNjtA16WdWjWpLderRqUk78HOKv7D6ZXpN6ZW/RUnx/osTn35Qsvbc47pO6TNKaTpdTLR06UFKM5OFGq23F3X3oK3Y73b7BM8t95Nfulxeq9C2Jvoev3U6j86baz70fGdJfz4vtftZ9s9FOhKlHRNZVoSpydObcZpppbGzuefZ3/AAPitw+I6HnO/f8A5az8YwFgZRJlAGUD2uWg4epZpndYWtez7HFM4TZOh0TjckuFjnnNrHUqRBjl6odOplzygatTK3PPYcRzjlaXff8AkfR+qGsEcVo90m26+Gn11LvoztCvDvUbRq9rye5Xt854uhZnadFetroV4t5xzUl2OMk1KNu28W17fAmU3FldPVqunUT7H2+BxnSLol7XWr7st7+dvZbeena26HUZSgs4NKdGX5qcleDT8HsvvTOPxD6ynKnL7yzjfttvXj7ficcb3K8lqwK0ka2Mw1m123KGIoNeB7YzpTkgQ2gGjqAkJIVhBdEPcEdAEFYaI6QUrh3AYtougbHAUgkyB7CsIdmaHSCiMgkiBIaw48SAJxIblqUSCpSKJ6R0OpOh1UqradoR9d37bbo9vb8Dloo9D0HhupoKo/vzvs+G7PwXgc8vCh03pLaqS4J2Vu7IiozKNN9va+ef5F7CrM5o7HU/Drajtbm7vwLundK7c3b7qyS4JbjGwOI2V37vYW9GYdznGEfvTlGEfGTSv7N7M2d1jQ6ZNMOlozBYRO0sRXrY+slv2I2o4e9/8En57jxKKyO86bdOqrjJRg70cPThhaX+GkvWd+1ubd2sjhGjrjNRn6o0xUZevBcalNLxdSPP0FIDD4hKpTbyUa1Ft8EqkG35XND6X/8ASAf53Rv/AIWMfnLC3PlvD4+cHenOdOX5qc505fxQcX7z6j/9ILX/AKfR+TsqGLfBXlUoXXj6q9xF0eei9ofEYTD16ulJKtVw9OpWp08Rg4wpVZwTnTSnTdRdXK8bTbeWZ4+lnMOnjy+/+66Z43LO6+3+kfoRa5VKmJxdGvXqVJyw1OdCNWrOpfq6rVXZ23J3SnBvuOB9LbVjEUdJylWqVKmHrx67BupOUo04eqqtCCbtDqp2Vla8ZQbu2z27Qvot6IpVadbD6XrUq1KSnCdPG4PaUl409zV043tJXTTR1XSj0S6P0p1H2nS0nLDxnGm6dbAxb6zYc3JKnZt7EXf4I4zqYTqcp4s1e3h14W4cb5j4PhA+tfRAdtFaWb+6qtZ+Wjk5X9hg9Jvov6OwmCxGKo6RnVqUqbnToyqYacaslb1F1UYyu+42/RNhfQml3xqYvP8Aw6Np/Bs69XOZYdvcn+WMMeOU393yxo2Nox/wrL2GnTRTwiyXGxdgj3V50kSVSIgyA0PJjQkHORBG0MkM/lz9Ryh0SqREEomRYUhOA1MOureQCjC+7f2dpNTp2JcFUs9pWuGoGAEFzz5BVoWyK9atZeRMrMKjjRvuFDBlijTSLEYBqRWWCClgy7GBNHDBdMqNFdu7tsWJUKazV3lufHn5lqpS4lCcQulaNIONHnnn3hqJPCATSLqkgKtPnm5YdMaaJtdKMoAdQX6yWVk1x7c+4iURs0alRLEYDIPaJtScBTiHtgSIukThzwCVINRDigA6sZElgXEBkWsHIrXCsEaOLwSeaMt4cvU8TlYCoVajp0iT9n7W92FENTIIMToC26WRkVMFZnQqdyGeEEppgyw5LRgaz0fzz9BRwA2ijsBJF6phC9o7V9yaVvLeTYx4ky5ZqaV1fcOwzUirDBxkAHFEqjCQyiG0IGgXsJUsUkienMugtM4uPuOZlPM09KTMZs6xyyqdzHTIEEpFYS3DuQ3DuBOiNjKQyAkgS9aV0FcCbrAiC44GfYS/QFRHRnTYkx1ICI9y6DscDaC55yKHuOmCxJhNnbHUufkBzzzwEDYpSGcgZAuQZFtEchSnzzwI2w1IGoyvVqElSRTqyNyBpsimSyZBIulC0A4E1hrBLF7V3WGph5xqUpOM4tNNZZrNc23Hsej/AEysbBJTpUalsruLT807PyXieHqKA0nGmmthyat620krS4Kzd13uzMZYTLzCbnh78vTcr/6pSvx6yfsyt88u8UfTfxH+qUvZOXluVj5vcBKiZ+HD01yy9vpGPpzYn/U6P+9n8NhFij6c1ftwdLx62fw2Pmj5oVAONInw4ejlXsnSH6UeLxtOVFQhQpSTjNQvKck8mtp22U1lkr7szx6MAo0yWEDpjJj2kO98o4UCWthQ0FORs0z3TLeBqWaAaGSCOs0di01bmxakjlsNirW7jeo1b+RxqBxtPIzqVSz358+Bp1UZWKpNPnnsIr27V3S32vC9XvxOHjOVJds6OUp0l+ZrOUUuDVlc4zGT3SXaYGqGskqFSE4uzjJPwae/3Hp+ndDwr/8AWaVo06jTqU4/1VXdJW/LP70Wsk21lkjlrS+XlGs+Eu9tL/Evnv54nPVEd/p3DQT2U7q2fZn+nE5LFaPs+4741GFWpldxNDFUSi4nWVnSJoBskZE0baNceILHiESJFnE4KcIqcoTjTk7RnKElCT4KTVm+CvdorQZ6h0b9Mbw0HQqU4VsLP79GrHag09+Xf470Sq8v2hNnq2tOgdE106mDnPC1d7w1Xaq0JNv1url61WnwUW9jdZLt4TSupdeklKUNqm0mqtKUakGnx2XtR/2opd5ZRhphKQLY5aJNodkcQ0zIlix9ojuJGRLtDojTEwqfrAWwdguaPwDm0kZtaa2quq8q0k8urUrPPf2vLfa2/db2mzrHpFSkox/zcFsRt3b3lxa+BcxP/V6SgrdZJet27MX2W4ve/ZuOYlds5b33ZqxTkaWDVsyhGNiSMyo0vtZ1GreP6mlWxUv6uDhRv+KtVWzH2RW1JvvW446hG7SSu32JXbfBd/ORd6QsS4qGGi3sUVF12tzxFS7s/wDCk4R/wt+DQ4icnJt9ru34t3fvYLiSQFJG0QOJTxVC65RoSiRuHPPPkB9K6u+lZgMRh6VHTGA+01KKsq/U0MRTnZbKn1dVxlCo4pKWzdO1+024dLmqMklLR1OPd+zYqze/7nz+SPkuVAj6o896GN+tn7Vv5LH1tU6UtUF/oNPct2i5P37KsSUeknVB5/Y6SfB6NmvdstP3nyVDDjVMOZ/L4/zX+6/LfUfW8ukrVCWTwcElu/7PmvLZu13bmZHSV6RWjoYCrgNEUHShWhKEpxo9RTpxq5VXGLe3KpON1tNK1757j5ejhixSoWE/D4z63t37+C9W0dBFuCIKcSdRPS4pIhIZEikXYZIJoeUef0HSAhY6iPJCaJUKwcCNoOLJpRot18Qmo5JNKz7873b49nZuKcWE5AWKDLvYUMMjSk1YzRmY2BHg1nvt4FutTuBg6Sv7SK0KVEmcSwrPssRYqjawdIaLJadQqxmPcKmr17lWQ6I5MBJkykQRDiyIJssVsA1FT7JXtnnk2n4Zp7+4qNlipjW4pZ5eRGtq0kF1YyWZbQFXZY6kTVCBhBqQzmRbQlLnn4EVYRLGmPoqrFP102rZJO2fZ/IKvWV3bdwAaSIGw5TIWwhw0yK48ZATodMijIkiBKkJoFMkQWFTRZgiCKLFKBldijMbrAUxXCNOGLp2s42lxLWg8YoyUnuT7TEcgqYHS6x6WjO9uJx1amaFiKdMqs6KJoRJXSHjEAY0w1AKMSalTuIINgCrKyNCOFMzSLtcox8VVKTZPXmV7nVxolISYykFz4lRJBhQAguefoEmEEh0xlyh78895dg1IdSI2+efIdsipLrmwxF1vh7vqMEVLi2ueecgdoINn2huf5Ca4Dc88sA+b88/NSY0RwggUxXElzzz8hom+eed4wpc83GbBo1wHPnvGlMCUuewoeUuefIidQeUueUQyZQ1WfPAqzkPOoQ3NKdyBTExIotPE5W58yGcufgIjkwAmyCRL8O0GpJXdt3Zff2+8CLZCUR7BKADRgSKI0YkuwZqwyRJCPPaPGAdiNFsgyRLYaUSiq6YDRacefEjqRLtNIYyNvROIvkYskTYPEbLT4c5EyjLqatAqYjDc88/LRpV9rPnyBnROI555OzOx1E1vdGTi/WpTWzUpvdJbrLdZ8HfJ2MLG6PujJcGmXyPXdNak3tOElKlUu6M2/xb+qnwqpZcJWyZwuLwUoNqcWvHt5Ruai9IfVLq6y6yhLKcLpPxi392UXZp8eB1+tOzUpxSanRf+brNWlG+6FRrdJbnfJ52Oe7PLXl49pHBbX3dyWZgSpnoGn9V6lJbMoy2GlJSV9l+3cc3gKMYytUi3Dtta68OD58O+OTNc7UwxXnA6bG0Kd3GO5rJtNNPzMTE0LN93kdJRnyiOokk4A2NBhRCsNYoJTLNPSs1+J8N7t5biqoj7IQdXENu73+8CLFYSiFEISQ6QCQSQw8UZXQ4oKKHVMv4bRcm0lm/fz7DNrStQpNuyzbO/wBDaOjh4dZNXqPOEWuH4n4dhHojV+NBKrVs5fgpvK/s4XMrS2lZVZbUn3JLJJLsS7Ecb3/ZLVevXcm5N3k3m32lrDYPLae7s/T4FfD0LtJfIt4/E/hW5Ze0rKtOpckgivtmrq/ox1ZqO6P3pSe6EFm5Pw3eLXEDV0RLqKcsTL7yvDDxtfaqtL1uGzTi275Z23uxwEsRJuTbbc3tTd/vO9034NvzNbW7TSqztBWo011dFf3VvluXrTacr95kxR0kDwQgxWKI2hbIbQrc9/EyI3ADqyeSBsGaCEAmrhwiXMdi1LYsktmCjK1ltNX9ay7rLv7gijGAcBWHSAJIniiBc88/SWLAeLGchx18gGUiRSI4odASXHlTdr9jvn4EbkSPFNpJ7k3ZeO/nMgBiTA2ueecxygxMaLEmSi5hofK/PZ7jRisr9nZ3lbReKaTit0rbS7Hsu6v2ZPM08VjZS+8785d/y91sVYpQhxvYKtQjGXqttdl7XHIpRZBsUNMQSzjn3fy7ShjMftPLJcEU5xBhENRdjMKvBlehU4ktWtfeGguQEphNkUpAHEO4FhyKkUhtsCTGbAlpTzLbkjPHbAs1JkDkJTBZKCbBGYxBNCQe0QIfbCpnMZyI9sSmEEpDIa41wuk20OpkVwrhU6qEkahW2iWEyiZSLEKxXQ9zOhNti2iJSHuREykWIIqJmhPEppWVuL8iwiSMSKcS7TrLZ7yhXqhUdRDbInVG2wJoInplLrianUKNWEzn9L7zYoVSnpvDXzCVx9dkUY895axECvsnaONJMNIBoJBB3EpA7Q6Y0D55YXPAGIUUa0HCsNFjtEA2Xd7xx782CLpdMvaHSIkPtc88CaaSp8889w1wGx9rn3FBxsFf+RCuf5D35+pNCXa559/NmuR35553guYEwEpkMqnPO8aRQ7kDJ89vPmJMG4AuXPNiKbDkyvWkagr1GAO2CmVBDJiY1wDUgZsVwZsKikxosaYyAkSDSBQcUTQOMeeefnIgEg7DTQ0g4oCLJYsyp7CaEIoZoikiSSGa5/mQVpkL5/UnqoryNM1taI0gdDCVzhFKx0ehdJ3VnvXKOeURsukZ+kMJc0VMCuYHOShZnQ6s63Sou2UqcspwlnGS70/O5TxOET8TLqQsXyPd9X9ao2vBqeHdtvDztKUL73Tus455prtKmt/RvhqtPrcFKcptt1KEksuKgkk1bfZrjbsR4xhdISi/VdrHeat9INpKUpOnVTWzWh3fmVs882mcuNnhuVwWM0JOMtlxalwaafsTSdzMxuHcXZpp8GrH0fidZIYlJ4mEHLsxNFK/d1kFZrxs/EsaT0VRrYedNU6dapsf0VSLgqmVrNSybt+VvPcanV9w0+WpoDYN7SGhZxbUoSi4tppxatYorDdx6pWGbYdQLTpNPcC6TNbEDQnEtU6PEa42K1h4omlADYGwASgSLDPgSU6D3WzJsQqBJCgbGitGOUkrPsvZNyt3Jb33d52WH1JirSm9iKzalbbdu7sb7zncpGo43ROgJTaUU+98PH3nb06VLDxy9et2t2tF/Dn2C0lrAoJxprZju/vS72zk8TjLs57tWpsfjHOTlJ3fy7u4pOIto1NF4TZTqT+6vup9r+n6lYGo9XC7/wA5Ld/dX1ZjVZ5kmMxbm3JvN88+BHQw7bSSbbdkuLfAIs4HCSnKMYq8m9lLfm3zc3tbNJxoU3hqb2qkrPE1Fuur/wBFF9qT39m/fuLWLqRwNOytLF1F95O/URa3f43u+e5Hnc5t5u7bd227tt53fbd9+81JsFSZNEigyZM0okOgUw4vlFA2EyzDAykrqLtxtkVXAjOyaG2R2hkRNniJodDoBlIe4vLnnsGQBEkZEdwkwJIsZsUWNJ/oASkMxh0gExRkMNbnnnxAmw+H2mldK7S2pO0V3tq9kvAUoW5yfP0AT55yDQBKIyQ8KnDgxosDV0fVSTy9bdcnizNpyLeHeZzosSQ0YE2Iptdlr8/UjkiKdQQpU0JBSQXaq0EHNANhTXArEoVgu0MAoslcBlTC7R2FcmjSC6oCtcOMSfqx0gbRuJG5E7gD1QNobDFnqQfs5NG0CQtosfZhvsLJpeSvGY6LC0ayWGiWE5KaHuXJaMaIJ4exdLtGpCTGY20NNbHtBwmQ7QlMqbXIVAo1CptB7RNItxkGpFSNQlhUMixGRLGoVFIkUiaF2FcCTIOtF1pdLsTkR7YUUC4jSGUixh6pXuKCC7a1OqWMTmjJoMvSrZewQrm9IU82ZrZoY+ZmOR2jlYISAY6lzcrKRMeDI2x1IomUgkyFEsYkB7QSqoGwtgRRdZzl9RAbHc+fYIp2ZSYbkRp887vb9Akw0NSEAmO5AFcYZMcB2xrjNiuAyA53jjSYDNkckGgQgWuefmU8TIuSfPApVmaUKoOzdnZWu+De4iUiWGOkouG09htOUex23P5+XcV0USMcGIT5553FDAyHYMkQRTY3PxCsMBLFEkURwRJFASRC8wYoJAOiRMiuEpBraXaERodc8/IlUQcqbsnbL6b/AI+/vI1IllinaxNCpURBJFmSImjSVXqQApV3F3RLKAFSJGXT6K0opWTeZpS55+RwVKu0zpNGacUlaWT9zOdxGy0V6uFuTpjmBj4jRr3rMqRm0dFs87yCtgE/EoqaO1gnTd4ya54Z5c8Tfw+tsJv+kjsv+0ovZl7V92S8V8zlsTo1rNfXlEUV5jUpt6ZhKu0n1dSEoyVmqloTt7dpPxVivh+jynNtSnOkm8pbKnG9991e3nbu3W8+hXt+mRp4DWCpD7s5L2try7Bxs8VqV09Lo+pwk19rpSavlOnKN+H3nbzz3GJ+xXNuDcI2zjKK2oz37ms/NFha4Te9Rn2NyimyXD6x073dGHsTXz+Q7q5mpqxWk7KLlLP7qvcp1tCTT2ZRcZcGrP3neUtbYJ3jTcXwhUkln3PLnsI62t8JO8qbk+MpN/DM1yppxH7Kd7NO/wAv1L+H0Cm0s1d5q2duKOketcV92lBd7V/i2Q1Ne6vY1G+T2IqPvW8bq6a2F1EgknZt77Tyj+odbBUY/fcU1+CjG79s2rK/enmcniNPTlvk34tsqS0gzGr9avZ2s9ZoxT6qCgrWcrJzf+0/l/LnsdpiT7e/e73+pjrEPiDKRdM2nqzuAqbJUD1hXOipU7ZviT4zHOdlbJKyS7P1JsHoiUt+S795q4elGO6zfbJ7l9CDKw2hHK18u7tL+Mx8cOrRadZq3Z6ie/dx+Bn6Q1n2XaDu+2T3X4Jd3yObqVXJtvNt3b8fcakBYjEuTbk223dtv6sGwMQ1zz5HTYOJLEiiSxMqdc88+8JMkp0HZuz2Vk3bK73K/F9ntIVMrNWaWMktzaXi7c2Ipy7fMFjpBDSBSCnIYgKwkh1DnnMdR5/UIGwooJoUWFCkNzz/ACCmwpUVs7Sa+9suP4lkmpPs2XmlZ3ut1t4CpD3I1zzz7grgGiRIiTDigHkhCQrAOwmxrCaALZy+Hz8hJBOq7JNuyu0uF9/wCQVNRiaOj6lnuuUqD47i5SrW3fA51G9OupwipWWxdRbTvK/Zl8zFkyxS0m2nF/dfNyq2iNHRN1LApRLXWBlUqoisX5UNopTp2DUMmFtkTiC0FWNodSKsJE9OYFmKGlEJVEQVcVfcAW2KMyBMOLAmTJIEUESwCVJGBZp4Nshga2j5XDmqx0cyengzXjRJ6eDKztm0cAaNDRncaeFwCNajhEZZuTnJaHXApYjV47eWGiVK+yEmVcDi9XDGxOhz0PG1onO42ojUdZlXG1KVirOqbekUc1ipDTttcjiCVTMeFUuUagNtCMw1UKkJjuqQ2udcSQqmVKsSU6xNNNac1zz9QHIq05k0ZEEu2w9ohiw4sgmGTBkKIFmgyatUyK8UNiKmQGPjmZ8n+ho14lSdM7RhDzz9B2g3AWwaZDYeKClEkUQgUiaCBjAkjAKJIfZ5553Dpc89naFsAPlyhhdX4+QibRz6YSI9sJMrYrjtgLnnnsHYBxfPPOQ20Dce4DuXz55+Q1xKXPzGcgFJjP6jIcAZDOI7YzXPPPiUBUKNYvTKdeJoVrCDsAaBCuC2OmSB0gZIJMCRADY0RpDtgSQRKkRxCTAkHuBEQEiY9yO46YBuQ6mCmOmFgxJgBOQaMBNDgyZnQBoZxCYkyxFOdMCncuyiRumVle0Zpxxyea+Bv4XSMZbuedxx06XP0FRqtbjnYO76wKNQ5rB6b4mth9IJ7ued5jRpr00mQYrQyfiQ08UXaOMRRz9fQsluKHVNdh3iimRVMGn2IuxxlOTL9DCyabSyW993YauI0OuwoYnR0uzcUUa1WwCxn8xqmBlwZBUpNb15mtLtNLFMDrCG/P0HTBtLtjAxQmyCWDDREpE9Kk3uRg0cuYXDbn5IOjgYxznKy4b/ANStjtYlHKEbv80vkt/dnbw4kbFXEJK85bMd/fLuSW/x+JzmlNOOeUfVhw7X3yfyMyvXlJ3k23z5ewFxLIhWFTiIJI0mkkaZNKhYjTJnVuFAEmDGIVgqzLSMtjq9p7Ck5bN/Vu7Z24q2/sz4srXGFcM0TmHTkWMHozaV7peLV/ihUMDna6XiyorXuFYvYmNOKsryn2yvku5LncUbkBJCaDpQJp4ZgQoeEQAqdSzva9gJoxuVJ07GrLF01ZxjK/am8nf4GZXrXd+N8kERjoVueefEdRCnjLngS04kfVk0IAJxGRJshRpefYgIkg4k0cOPGBNqB0Q6cCaJJFEAU6RJGDQW0hdaZqHp9/iPFgKpmSwRFixQZLYz5VLM0cJUTyvZ9l8gp4TFjbPPtJ44Wzz+K+pSxuIVwIZRI2C6oCqgHFiTI+sA6znnuAtbY5W68JYgCeLDRV64fr0E0vQqE0KhkvECWLA3IVEWaWNscy8fzzbnwG+3fzCadjT0sTR1hOHnpMi/a3HnnuNaTi9Gp60JA1NdO88zq6TfhuK/218fjzkXScHps9c/73v55ZnV9du+/tOB+0vjzzzmBKRNJxdnU1s7zPq6xNnOkmEqWabV1e7XE03MWlXx7e8zatXn4mzpmcZWcd1t3DyMjYI2VMuUitAlj+hBY2gW+eVwBQVg0SCQ2yFFGUialItQZVhEniiVpMiWJDEmpMgligowFFFqjTIaDYq1y/URVnACg4EcqBelTA2DpKmlGWHAdE0XAjlSLtNKXVDqBZdIZUxtNIVTJYwJVTE0VAJD2D2RWIItkYn6vnMYDlk+e4SYMWPc2p0+eefIO3O7x7iNRCUgJE/jzygbiGAcZse3OYzYCsKwkufqIoTQz5558BNibAjZWqotsgro1BUlIiZJUI2zQGTEhDmQTBaHTFbnnn5BEKKCsPFAOkHcaURrAOOmCxwCY6kCMmBImOmAK4VLcZMjchtoG0twZSATGtys+WRT3BczfwXR3jaiThhMTJPc/s9WKfhtQV1bc9zLH+SXSP8AqWJ/3Mvp8DFznuGnMTmNc6yn0P6Sf+g4n/cy55YMuiDSS/0HE/7mXKJzns1fTk2hbJ2D6HtJf6jif90153t5vz4YGmtXK9CWzWpVKUrXUasJQbXa1dWa8Gy8pfFNaZsqY8JWJRtkrWlzDaXfbmaNHSsXzz3GMoBqHPPwJo06WlpPg/DnmxYjpOXH4HMxJot8eefAaOLp46SfcBLFPgYEMRJdpLHSEvH3F0nFqSqMqV8FcrftNgy0pIq6G9F88/oCsAQS0xLgiOWlpvhz3ZETSWWHfAd6Nfa1Hxdip9ulxfsIpXe8Lpp05wj/AHvZZewmemXbJJLuXfz9TKhAnhMljNg9lu7ebIKuGLdOQqkjKyMuVIHZOr1U6PMZjXJYXDVa+y0pyhFKEG1dJzk4xv27Kd0mnuav01b0YNMr/QKjz7KlD/5t8u3eyc8Z2ticb6eWWDSPTqfovaZf+g1F41KPyqPngGvRa0z/AKlL2TpeWc0/d8x8mH80/uvDL08yQ8D09+izpr/Upf7ylf8A+NGTpvoF0rQpyq1cDWjSgrymtipsx7ZNU5zlsrtaTtn2JiZ43xYnG+nExDceebeHKII4gkjXOjCaNJAygueefYAqwLqhlYhEORBSqk9SfPPO8CPYFCmM6g8agRewlPnyRdrU1Z+7P5b+fEyY1+efMGpiQq3QaTV0mr3t2Oz3eBDOz3Ln5lRVSenMgJ0x1hgy7gqNwulKGD59pKsGdPhNFq24tPR67jG2nHSoWARvaTwKXjz9Tnq0szUrKWmT0GUoTLNFlqp6iBkFWnYahScmkldvh8X3ESh557B4tljSMIxlspp96YEEERxqDSqFnYK9amQB1poYJ3Rlxia2ApEWAxNHncU63dyzXqUbGbjIhoKxDazZDcKESxGkRVS4lMuPDLnnnzIK2FsURbYNxOISQQDQLRLs8887xpR5+oEW0LaJNkCwCUgrisGoAV3Ebqy3sDSp2Kqhs8sFwLTpgbBUVnTB6stOmN1ZdiBQChS5+RNsBKAESoh0aXPP6k0YklOmZXSOVAZUGW9n5BwRBUdEfqi24A7I2II0+UHGBJYZe/ngRTbIUUJIOIUVNE1iOBPFkCUSeCAiTQRKJIou4cip0S3ClkIsRVZFdomqMhaBUbiM0SsGxYiNwE4Elh9kohVMbqi0oi6smxU6sBwLnVkcqY2itGI7RK4gNFTQNh8sYl2fDy/QcGnGD2BuEdUIe3POY3PPPxHuA6YrjXEgCvzyh2wEFzzz+gM2Oxm+fkJlC558BbQmM1zzz86G55/QjqxJJEcyilVIYsnxESvY1EKQhWEgbGkPJDbRLsiqgsJMuRp3FVwdvqZEElzzkRNk8qb/AEI5UXw559oAXEkKwkgC559gPPPPzHbBbAJsZMZIQC2hNjMZgOz3T0UNWqVXFSnUipdXFyinZratk3l2HhLPor0P3atU76c38vhY49X9Nbx8tjXn0yq+HxdehTw9J06NTq1Nyk5Syi72SSis92bMn/p0Yr/VqL9rXxizjsPpjA0tLYqpjKSq0lXl/RtbWdn+F+rdPZavw7bJnq1Ppj1ct/6jC27/ANWpP3N392Z5bhjNfwW9o1yvtzK9O/E9uGo92b9275/AKXp5Yn/VqFu9y+p0NLpn1bi8sBH2YWl3c9hNLps1bef2CP8A+EofJv3XRNY//jpu/wAzn8P6dmIbSeGo5vPZc083bK8ueJ6N001I47QksVOEVOMOug1vhKMknaXevV3538Dw3pl6TdFYmnCGCwio1I1E3V6qnS9XtjeO+673Z8D2TSk3+7Ut+dJ+TqK2e/ct5LhJcbJru1jlbuWvjeIUSOmT2XYfQYglzzvDigUg0iKkgyenIgiTU2FiWKFISCuGgOIDgTDOAFZ0gHS553FvYBcQyqdUOolhwI3z+oQFiSPP1GuLrADUiKvVGlWKmLqGdHh92aV11/YurmBq4aMOtqQwl3JffqYmPWVKkrb5Sfa3ZexHiEvTf0vLOMKduMMPKauu9XS93sPRfSrptataN3WT0bf24WSXlJ+4896GPS6paNwVPCSwKqypuo+uVSCctubl621Fu+dsnu8Dw44S43Lju7rWWWrJvU0gj6bemf7OD7L/AGSp8b77d6Bn6Z2nN6hC3B4ObXutbx4eJ31X0/aH/wBWXlxdSnb/AOG/wHh6f9L/AOrvKtF/GCfvHD/4v8s7/wDe89r+mrpxrKEElvksHUcV43Vl7Wew+ib6SeO0njKmGxfVTh9mnWUqdLq7OM4QafrSTU1O1vE5vSHp6JwnGGj6a2otJynezatnaOdt9rZ8TkvQRrr9r1ezbwNdu1lnGrSeXD7zy7lutnbhOGVuGrPBMryk5bjyHpY0bClpHHUqa2adPG14wit0Y7bdlwSvZcFZdhzUZHXdOK/7V0j/APbsQ0/Gd/de3s8uOge7DvJ+0/043zUl+ecwrkaRJY3UgqbJnUK47XPO4gkuOmQiUxpFi4M5EbmM5gFHnlE9OZV2gosgv9abOi2c3CobGjKvPPYZquxw08iZ1TOw1UsqoYdIo6W+pyGLebOvx+ZyeNo5s1ixUtOknDJNzUs3b1VHsz4+zt7wqDs/bmVqWLcbpdqs+9J5c9g8WbSLrrLtWQdbSUUvUTV8pbs7fzM6pVIpVBoGp5l2GKM2KGq1xpWq8V8QJ4gylWH6xk0lacaxoYXE+w59VSaGJGiOkrY4za9a5ReLbCjVM6aXKUi9SZkxqlyjXGhbbI5MHrBnUIAnEZQ54hSYNyBbIMohDMAHEBxJWwdkAVEJIdBWAZAzRKkBOJVROIDiSSQzRpdIrCUQtkLZCaRuAUUGx9ghoyiTRiAiSPPPiSqL+YrDbQ9yKJjXEIB2gbc8/AdjBCQ6BYVOQVLEkiRKQSmBZiyxTKUanPPPys0ZkqxrUUXHDIqYNF+TyEVlYhkTDxMsyKLIggrApBJiIZDoQlE0CQSI1EKKMGxA7IdxkBBOBC0WpkE4moI7ji2uchFRxfPyEMOpc89p20yfnnnh3iYyHbGgSXPgL+Ywrl0HiOhriQ0CGQ1+ed/8xMoSfPPPj2KwkxwBaAcCQF8oCrUgVpRL8iCcQKt+eefcAyWSBkXbJkiZMhJaY2rQwdu2xBXx9t3mQTZZo4HK79/dz7yKqxqv2lmGPdv0DjiIxdmrrLNbn4Ozv3MKdSEtya9oFerZoqyiTTjYKtDI1oVWgZCYrE0E2PcYew0GY0h0DJjQFs+hvRDl/wBYl/gqX9sYtfB+Z87zZ9F+iBD+nqP/ALuS9xw636K1h5jyHpew1tIYxdn2ibXCzta3P0OPdI7Tpkn/ANoYv/x5L3L5tnHbRcfE/aJl5oOpH2CTaGuaQqMM1l2n2ljn/wDRubf9i/c77/HtPi+nOzXifZOl6i/dmdv7B+DW0vp3fI8/V/7f3jeHmvjyMSSEQUiRI9NIKw9hmIjSS5LSIEieKCrMQrEUGSwYaOueefcJiTFcBrDWCFcAHArTkS16pTnUDB51ObASmC2A2XTOzSmQYqVk32JXb4WJGRYmXqtdjXHut7vAM2vtL0tY7Or2jo/38BH+HDSfb4WPiJH216XmK/8Ao9o9PKUqmBt4rDybS9ilfwPNehH0fNFYzCRrYrSDo4iW1fDxqUouCTai2pQlJ7UbN9nC1jxdHOY4W33XTqY7yknqPnWEUNVo2sfZq9EbQUVeWkpuPa/tFGNvKPiRv0TtAy+7pOdr/wCs4d7vGDb53mvzGH3/ALM/FXx3CGR9C+gjhP8AthvsjgcR76lBJe1X8ju9Kei5oKnTnJ6TntQpzkn1+Heai7ZRg7q9sk088rHKf+j+pX0lXe/ZwMs1e151YJ2/hfeZz6kywy1/kxw1lHkfTav+1Mf/APba/wD8bfuvY4+LOm6Wa6lpLSEuOPxT/wDeyXy9hzaR68PE/af6c8vNOkOJMdG6yUQwVEJoKjEJjoIcZxCQ6RkMkNKIdhWAjaNbREjMsX9F9hKsdbhGWing3kWmzm3FPHTOUxdR7Tz5yOl0lLI5qqszUZpqUN3PPkSTAo8eA9Sd3fjmbZR1GRbRZ0jBWg4z2m4vbWy1sNOyV7tSTVndWtwKtihJgTXPPuDuC2AUECpDp887xmufqA9xrikC2USRl8iSMyFfyCTIJesDpYgrPnn4Dc+0htr08UWosxcNI0lMzpqVZkiNMfrSu65NLtZuC2QrED9cTQlYlIjdQKLANEiRFcmplDpAVESbRDKQUDYLYTkDIqmsOLZEgHuPsjtc9vzHZmhJBDokVJ77b+JDQLDodqwIUTFJjXFcBJiHSCSADZHjELZDjEAEh4oKwtkA4ItUSvBFiDA1cGyzUqlCjUJJ1iKr1mNEVQYiDTHTBTHcvmICQ+0RpjqRpFiEFxI7kVxNmaqZMW0QphqZAViKpAkuAzYisIe3dz5DBHDoeI1h7ndkrDobnntEpAFYTY1+eefcJMoKw6YosZMBbXPPkONcVwHbExtvnnyGaAMa3P8AIa/PuFKQDSRFKJI2CwKtSJFJFzZ57yOdICoTQGcB4xCCwzW0FpLFN9y4cRsNDMk0jhe0DPgiSNUjeRHTNRGjWeV+0mpwvEr4rJJB4WXqsqqUxBTGCGHGEQKwMggdkCNnunora006OJcaklFThJRbta7atv8AaeGyQeHxLi7xbTW5rJo5548pY1Lq7fT2v/ojYnFYmriKWIpbFafWbM4TunL+9GTTW63q3MNehDjf9ZofwVfnY8dwvSfjYK0cTVSW5bcml4Z2Li6Y9If61V/jl9cvYcOHUnaZRvlj6et0vQdxn4sTQXC0Kr8728l5g1fQgxvZisP7YVeHDt80eSR6Ycf/AKzV8NuXzYL6Xcfv+0VF4Skvg0OHV9z+xvH09ko+gvinbaxlHvSo1Mu3f1nvsek9MuGp6O0K8HKrGVWVNUaaW+XrJt7ObUUlm3kfKy6Xcd/rNVeFSS+fPtMPSmnqtaSlVqTqSWSdScptLuve3sJ8eVs5Xx37Lyk8RXggkwYoJHp0hx0hrCRF8EiWMyKIaCrFOZMplWDJ4kaiZTEwIilMKKUitWrA18QVJTGmLUkpANgOY1zWnO1LPnngRsdsFlQEkV6yLTI5QCV954DCYDWLRGGw86/VVqEaSkk4Rq0q1KHVuSjPKUZpvs3SOLXoCYR79J1WuF8MvNbL96PkKnXlH7spR47La+DH/adX+0n/ABy+p5Pgs3xy7eXT5JfMfXT/APR/YFf/AMyqp96wvDd93P3B4f0C8B26Tqt7snhl7Pu3t3ZHyNHS1X+0qW/8Sf1Hhj6n55/xy+pPiz/n/wAHPH+V9Y1/QOwGX/as8vzfZpO/daKzfH4nbdHHR1ozVyOIxjx3X1JUOr2JSpbTs9tQpwp/ilJdu5Hwv9on+aX8T+ond7234u/xfcPhyvbLLsc5PGPdc0lpLra9WtJZ1a1Ws433OpOU7X7tr3ZlWwow594bR645BHGsK4qHUhtsQzAbaDiBYJAGh4ANjpEEozGTEQMXtGyzKLL2AWZKsdNg5F1yKWERYZzaU9InO4hHRY/cYGJhmzUZqG9ueeeI7lzzz7wJTAcjqh3HngNKIrhxgBDYZlqlhyKvRAjsSUYEagTUZZc/ACOvEhiS1XcCxAgrc894kKxEMOkOEiqKi8zTeH57ufeZVizDFtZc88+EFirkUZSzuWIPadvYNisG4uzArqQlUBlEa5USxxDJY4oq2EQlaMMRzzctRqmVTgW6ESab2s1q9ir9rKuKlmyupDRtprGc887gXizOUh5TGjbRVcONUy1MOFT6jS7aiqjdaZ8ZEsJjS7aVGv5Gpj9Y3OMYu3qq0bJLstd2Wbsc45C6wzoaKkMpc885lPrA1U5uTSrNx4zK+2LaIq0pBRZWgyWnICzEdoaIVwHHjEYVwgkiWMiFEiCrEagbqFaLJUzNElx0yNMdsCS49yNMTkaB7QmwL88/ITYQdxrgXH2iUGpCUgNsVyaVKpjSkR7XP6C2jQVxyPbCCOIiIG49zuydPnyFfn4DOXPPPmJIAuefeOmNzzzwHXPP8ygkJPnncMxXAQ1hc88RIBWCBHAce41xAJIDnntCuOkACiNYMbny594ETpgqJNL+ZFLnnn6gDj2ouUtI5Way7SskSxw1wJJ4Gm9zt3MhqKnHdm+OQNTR77PoRR0Y+34+X82aiInLa3FnEPZjbt3+0CTUd2+xVqTuUNcQ1x7hDIQ4mwGQmIQA2E4DsVwGcBbIh0QLZEqYSCiFBGAUIBRQUTKnQVxkK4DsQwg1sSHQKkOmF2kRPCRVjILryaXcW3UK9XElepXIHIaS5JJ1AbgNjJmtOextiGQkyIK465uMmOFJjND3EGQuItgOw8YgDGAaiLnnn9DiAOyGkJDogVhh0C1zzuATBYrjXAXPPP6pDXDggCiCG5IBTAe49wUx0gCTC2iNsW0ZBmngKLte2V7XMnaNXA412Ub5Xul2Zkqxv4WZZuVcDzv59pabObSvjNxzWkVZnS4pZHMaSZvFmqm2PtEDYto3phegidTKFCLby3s2MRomUUnJpe36FaV1VFXZXqvv8gJS58AlMwo+8i2iWMgoZQAb8yxIC3PPO8ABBtDxRNBlELq+fmHFFiAENOAFRFplaquefYRD4OdmszoNY6eUb77LlnKuRYxOk5Std7kl5IKZ8/oA0N1gtoIK4rAuY22VVqgi1NmY6v8AMOnXICrvPn9SAmqSIb8894QkxmO+efcIKAO4I9gDUueefMkpzIQ6cw0uRiDYaMwtoyp7iUuebgOXPyGbIu06kHGRXUiaDIqaJYhzzvIIrnnncWKMSKNBXFFCuAUJCjIicgVMCzckiyvCRNCRkSphxkRJjpjQmuPcBMdMgNCbBjz5CbKHGvzz3guY20WILaCZDtC60pschNgOYtsJtI2JzI1MJF0bSWGA2hENuKi+eefALaI0+dwR6EEhIG47AdBp/IjUQ1LnnnxAJyExrjxAa44riYCHjIYSALnuGEkLnniAmxCsIBWHYyGaAaRFNkpHUQEW0SQqkTJIgSKuRyqMe4MjUFeUQGiaSAmioiURkTWG2AmkaY0iRxBcQpmC2E0C2EK4zkJMGQBXHTGlIG4EqkGiJSH2gJ0xN8+wi60brAqXbEpEO3+gzZDaZyHUyBsdMaNptsbaIrc89ohpNj2hlMFCKbJjp8sFxEggmMxpDpkDtiuKw7Ae46YKQ6ZASFccSIHTH5558hkh5MBCUhmxXANTHTI7hRYBKQzY0WIAWMOxkArhIZSFtAOh0wQkgFcQ8gYkDsSGiCTQIu4GRSuX9Gwu9/nzz5EqulwL554ltyKmGVublq5yFfGbjl9IPPnn9Dp8XHI5fSK5+BvEqgMmDcc6sDjUsTyxTe9v2u5Vig0iCV1A+tuRD255594VJYmgiOECaNMRRxiRVZ2J9gqYlZlDdeuf1JacynsBxRBeRPSZn/aGP1rAvVJfIo1qpFOTBcAmkmHz555ZP1JLonDb+ci46QGeqBAzXhR4c8837M3GKzfiQ0g2wdoZDc+wqjvz5CjIFMSZBI5IUZAOJLHR7auuzx5YASkK5FJNc88+AagNAkxhWEmAVwoyA2hRkFWITJtrnnyKe2SKqZrSfaGZF1o3WEE8C7SM6NQ0KDM1YswXwJIMquQUZkVZ2h2RpjuqiKVQh2yWayK0mUXKaJ4FWjULUGZ2H2gozKk66THhVG0XY1AtsoqoFHEEVccxnUKvWjdYbFvaGlMpusM6gRPt8/ISnz/Mg2h4zKynUx1Irt88/ANFEsZEikV0wqciia44HWLlCA45MYVx1I6B0OgEOgCuOBcKJQSCYCCYCuO0MOAmONzzmK4BCGFfnnnzAJg3GkMASGYwwBXI5vnLnnsD+gE0BC1zz4EqISWIDilEQ9uefoWURyiBIkkgZLngaEaFYe3xFYAZRAkiS4JoRgMlYEkZRHJjNhAMBmIewmAlIQwkGRCGQkA6kFcBCiwo0xJgjoGxSkJoYSCHTE2IRAVhkLnngK5QpCsKwSYFuno17DqZKKajm1tNu/3Y72lbN2snYqND7T3Xy4AtEDpiTEkOgHSCbBQ8ih0x5vnneC2K5AhxrgtmQSYUSNoeLAkuM2COmApDMQl8wGsK3PPPuHsKwBRiSKIEFmT7JBDUAuSTZGAmgUwmgUig7lzBIoplzAvnnn3maOkwTZoRM/CPn3l2Mzi1EWK3ew5fSu86fFyyOX0nz7P5m4aZrCiC0EkdWNHiiSwMESEIZMJApc88/J2gqxSkWI1TP6znmwfWgXJ1CrUY3Wke38QHuPYZhIgJBuHnzz/ICK55595M4FEFQJjyjzzz7xoxAuaJxNnZ9vbzz8tt4ZNHMGpo/TTirNX5595KLUqGzdmFiJXfPPsNLSOlXLLcuGZmSRRC0DYk2Rrc88+4gAVw0h9kBQgSUazTun7Oyw0UBIo1FpWm/v078bScc+K3/Ir4vGRf3VaPtd+9tlFsSQDsTYue4ZECuNtCYE5F0GlWPTdYehCtSw0MUpRlTmotpJ3jtK68dz/Q8smz7A6N8X9p0Hsy+9CEoO9r/wBE7X9sc795w6uVwkv303j3r5f1T1flia8KEcpTlbatdRSV3J7srLidp0l9ClXAqMnPrISV9rZ2c+1Wu8rd50vo7aubOLr1nH1aScU8rbUnfzSV/az1v0gsRCvgFUjuhJ7rcHkebLrXnMZ4dpjONv1fNfRf0dTx9RwjLZUVdyav9F7z0DVT0f3VrVaLrWVOWy5KKd/Y3b4+86X0cMB1GBrYh5OUp2urO0G42477+R2nQBV+0faJ3zlUla7zyVkvHf4HPq9XKb19CSdnPw9E6ileWLz8Kaz8Nr5e3ejlNa+gGnRnRUMQqiqVFCSSipR42tJ393hkQ9IWpulFXn1dKpKG07ODUr58HK/u+RiakaNxsMfh1iYTik5StO3ZFtdvG3HMmOWVm+TN1vw9MpejTh0l1mIcH/e2I/G/PAoad6AMDClKSxq6xK8byg02s9mys8+K/Q6Dp51RxlbYeGhKXqpPZlGPbnva7OB4Zpjo50lTh1lSlOMVvvOEmvYm3v7Vc307b3uTdn2c9pNqDaTuk7X558Tf6NNUqWKquNWoqdOMHOTurtJ2sr+Ku+z48VWb7d/aR0qzi7xbT4r4Hqs7Ob6jwHRZoaTVLrpdZJ7MX1kova7LNeq33NM8z6U+it4GqoqW3Tk1sydm7NrN2S3Xz3fTnOizRM8Ri6SzajONRu7taEtr5bj070iNYVKcIJ3cdm74W4+VvFnkm5lq1vzG9qr0U4BYeFXELOUdptyaSTztZFXG6L0DsySbUrOzTqLPss93sO2qalrFYGjTVSMH1cFv4RW+77Pl2HgvSF0B4vCRdTbjVpNv1o3TXBNZ+d37DGGW73q2fZ0nRB0f4XE1qu0nOlC2zdyWTvvs1eyXbdZ3yyOs0gtBU24zo3ccrJTd7cbyV+H8znfRWlG2IUpqLuk22r2cd9r7uw1NNejN18qlWji1Oq25Km0nC3ZGMoyuvanmzd/Vd3sTx2eY9JWKwfWXwcHCk45xe197itpyee+27yz4h1ixrBoydGpKnUVpxbjJdiaM5SPbJ2crVrbG2yGMh2+eUa0ysKZJTqLnn3FW5JGQGg6ThaVrxfb2e4bEY2MndK3dzzmBhtJuOVtqL3xe4lpaSgs+rV/b9ecgivGQST8C3DWOS+7ZLLJJfT2EGPxzk7tK/bZWQAdYIg2ucggOXgHFARCXPPPYdFO3z4BMG46ZQ7GEKwB3H2gUK4BWHQO0PcBJc88+Wb87xpMSAdIK4I4CbA2h2wbAO2NYcYAkKqDfnntFKXPaBBYlgwGFBAGFYUUEBHKINuecuWTWG2efhvLsVpIFokkAyoFikIFFCsBJB3AbAjaAJZEbYASFcTFtAISYzQ9yxDsZiEVDoQyQrAEmOMxAEJMZCbJoOhRY1xQY0CUh7gjtkBXHB2h0A49hmPFgTYSMc9q/3Xs7Nvvdl79l9+7LwIEPIFAEPIBBIKUmOmC2MiIMSYKHYodiGY6ZkIe4wgCuMJoJRIGsEkJRDSKCpUg6oozGkwI2iNslkgGiAGCEwZIoTL2io3du4oTLGjalpGaOpw0bF2CIKLuTnFqIcc8jl8edNjHkczpBG8RnpFmNMgRoSjkvA6MqzgPEl2SOcCAGMmFcZAJCH2eeAxoJoTENz4ECuOnzzzmDcSGhaw0Sequzm/PzIMOS1qvL53ARoYTE5AJgji557wCQLXPPPvGbFcgaQMo85htg3AGwVhMJFBKPPPzI6iJUDJFELQ6QTGIFsjWEJEAMikTkUkWJVeoj6Y9EPTW1SxeHln+NRf5akXHJf4k/rw+a3E9W9GDWKNDHWnJRhVpum22kr7UZq7dksk+Wjh18d4XX7t9O6seyYbRKwOCry3TnOTvuvtZLyj29pQ6NNJPGaLr01nKM3GKe9uLT7e7LP5Gx6TmsEVSVODWa2vVs+crnn/ojaxqNWvQm0oS2KsLtfed4TiuO6Dyv237L/OmNvTuX1d999fR3WvddYPARpJbLlHPs3Zt272Zvos4xrC1aib2usqO/ZdO9/a328TF9KTWFVKipwleMI2dnkm837+ci96PWk6cNGVk5JVNur6t0nnbZte2/u4i4/wDT+9sSX+L7RT1r9KDEU6kopRey2r2XZlf+fvKOpXS1U0jj8OqkVtR22tlWyUXvS72veeJ62O9abvf1n8efI6boF0tCjpClOpJRg4zhtS3RlJWWfZfd8z2fDJh2nfThMruPorph6XMRg5qFKyjsrNq757DxzTXpJYqtCVOdtlqz9Ve57y96QGnlVrPZkpRsrNNNW7mm/meJ7A6XSmpud3W5d2hiMftNsu6v6DniKkadNNybzyySvvfAwT3/ANHfWvAUYz66Sp1trfJb42W59navG/YdepbjjbIy6rB0aOiMO7NPEzV5SaTa3ZL+6n2N5v3fPmtWt7rzlOTu5Sbu/Hst2Lh+p9E600NDV5OVStUld52nO3gkmt3ceUa3aI0ZRxFGdD+lwynB1YSbldKUW16zvuTTi3Z3txPL0/dl23XnUNcK0VaNSaS3RUpJexXR9VdGGnalfRE+vk5vZmk553Szi772+/fkYlLRer1WKnsKD3unFSpq+93jFqCXg14GN0gdLuGhSjh8JG1NZSskk1wyefzLlOepMf7k7fV4bpic4VJqLcU5t+q2lvdr59/vPUvRp0zW+2xjtycHGblFt52WXk7dnxLfR/0gaNlS6rGYZOab/pVGLk03dLavtq19yy8TrodJei8HCTwVJ9bJNKWza3jJvay7El8DpluyzTM7Xe3BekRNPHVWrb43tx2Yp+26z+Z5cp888+Bf1k1jlXqTqS+9KV3dmcpc+P6Hoxx1JGbdpHLnnn4BQkROQSfPPPkaZ2lUiWL557SEPaC7TuXPPPyjUgXPnz57BQLpNpqS7eWPtc88+4GMefMkjT+HLIu0d+cxw9gRNG3NKQ9gbjo2olzzwHuCkOUPYdLnnsBuEA6Y8QUK/PaASYrjCALncK/P0G55488RIB+efcOxlIZMAn/MdjJCAZrnnn5Mxx0ALYLCY7j5gQSJKRFIlogSpEiQK53jrcAUUCkEkO3zkE2r1Ic85kM0WpognAsSIZAErRHY0prAsKwLAFkbRLIjYEchoVLDzQDQDuQ6AuJM0ykigWhKQm7gPcKAI6ANiG2hJgIUR7gpgK49xMYBx0xkIAx7gWHTMghbQyYrgFcVgR0QMgrjJiTKp2+efqMK4iITHQz555uJAFcQ1xRJQQ9gUOQOFFDJEkIgJIOISphNc8/oQAo7wLimxQ+ZQTREyzJFWTIEAxxNlCaJcFv57iKRNhmZo6vBVDSU1a3eZWjY5FyE8zipsZA5fSC3nW4t5HLaRjvOmKsls1oTTiuNknn5bzGbDjI2y0ZIhkVYVueWTuYCYUQNoKLAdoF8/pz8QmBIoZyGaHuCwFYeIKQcCC5CeRG2BtBgNz3CuOmJogeTGkueefcNERQyY6nzz7BkJsga421y+efaPcG4Dj7YFwkUSbQN+efqOmOUBYZhtAkoG/PPPuFcfnnnsYNyB7gWHYmaKGwyk001k07p9qa3W7whSDK5j9PVaitObl4tso0akou8W0+Kdvnz5BtCVMcWlrFaTnJetJvxbbIMLpCcL7Mmr70m7Pn5guIOyOMD1at83mxU4Ctz5hJc88BpE0qra3t24sDZCuJEXaPqxpRJdkaUSs7DGbDlNgWJI885k0bDF24+dvMdBWFJDRtFOIdOQUWPYaWHTDI7c8/AW0VUsXz5BxfPPkQxkSrn5kEqH2hohSVhoPckpy57+flkQpjrnnn4lFyLJVz3c87ipTnyvaWITJYJdru+AwHWociacqmFYFMc06EEmNcVwHQTBUxbYBX557h+feMPEugh0ufmMIgewhIGwB7Q4L55sPcAueefiIZMVwHsNcdsa4CuJiE2BXqElJkcg6TAtR5zHYoD3AVh1LntGfOQ7DIZMjlDnn9SZDSCKsokMkWZIimixULQmFJANmlC485Lh4ASJQbBEEiOaJ2iKUQIgrg7IcUaQyY9xD7IDSFcTYyYBJj3AuOASYrjIewCY6YrDAEhkxISJQ6YhmOQIdSGchIgIUWNYdPncA7FFiHiA4h7BbIETHYWyM0AhkM0PYlDqQcSNMkiyC5hcBKSckslvfZzYiiW6GOag4LdLfx4P3FWNMA4JvL3mhTrRgn+Zq3Gye+3LM5TsROoAc1fnvGYKYmwFKZG5DSkCwHGuNJjJgSFnCQK9FXNLCUzNVv4BZGjgsOm8ylQXkWlM4oHFSOV0tKx01ZnMaWjm+ef1N4jHkJsZsVjqEmHGYCQ4E6mHGRBFhwYE7YMlz9BriuQJgsdsYBmyanTIoIvRp5ewCJRHjEUmCmAaGYusG2ueedwCuPEBSCsAmgZMJgTZQ0kDIIjbAdyCgiNElgJFzzz7BrgxY9wFKQ1x9rnnIBsBxpAjXAJjXE+efkNcM09x+bDX559okA6JXEFxCXPu55Q2BH2R7BRRNgNkJRDvzzzkMXYZCHaHsQEmAEwbACx7icBIB3IUhW553B25558AvY0ESNDxiSdWFQqIKRI4DKJQ8EGkDf488+I4BOXPPgSbZFJhJgSJ/LnvHTAUeeefINvnyAkgyVy55+fuIIPn9Q4sCT2+9/UYbY7vj9BwOejEJjJCDZmK4zHuA7kPz7AUh0vgAVx0CpjJFEg6AiPfngQO2MK4kA8pD3BtzzvHAMZMEVwDbFIG4zAJsTkNFib5558sginEOmxmx4sCzF8+I7IYsmiGdnuFcAJIGzSlzzmKTHGfPPaEBL5kUiZx59hHOBYqu0RyRYkiCXPPmaUNxrDWCSCAkiNlqvRtbNO/AruIELQy7ySUQLF2gR9oTGaKBbEhWHBCQ40R9kBxwR2E2djXEhrk2bEmJSFca5DZ7iTHXP0GBsQlyxmOiKe46FcSAdoSQriXO4CWLE2RpiKDY02CmJmdhDITYw2DXPPb/IkpR5uRX55+hYor5EEsZBQARYw1K4FeuiElxG/uIWBIgGNtAyYCb55YLYzYgEmMPcQB0p5mxh53szGTNPRtZXs+fMxR0eHkWLlaEbc94fWHIPVkc5pY3asjC0magx5DWCkgbHUIdDMVygkEgAlEA0x0wVEVgDQ8gLibAmo7y1VmUac8yWvVAZzFKsQsDbAsKYtsgUwlMCdSJUytFkkWBJNc+RHImk/pzz+oSfNgIyObJZEckAyCuCkFsAPti2xNAgOpCuA2PcJTuQzY02IIQFgx7F0uhUYXHlSaY9OVgqlZy3/AELo0ZMe4tkSQ0aOueedwQ2zzzz8lImjROQ/PPP6jYSIg+eWPbnMZBt888QFAnrUbc8siorMsYqfPPPkBTY6BkwmArEiQFiSMC6Dx55uWKce0hUSzhmQRThzx/mV7mhKkyliI2DSNsnwmHc5KKV5Sdori2+92IEPs889oFzHaPlTk4zVpLem07dvZfjzdFePP6jSk27t5hpAOg9vnnm5DBhXAnT5fP1DiyrtjqXPPAmkq1fv+AxX618feImkY7kLaBQVjTqQkNfn2D355+IDpj34jKQ6AQriFfn6AO3z3Bc88/Ea4uefiaBIVxXFYocFhWHiiUChEsF5c+XPtOVJeZkV4sJMWyOqfPtAZIViTYEqDAryBuTzw5E4APCRYhIhjEmgueefMJRxQaQkh4hk1hJBbIzAFoGUUSXGZqCvOnzzz5FecS7OJFOBRTYxNOBHYKGTAbJLgWCI2gXEkaGjECGUQJsncSNo0IhxD2AVx7jISAcVxCASQgkJE2bNYZBISIynw+Gunnayy77dhG6YdKIrhdp8QobKSXr9rvdPfe3ApBzGSC7OOMOiBxXGbEA6HURIOMQG2AbEuyDshdBsNshtDNEqBii3QRWJIVLEF+GH5ZP9qUIu2cnku5cXw8L/ACM2WNZV2gyllMEBiuA/OQ1hCiF2TGCYNworDMa4mE2domwzIYq5eo4R9pmjaweIb+BcsUMCrGpTZyorVZmLjWbdWBk4imaisupRGhSv8S9Vo5FWjF9mTXPKN7FWSBkTSiRWLsKNMuRkpeKsPU3WXiRUZWAtU8OV3RZq6NxMW0m7Xyv2fyuXNK4PZf03EtLHPqi/0B6hmrOhkVnDMbCwlBdv8u8qYtZlt1CrVQ2m0dgXTDTCi+foXZtXdMSNONO6fH4lX7PbeTZtX2yagw8fShls33Z349tu4gpIu1W5QDhhmy1ovDbW/ci9UgkTZtRhS7BpYUeZNSRNiOlo9fIVbCrsVvYbmB0fle+XPPOdfSsEt3LGxhVKBVqUmi/1quWFh0/Lnm5djBY49SFnbneCVkQkwZPnnn3jNGtiVDpARYaY2bOSQj5gwpllULGdiPYHUQlLnnePCLZQNgJEjhzz8/qRTiALYkueAzjzz2d4tnlE2aSIMj55+g6TKLFLnnMCtMi2Xwfkw1g5vsfk+d5NiO4UeeefpKtGz/LL+F/QlpaLn+VvwRNiKnDnnuJ4okp6OluUXzzuJ56Gqfkl/C+eUNorxXPPgWaFMLDaFqv+rn/DL42tkXqGgquV4Tz/ALsvpwHJVTYKWNhl8TqaWqlZ5qnN/wCy7+TSsNidSMTJWVCo78ISfwJyntXFJk0YnQS6L8b2Yar/AAPnv5RNR6K8e92Fq/wbreNhznuK5jZFsnWR6JMc/wDRqv8AD+u40IdBukXuw0n7Y/OXyJzx9xdOGdJ8HbjbLvz3AXPV5dD2lJUVSeGezGbkntU080lbKXdfPzM+Po66S/1Zr/2lL/nLzx9o84iw4s9Hj6Oukv7BLxqU/wDm+BJH0btJP+pj4dbT/wCbd7ePtc8faaeadZzYR6b/ANGfSf8AZQ/38PqOOePuLxeONCZ1f7pU+L7O1e3sfYWaeqlNLfLz/Q1ttxjQSgdRU1bhft8x46uU+2/mNjlBHYR1apd/mTUdXaXD39g2m3EtjRid5V1cpfly8XkR/u7R4PzfPLJyHEpBHZ/u/T/L7+UHT0DS/KXauI2woyO4hq5R4Bw1YpcByRwo9jvIauUuHPPPF5aBpcES5jg1zz9Q0nz4HbLQNPh7w4as0+HvZORtwziwkdzPVmnw97I46s0+HvY5Jtx1MkTOuer0OAX7vU+feTkbcfYhnA7V6uQ7/NjPViA5Jtw6p88+Aeydk9VYd/v3kc9V49hZkbcpFE9GR0S1VXLJY6qd42jmJsFI6epq0hR1XXHnw3DaOZlAhZ1y1XXEaWrK4+4uxyDYEjrHq1HvHjqzH+Rrk1tx0iKSO4Wq9PvKlbVmHeTkjjWNY7H904cX7bES1Oj+b3DlFcikPY7D9y4fmYX7mw4vv3DnEcbICUDulqfT/veZDitXKa5zLzi6cLIA6SroWPL54ihoCPBl5tac3IVzploKP5Xz9SeGgIflJ8kOLkmOkdhT1Zg+x+ZoYTU6m2ssu3ePkiWOBcR4o9SfRvSe669vPuLNLoupdt/Y+bGfkjDyQTR65PozpcWRrozpcXYfJB5lThkQVJnrFTo8pblfzYFPo3pk+SL2eUKAzPX4dGlPgKPRxS7UPliPH7jRZ7VDo0ocLe363sW4dEtDv87c8+yfLFeG7I+we5Vei+gux+fPiU8RqPStu+Y+WK8eo4dvcr55Fz7E1vWZ6zovVenD8Kb4sfHaBg3dpc885EvV+ybeR9Q+8CVB8PierPQML/dQ37twfYiczbyh02HCg+D8j1n93YrsRLDV+HBe4fI1t45UotZWsRxpN7kz2pas0+1RLNDV2ivwx9w+X7I8NeHfBijhpcH5HvP7Go8I+4GeiKS7I+4ny/Y08J+zPg/Jof7HLg/55fE9weBpcI39g89C0X2R8kT5PsaeGSwsl2MZYV8Ge2vRVHhFE+H0fR4R9tmPl+yPDvscuDBWBk/wv2I9+/ZVD8sPKPPK7ixhsFRXZH3D5fsPnv7BJfha9g60bP8AK/Lnln0tRjQX5PcR1K+H7VT/AOEfN9h4BgdCzv8AdZs19HSdvUe7eezfbsN/cXkiSGJw35o+FzN6l9DxOno6SdrPnnyL2H0fPgz1ivi6H5oe5AU9MYdfij5oxzvpXllXQ8/yvyfPPYU62g5/lfkz1yppyg/xx80TaPq06slGDUnm7Rs8kTnZ9B5Hh9Wakl91+1GNidU6ydtl+xc2PoqGPoxybSfaV6+l6G9uPuHy30PnOtqzW7YS8iWlqhW/I/L6H0hS1hwrX3oPyJqeseG/ND3F+bL0PnCeqtX8j8iOeqNb8j555se/6S1jw1/vx9n6XMiesmHlunHncX5cvRt4hLVeqvwv2co6XCaAqzgtqLusr255Z6UtN4f+0ib2C0rhlS2tuLvuV88u3wF6mXpXjFLVmpe2w8+79C1U1Dnvs13Ho8tccOt0o+zf8Qf31oP8S9xOeXpHmk9Q58LeK5yAlqBU4c85nqH774f8yFLXXDL8at4NGuWXpNx5j/k0rOzSuVq3RxX/ACP2c/X6ew4bpIwq3zXsL2H6VMKu2/kOeXoeF0tQ69/uS9uRJiNRKyX3Xc9mxnSvhX48TMrdJmF4/D6oc8vSdnjr1FrflZJQ1CrP8L55seqLpHw195ah0l4VdvwHPL0vZxWB1AmobnczZ6iVvyt+w9Ro9MOFXh4r58+4jqdMWF4fAcsvQ8xjqPW/K/Ino6i1b7n5HoU+lzC+HHMgfS7hlu/Xnx9w5ZehgYXU2rFPLs7ee8za2oVSV87dzOwqdNFD8vnYz6vS7Q4eT+Vtxf4vSORo9FtVt7vO3yZrUuiqsl2P28ovvpdop3SfwLFPp2pr8I/j+kXu5efQ3iG9yQUOhGu+2Hhd/Sx09Tp6pv8AA/Nfz/mQS6cofl5553mv4/SMX/IXX7HHz+Zbo9AVXtlDw2n8dk0I9PUF+Dz/AECh6Q0fye/9Cf8AUXStT9H+f50vf77IsQ6BZfnXkPP0iY/2fvv9CvP0ieFMn/URbj0IOOe2vK9ufgDiOixds/KK+fb3ozanpBzf9Wvbfn4GVjemyo90UNZq6Sj0W08rv27vcuflq0Oiyjxfmjzn/LJW7EvEjn0wV+5c+wnDO/UelT6MKHf5/oP/AJMcPwfmue48vfSriOJHPpOrv8Q4Z+1erQ6OcP2q77zc0f0bYS2cfNng8ukbEfn9wa6R6/537/hf6F4Zex9CQ6PcIvwrz/UvUNRMH/ZR555zPmaev+I/tGRfv3if7afhtO3x+A+LL2j6ihqnhE/uQ9qQUsJhI/gi/Lh3nyu9ba7/AKyXmQS09Ve+cv4n/K4+C+x9aYbG4aL+7Dyib+G0rgmruNNS71C/sv8AofFP7Tqfml/Ex3jJv8UvMfl/ur7IxOtGFW5Uu77nyyIn0g0FknSXZf1FbnvPjjblxfm/iR9bLi/Mn5eezb7Gl0lUV+Ok14xK0+kjDv8AHTXG0o/U+QdvvH2+/nniX8tPY+up9JVBf11Px21YCPS7RW6tD+JL25HyPsi2R8E9rt9c/wCWWh21ofxLzJf8tVD+3h5/ofIEkIz+Xht9dVem6gt1eHnzmQrp7prdVhz5HydElika/L4m31gun6H9rHwuyOXT9D+1S/2ZfHcfK+0FcfBinJ9TU+nqD/rV/C+cixR9IeivvVP+Gf0+Z8rwTHVMfBibr6y/6RuF/O/4J/QI+Tep5sxjPwQ51lLWip3c/LnIkWt9Xj7iD9lPhz2kctHNdnPPKPa2sy1rqcfcgP3kqcfHL2lb7IN9lHZFyOsVTj7ufiHHT1X8y8inHDjuJFWK2sVX83w+BJhdZZvezPxEcu8raPWZdI6iOnZcvl+8CrpyXHny+pmt88/MF888/SaVf/bk+L5+oX7bnxfvuZ6iPcuhpR03P8z58efk9TWecVe9/EzHMp42eVvkOMStCWudV9qXsJKWtVb8xQ0NoqVSUYxTbbSst+bt+h0WltUZ0ZbNSMoysspKzs1v4k1GFWGtFbivak/kGtaK35l5ArRtyenoV888+0nZdA/eOrxQX7x1OJPHQT4fEtQ0FxMdl0p/vJU4+4Z60VePu7+fIuz0P3c885AvQb4c+4djSt+9tTu9ov3vqcETvQL4DT0A+BOxpD++c+C8iT9+ZEdTQPcQz1fL2NJZa7TfAkWu0jOnoRkVTRL5558y9mdNta6S4BU9cnwXmc7LBMFUGXSyOp/ezu58B/3m7mc1YdSsRrTpI6wXM/Ses0oq9vEq0qnPP6lfSiunz388tpBoYPW5yV7eWZP+9DXYvavp+pyeiVvNLq8i8Yyv1ddZX3IGOvUuC9hzleJAkdJhPQ6qpr2/yr23K1TXRv8ACvM57ZBnEcINaprRJvcuewKGtM1w8jFRbwGG2mlzz3C4xdun0VpmUt68jReJ55uHS0SoPZ7s/LncWpYHuPLa6KCxjJqOmZIuU9HJ9hKtEkSqsdaai4Dy1xq8SytE93eO9DLgVniz3rhV4kb10q93kaUtCoh/YI3E0orXaqJ681ueeblupq3z/Mp4jVxrcXcNFHXmq+3yJoa7VOL8zInologqYZ8PdwL2NOmjrZV48/qSx1rq/m95ysWySFRomjTqVrHUf4g1pyT/ABHOU6xIsRb+ZnSadHHSsuLCli5PtZhUMaX6OMJo0y9asZVhHajJrjbxMzQGs9WUXebuuJs62Y1OjJLe7JHJ6r0LbV+7nx+p1x8JR4zWyrf7zy7L5EL1trfmfmZ+k1678SukduM9Eja/e+t+Z+f8gZa21X+J+bMiw1hqK14601fzPzJamtVVv7z9hiRDSJcYR0NDTNV5KTu+8p4vWOqnbbeXPuNrUDR3WVIxtdpp248UHrNq49uTtb1nY59pdNacs9YKn5n43AjrDV/O/N8o0Hq43uWfsKNfQUl+Fm5pixFLT1T8782C9Mz/ADSz72yH7I+A88I+BvSpnpyp+d+YD0zU/M/NkccK32DzwrXYNQ0OWm6n535sCemKn5n5sFYckoYdNmexoEtL1Pzy82RvSE/zPzZLisI4u1vp4kEaYTSWnjpfmfmfQXom4farYipLNU8PLLvcZZ8/y+eoUWs7ZcbH0v6LlJRwukZv7ypxUey14vPvvnl+hx6v6asc7pPEbVSeeW3LyuzB05o9yTze7juL2ETbfj/M2ngNpewzI5PCcbXnTlbafmyH9qza+8/M7bXrV2y2ks+04SGEZ6ZptvapaPlWnKO01Lq5ST71uvvy7TPwtSd7N53z35M1tUtMKhKUmrycHGL72iGnhW25Ptzz78xVVatSayuwY6QqJWUnbhd2zv2BVK2fuChiyyLpXjiZcWPKvLiWZVovsGdKPEppXjWfFhyxEuLE6Zo4PQMppuKT2Vdq6T9ie+xE0yXVfEW0+8sVcLZ5q3z8OX8QNkaNBVR8edwnUDUBtkGkbqvlgtsndMbqxpdIHcdIlVMPqgIR4pkqphSgBA4i2SxsC2QK7HRKohRjv9w0IbCsSuAziACEoBhKAEagKMSXYFYGkTiPYmUBmuefkSmgWFskthWIoVEKwaiPsA0iUR9kmSH2SIhUQtkk2B+rKHpURTpWCjkS1cS3vzGxWTJY4gFREqPPPAuwf2tkbm/5Eiw7JI4cuxWUCSNAtfZueefcSQp887hsVFS555Y2wW3R58WJUOecibFLZBLzwYP2UgqwXPPxDhAtPCc+wOGGAerQgoqzbnvll6qfYl2t233+RBJE86BI8KE0r0mSdb3FzCYL2/yHr4FN/IIobfhz7Ryz9j5sEBXWsEeVz8wo6w03vXbwMxalz/NH2O/yQ/7kS/MveV1aUtIwe63Hd7ypWxceAeH1LkvxL2p2Hlqc+2ovJ889xBn1cZHsIJ4vnnzNipqP/wB4vL4Ea1Yit7bLsZGHhtN8CSnhLO/YalaCWS3Ls48/TgUatVLngWAZLnn9PiMytLFoZYxE0LTXPPaDcg+1ITxKKiZyKuKQfXoGUrmh0PRzp9UK9OpZNxnGSvxTv8uB7L0363LHVI4iMYx/o4wcY918++V3m/A+dYzsdJonWB22Xu5/TlnLLH6o1cPirO1jTekoLfYqYfQ6nntWfORDX1Qk/wAa+fu7DC7X4axU+KXi/oHLWilx8kc+9TH2TXtIVqXL8y9nAvE26iOs9HngSQ1qpdjOWp6kS/P7v1HepM/zry+o4xdusqa2Uv5gw1gpS7Ucm9Qqj/HHt7fK6Do6gVPzx9jzHBduqq6SprtXciFaWpnPy6P6nZNe9jLUat+ePvJxR1X7RpPtQfX0LZte446pqZX4rxu94K1Nr7rxf+0/dl9BxVuYuNF7mjNxFKC/EvNFV6mVu72MjqalV32J7+3n4lRJKMOPuB+yLfkBDUevwS8WvgW/3Rr2tlbx+OXPmBluokVJwdR7K3dp0ENR59slz72atLQ0KUd+fF2+f6mojlYYPZyQdy3pCqrmTicWuefeakSqddEKiHKoDc6IZxIKiJ5EdQCvI7/oZ0LCti6UKn+b247VuF8+ew4KUTa1W0w6U9pOz5t7SXwPq30q+juhha1GphYrqp0v6RKV0pxaV+N5JrJvs8TwmjpNHbU+k6Naj1dR7Tas3J3aVsrX3Z583PPNJ6HSb2ZZPs558Tycb9XVsUdLR554l1aah3HCvRc+yS3+HyE9CT/OveTgPQqOl6Xa15kFfTFPsZwi0BP8y9/P8uwf92pfmVvHPyHE27mGmKVvvK40dN0/zI4f9gv8695Zp6Cyttr2J8+BeKbdXiNZafFcMypU1hp8TnP3eV/vksdW4ds37OUNI06mm6T7eeewjek6XHPwMurqxBfiftS3eIE9WI/mfu+BdJprSx1LufDnsMzEY6n2PK/eR/sBfnfsEtX48eeeWFA8dDjz7RLGx5z8g6er0eLJXoWPa8iBfaIWunz3FDFaWte27wNKnoKD7WamE0Jh1nNuT8cv5AcroehOtLPOCz7r8+RpTxEIbW7dzz2m7pXWWlGNoW3bkjzbH1nKTfZwN4zbKtXqXbfFhKmKnQJ1QOyK7iPYm6kaNICKKDp0w1TJKVMK9W9GDGwhpKj1kYzhe2zJXTbTV88rxedn2X9n0F6TXRLHD11XpRToVoqbUFeMJZKW7cpPPhe58caHxkqc4zi7OMlJNZWaaa957tHp+rV4RjVe0lHZabuu/wAL+B5Ophd7jW+zlas6UX2W42+NzOxekaTb4eDyfPvNfHYyhN32Ur8Hl5GfKNDlmIjnJ16d72y719QsVVptK8d3dn7vabmzht/wYClh+xX9ptWHSnSt9xIGUqV8ory+PYdGqeHfYvh8wupw/Bey4HLVK1O/3E/Z8ivSp09q+z2+Z2KpYfhf3AbGH7Evb/K/hYJtR0hpGjKy2Fus8k+bc7zOhg4O9o9l925c7v5HRU1h+BNQxdBX4DRth6Jw9CUZqpBO99lq6cX2Nbru6zRe1U1u+zQlCH4t6Xba7V/Bl+rjaHBc8cirF4e/3V5vnyIjP/fJfltdt5ee62XPcTYTXuz3Zc87jRnWw35Y+V/ePPFYb8iv2mmdMTTGn1Psy58jmsRgVm7WO+jpCh+Vexfy5RmaT0nBr1UuefgblajldGarubTeUU7tsn1lrxVox7Mg8Vpl2eZhVIOWZ0grJAOJbVEkVJGxnqIUYl7q0C6YNoIwLWAxsovJ93sAsKxQq9bazZDsk6phqBAej5LtV+f5BY6muzm3PfuI4RHkyqq7AzgWdgJQXEhpUUSTYLPVjqxTSpGA/VluMEPsIGlN0+ef1HVMvRiiWLigMvqg4UGaMnT4+7L2d/uGWzxCs+WHF1BpRsH6oRmRw/cSrCGhdIGeOigqg8MN9k558y7PSMBlj4kFZYVieDZZek48+8daUXAgqPCMUcIy5+1I82GelI8OefiQQLCPhzzzwNYRj/tju55yH/bPdygHWDHWC55/QD9rvgEtL88sM1LHBDvBc/oQx0oO9Jvn+duVmETLA8/yuF9kKcsfLiR/bHxA1IYdB9QuHPPPHJeNfHw7hSxz4sDXWG557A44Qw/tz4jrGvi/MDoFgefjz+pA6djHeOfF+e4inim/0A3HDwH2O/nnntMDrGJ1XxYG80M4rjzz8/Zh7TJ6GJtvA1Ni3bz4eI9Oov03mbKu2Cv1A13Jc8/QPDSu+4y41XzzvL2BauuF88+exbwNRuyK23zz9ShVxjvbv/QijUfEiaafW88xHMzrXx94iaNEtOBft7vON+1sb7Yzrxb27da0PuI5axPu54dhxaxbBeJY0bdfPT3eVamnOJzPWsFyLMTbaxGmL7ihUr3KqYnIukTuQ20RRBbNaRZSEpFe4nIaFnrR4ViskONKtupcUZWKikP1hNI6fRWlZLPa59u8sy0/LizmKGLsWVjlzzz5k4jbqayzI5a3T7vI52pi7kPWFmKbdP8AvnU7vL9efMeGuMzllVHdcvGG3Xw11nz9Q1rnM43rx1XGobdnHXSfEkhrxP295wyxDDhi2OM9G3b/AL7z7Q468vgjhXixfa2TjPSu7fSBLh5fqPDpDnwOBWKYTxjHGLt3UukGfBe8jqa/T7vYufecQ8SxliCcIbrrpa6T7ue3MzcRpiUvvSb8fpx7zD69jdeOKbak8WQTmUXJjxmXSbW3MkpyKO2N1xdLteciOU0VJTG2iC5tc8/EOCKDmHTrFsTbYw+Ma7fgaENKt9r58znY1AutMWOm3RrSbXbzz3AvS74nPLFsKOMJxNt/9sy4kctKyb38/Aw3ih440nA26CnpKVt5M8fx+Zzq0kxS0iy8Dboft742+ZDU0q+PPPLMCWMYDxjJwTbeqaXlxG/a8uJhrHhRxr7dw4Lttx0wwoaYfPPPx514tjfaXzzz5jgbdR+1nx9mfZb4/XcRvS7+HO/2GDhsRv7ldd7InjGOBtvPSsuJWqaRdt5kfaWM6g4s7XZV+LBdVFLrBlMuhfWJQ8cWjPCsNIvfbUMsWUWxOQ0LzxKFHElBTFtF0NWGMRbo6UsYG2LrCaXbpVpfv54AvSbb9hz0ao/WszxNugePB+3GGpsdVGTiN1aUJFpfnnn5YCqjqoOI3XpXnn68QlpRc883MCVQZVBxR0kNKrn4BvS64+RzDmMpjgOojpePPPPtGlpWP6nMbY/XDgOjek1z3c9g37SXLOc60frhxHR/tFENTSnPgYSrjdYOJter4q7+RHHGFXaCSNKnlX+QvtDILDplVL1jF1neRtguYEvXD9eV9oSkEXI1x1WKcZjqYFp1hnXK+0KUwJ+vYPXMi6wW2BMqzC+0shix1ICV4hjOuyNyGcgJVVfO4EBSJFIKk6wko1uJVbGchsW51wVVKu0JVBsW+sAbIVXGdQCZsBsDbE6oRKmFcguJSCrFhXAVUdVADY6InXHVQCbZFFESqg9YBZQ+yVetHVcG1iQ1yF1RnWAsIW0V+sC6wiJLjqREpg9YETMdMi2hKRkWEwkVlMZVALaFGZVVUPbAtRrCVRFTaDuFaeHq888+RJGpZ3M1Yns8+I6rc7gaa+Nwvat0s/Pj3rcQxXPPaBRrNpLs5bJo0wg9hc/zGC2Hw944TTz3aHsRpjpnVRyGGuOih7j2GFcocTY1xXAe47YLFtAGhwHISkUGNcBMVwHchKQyRNCmBGpjuYc0iBxAK420CNcMnbHbBTE2AVwoojch7gTTRGmBtMdBRpiuM0JsLs9x7AXFcGxMQKHCbFcTB2htsIkuLaI1ISmAchtoFzGRBKpCsRJDgFccATYB7Y+2RXHUgJOsFtkYpA2k2xlMBggT9YC6hHtBbRLTY9sW0A2LaGxJca4KkM5Gge0K4O0NtAS052ATBUxXICUhSkNYBmV2MNSIbhphR7Q+2RqLEosCRyGbG2XwE0wEMLq3wF1b4DabJMfaH6pjrDvgwobj7Q7w74CVOVrW793dxIBcwlUF9mfAZ4V8BsP1w/WArCPgH9kfAgJTE6o9LAS4c+If7OkUQ9aJzJ6OipN2tn382CloWY2K3WDOZaehp8Bloaf5WNoqKoOpl2Gr0+Hnlckhq5MnKDP2xusNT93Z8odaty5Q5RWb1g/WmktWJkv7oz7/ACJygyHVB6w246nz7/IX7pSHKDCdUXWnQR1Mlx9zJI6kS4/MvKDnetHjVOlWo0uPu55uGtQ5fzJyiuZUx1M6T9xJ83GlqPJdvuJyg5zbBcjo1qZIj/dGX8kOUHPuoD1h0sdUnwfPuJI6nvgOUNOZjWHdc66nqT3c88CytSP7pOUHD9eD1h30NRu73eZLPUf+6OUNPPVUZJGqzvVqH/dfkFT1EfZH3c8+I5xdOA60F1D0enqHL8j8ieGoE/yPy+o5w08zTfBhdU+D8j1ajqDP8vkXKeokvysnOJp486EuD8h1h3wdz2un0fP8jLVLo3l+UnyRdPDY4aXAJYOXA90fRfJ/h5yJYdFEvyk+SGnhtPRU32E61fqcPM92o9F8uHnbnnxLcei+fcuJPlXT5/Wr9TgS/u3U4Hv1Loyn3c5k0ejJ9rRn5TjXz3+7EySOqc+4+iqfRRf8S80TLoqj+deX6j5U1Xzl+6E+PkWIamvtfuZ9DLo0prfP3JfMKHRzS7Ze9fQny00+eZanf3n5c/Anp6kd7+HyPoePR5h1vlz8SaOo+F/N8SfKunzk9Su9+4aWqa7+f0PpBamYX8/mO9VMLxT8h8xp83Q1W7i1HVNcPifRVPVLCd3mSvV3CLv55/Unyrp83fupHg/C7Joaox/L8T6MjoTB8Fz4E0dB4T8t/BfqkPlTi+dIapR/Lz3h/uivy+659GPRmDW+K8l9d4o4PB9kfZf9fgZ+Spwr50lqgvye587xU9T1+Tln0dHC4X8qCjQwq4eA+SnF87LU+P5CxHV9WtsZf4T6EUsL+WPjkdFPG6J2V/RVduy2r1acY3s+C3e1F+SrxfLMdVV+T3foL91l+T3H0Xi8Tgb+rTWzfc53l/Ei/T0/oxLOgm++vs/BfF/EnyHF82UtWIr8C8iytVf7n/CfQGN1gwDXqU6cOy/XbVvG9jLnp/Cr8VNf7cfhcfJfouni0NU/7n/D2FmOpz/K/I9bWuuE/PT/AI4/UT16wn9pT/iRnnl6XjHkf7pP8n/C/oOetf5QMJ/aQETnl6XjPb4oWCH+xncLVqH5/d49/v8AiHHVynx959HbnpwiwY/2U7t6qw/MNHVqnxy9g5GnC/ZBfZTvXoGlxXPPNgXoCnxsuf0G1cL9iJqejLnaLVyn+Ymp6FprfJF2OKnofnnnMD9lnfvRlPiuA0dH0uK936/W3uuxwkNFBLRS4HdywVLiubhwwVLihtHCQ0dHsXx/Ud6NXD4nevCUu7n39vAL7PR7ichwS0ahp4FHoCVDuCjGhwj5InIed/spDLRPjzz+p6RtUd1l5DKpQ4InJl5wtFrh/IdaLR6Q8VR4Ls7xljKPBeReY83/AGTHgDLRq4HpMsTh/wAsfJc89olicP3eVvkOZp5otGd30E9E9x6j12H4L3fzB2sP3c883JzHlr0YGsBfs55R6mqmH4R9zC6/D8F5c9o5Dyp6K7uefkEtELvPUevw3Be8UsZhuC8rl5fZHl37IXPPsHehu49OjjcPyvpvDVTD8F71+g5/YeXrQviF+774HpzqYfu99+eeA/2uhyueUOf2Hl37A4pjy0Cu/wAj1HraHBc8+4d1MP3eOZPk+yvLP2DzYJau87j1BPD9wUY4fh8bk530PK3oNLsF+yFwPVHDD93vQlGh2pfH+ROY8q/ZC7+eebArQ56x12H4Lydv08QdvD8F5c9hef2NPLI6AC/d5nqfWUeHPsDVTD+HsZOZp5R+7rF+7r4M9X6yhyrfqO8RR/mXmPKZaAAegGesRrUOC572Oq1DghzqPJ1oMJaDXBnrMatDhEKONocF7ET5PsryeOry4Cer3cetLGYf8q8l9GPLSeH4Ly5+ROdNPJ46v82JYavd3u+nceoLS9D8vuHWm6O7ZXtXPNhzpp5itWe74hfuv3Hpj0xR37K8rj/vFR/Lcz8lXs8xWrP933E0NV1+V88956jhta6aecF7vobOG6QqC304PxX6E+TImnjsdVF+V+NhS1P7vJHsOM6QqEk/6OPds25/kc9W1rpt/cXs7xzyXUefPUzhcN6lvg/Lnid7DW2lwt3EsdbafD4Dlkaedx1NfD6k0NT3+X3Pn+R6EtaKfcJa2U+CHLJnTglqf/dJIanf3fc/pz3HdPW+nwXPPEf98qfcxyppwsNS5fl936BLUp/lflyjt464x4LzDWuEe72PIvKrY4qOo7f4X5MKOoT/ACv2o7enrhEKeuy7vMzuppxf7h/3e7cFHUN8Dqp67R7vMCOvMe4bquanqI+A1PUN8H5HUz12j3eZFLXaPFeNyd0YVPo9k+znnx+ktLouk3ZfRebNqOvMfzIkp6+R/Ml2b0O6sNdG73WXeDLo8fDnnnjty14X5lz3kctdl+ZDuKFPUDuJ/wDJzlu+BJ+/i/MueeexPpES/Eh3RHT6P3w8yRagvtXPPO4N9I0fzL3Fap0ir83PmNVey7DUH4/Asw1E55+hkS6Sf73kVpdI3f5c/QcckdB+4nh7h1qL3o59dJHGQ3+UWP5nf49yJxq9nTQ1BXENaipfiXuOTh0kri/JhVekFP8AE+e7tJxo6qOo8eKLC1Tiu04uPSGuNx59Ivj7O0cartVqlHiglqjDtlE4GXSCu/n3EdTX9d655fuHGnZ6JDVSlxXu+GRJ+7NP8yPMH0gAVOkN8PeXjR6ktXaX5l5jw0BS4r2s8j/yhS4e9hf5RJcPeOFNvXVoClx94o6BodrR5C+kObI3r9McKPZlq5Q4oN6vUF2ni/7/AE+WBLX2px4F4VXtdPRFBcCT7Jh12I8P/fmrx+hBV1zq/m8rL4E+Oj36lhMO9yXPPNhOnh12I+ff3xq/mGeuNV/ifmX4x9BxxdBdnPtFHSNHgvcfPEtaav5mAtY6n52X4/uj6MjpWlwXu/mSft+klujb2Hzc9Oz/ADPzBel5/mfncfH91fRq1vpcI38EPPXan/dt7D5s/ak+JJ+2ZNb35883J8a7fRK17pcY+aGl0iU+K55zPnJ46XETxbHxm30bLpMpLtiirU6VKf5l7Lc+Z89fanxInMvCI+g59L9Ndq9xWl0yQXb7DwRsSY+OG3uVTpoj2MgfTD3vnm54vCZZpYkvxxdvXJ9L/jzzzkUK/TD4+Z5vORUlHnn9C8J6Hpb6ZJcH5il00y7Iebfy+p5jJC59o4RHoc+mWs/wxXtZBU6XqvBHCDDjB2z6W6/93+H9SGp0o4h/it7DklEfZLxnodJPpDr/AJvdz7yGWvdf8/kYaQ0kXjPQ2569Yj+0aIamuWI/tZe76GTcYcZ6Gk9bMR/az8+8S1nr/wBpLzMwSLxg0v3irf2kv4n5ZAz1grf2k/4myin9BmuefAaFp6arf2k/4n9RT0vUe+pL+J/UqoQ0LUtJT/NK/e2/mRTxs3m5Sv4tP4gNc88+8ZoaDTry/NLzY6ry/M/a382DJDpASrES/M/Mh2+f1JlAZ0yAYsKMR0hyh9l82ENbnlDk0BjpV/QZ6QfPyXPYVlEdSOgsfb39RLHsglnz5g7JNC39tfEFaQKu1zz7AWUXHj+biliymPEotvEDxrlNv5DuoNC2sXzuB+3MqqqEpc88+BRYWPY/21ldSH59wFh4wF4ohfPPYMnz3E0JvtT55yHVcguOvoNJpP8AamO8ayCLE+fpz/PJocsWDDEsCZHGYF2Mx0yOEiRS55+ZWUsJdxJCRCmSRYRN1gzYKYdggWwdkksKLCAS553DtkiY3PPiFgUJDtc88+Q757yBtkawdxX+RQLqc+QG2K4yJpdjVZilXYNgWNGzvFsB6RkC0RMaEktJshlpSXF8+4iqEU0Uqd498RvtzKzYm+e0qLX7SlxFLSzKj594MmBc/azBWl3zv5sUQGhoXZ6SlxBekZcWVhmXTS6tLS4jPS8uJSbBUyaZ2u/tKXEOGPlxZo6B0PCp96Sj488OcmXtNaKoUslNynbs3IaViPSEuLQH7QfEr1a5XdQaRf8A2iwZaQfLKbqD7Q0bW/tr4885BRxzKVx7lXa28c+efkD9sfEqtiuBO8U+IH2p8X7wEE4BRxxkuIX218X5si2QRoT/AG6XHn59nKBeLk+1+YCGZNJobrvvGVdkbEmQ0kVUdVSFjxmRUvXPiJ1GR3HuAbmJ1AGxpFB9YNcaEg0gEmJBpErpdoEMUPY0NF6M2ru+UVfzKV/iAKCfPLGY20QE5i6wGUgNoolTGZGpCjUM6EmyRsTmC5F0CY6QG0Epc7wC2RrEqqImhKNs737BpVWKHuPVa7CPbGgSFcHaEpDS7FcSA2x9ooNsdEe2FcArBMjHTAIHZHCUiGisK4pMZk0FcSBchXKJFLndz2CfPgCnz/II1pTElICxLTIJakyGTDZHIB7isNGY5mhXEpgOQr888/KCbnnnyFci2h1ICRMa4PWC2ignIbaGTGuNglzzz2cB0wBxsEJyGuNcbD2HcgUNcbB3EpApkkY88BsDJCQQ1gLmCkrpSdlnna+dsu3t3AVmru17dngQcHz9ee4kjIgSQShuBkKFUCTYHF9rXd5L6CAzE+faFFDiNgX2AyY4ihJjSl8hhANcN8+76iEIBb58vqC5c+QwgG2ufaFGQwiA4SHTHEAkhKQhBBX59gkOIEOpCQQgqBsHaHEGUtMNT58BCKVLFbvPnzJNsYQqVMv0DUhxGWToccRUBFi2ufaIQB2GT558QRBRJjXGEADQ20MIAnz52A2/mOIAEyOQwgIpxIKkhxABIHn3iEVAgp/EYRVDIZ8+4QgHTFFjCDRNgMQjTIqWKaeQVSu283cYQEMqnzGbGEASYa3CEZBC2hxBAtiYwg3DwkSXHEA7AvvCEALYLl8xxEAIZyHEQPIZSEIBRYYhAMmOIQCJKcxxAWIRCq4jK3vBEUApu2/fv782s+e0DtHEQMC2IQDOQLY4gGkxrjCAeDFIYQDxfyGc/mIQD7QoVAhAEIQgG2hXGEAmxJCEAzkHF/UQgDivmJiEFOg0xhGCGbBQhAKTHgMI1ESJhJDCK0Jc8+wkSEIKSQ00OICGMiTn3DCM0RSmKLEIgeK+AUBhAPEZMQiwOJMYRpBpCiIQUkPt7hhBBbIIhAPFhqdvIYQUd/er+8WyMIgYdT59ohGQTfwvz5iivmOIABCEB//Z;clipPath=inset(10.44% 38% 22.45% 11.33%);" vertex="1" parent="1">
          <mxGeometry x="365" y="60" width="216.45" height="215" as="geometry" />
        </mxCell>
        <mxCell id="Ya-Gv7zuva_r2_n2X0PA-57" value="" style="rounded=0;whiteSpace=wrap;html=1;" vertex="1" parent="1">
          <mxGeometry x="240" y="400" width="120" height="170" as="geometry" />
        </mxCell>
        <mxCell id="Ya-Gv7zuva_r2_n2X0PA-58" value="" style="rounded=0;whiteSpace=wrap;html=1;" vertex="1" parent="1">
          <mxGeometry x="295" y="570" width="10" height="30" as="geometry" />
        </mxCell>
        <mxCell id="Ya-Gv7zuva_r2_n2X0PA-59" value="P1" style="rounded=0;whiteSpace=wrap;html=1;fillColor=#e1d5e7;strokeColor=#9673a6;" vertex="1" parent="1">
          <mxGeometry x="320" y="550" width="30" height="10" as="geometry" />
        </mxCell>
        <mxCell id="Ya-Gv7zuva_r2_n2X0PA-60" value="1" style="rounded=0;whiteSpace=wrap;html=1;fillColor=#e1d5e7;strokeColor=#9673a6;" vertex="1" parent="1">
          <mxGeometry x="250" y="550" width="30" height="10" as="geometry" />
        </mxCell>
        <mxCell id="Ya-Gv7zuva_r2_n2X0PA-61" value="P2" style="rounded=0;whiteSpace=wrap;html=1;fillColor=#e1d5e7;strokeColor=#9673a6;" vertex="1" parent="1">
          <mxGeometry x="320" y="530" width="30" height="10" as="geometry" />
        </mxCell>
        <mxCell id="Ya-Gv7zuva_r2_n2X0PA-62" value="2" style="rounded=0;whiteSpace=wrap;html=1;fillColor=#e1d5e7;strokeColor=#9673a6;" vertex="1" parent="1">
          <mxGeometry x="250" y="530" width="30" height="10" as="geometry" />
        </mxCell>
        <mxCell id="Ya-Gv7zuva_r2_n2X0PA-63" value="P3" style="rounded=0;whiteSpace=wrap;html=1;fillColor=#e1d5e7;strokeColor=#9673a6;" vertex="1" parent="1">
          <mxGeometry x="320" y="510" width="30" height="10" as="geometry" />
        </mxCell>
        <mxCell id="Ya-Gv7zuva_r2_n2X0PA-64" value="P4" style="rounded=0;whiteSpace=wrap;html=1;fillColor=#e1d5e7;strokeColor=#9673a6;" vertex="1" parent="1">
          <mxGeometry x="320" y="490" width="30" height="10" as="geometry" />
        </mxCell>
        <mxCell id="Ya-Gv7zuva_r2_n2X0PA-65" value="P5" style="rounded=0;whiteSpace=wrap;html=1;fillColor=#e1d5e7;strokeColor=#9673a6;" vertex="1" parent="1">
          <mxGeometry x="320" y="470" width="30" height="10" as="geometry" />
        </mxCell>
        <mxCell id="Ya-Gv7zuva_r2_n2X0PA-66" value="P6" style="rounded=0;whiteSpace=wrap;html=1;fillColor=#e1d5e7;strokeColor=#9673a6;" vertex="1" parent="1">
          <mxGeometry x="320" y="450" width="30" height="10" as="geometry" />
        </mxCell>
        <mxCell id="Ya-Gv7zuva_r2_n2X0PA-67" value="3" style="rounded=0;whiteSpace=wrap;html=1;fillColor=#e1d5e7;strokeColor=#9673a6;" vertex="1" parent="1">
          <mxGeometry x="250" y="510" width="30" height="10" as="geometry" />
        </mxCell>
        <mxCell id="Ya-Gv7zuva_r2_n2X0PA-68" value="4" style="rounded=0;whiteSpace=wrap;html=1;fillColor=#e1d5e7;strokeColor=#9673a6;" vertex="1" parent="1">
          <mxGeometry x="250" y="490" width="30" height="10" as="geometry" />
        </mxCell>
        <mxCell id="Ya-Gv7zuva_r2_n2X0PA-69" value="5" style="rounded=0;whiteSpace=wrap;html=1;fillColor=#e1d5e7;strokeColor=#9673a6;" vertex="1" parent="1">
          <mxGeometry x="250" y="470" width="30" height="10" as="geometry" />
        </mxCell>
        <mxCell id="Ya-Gv7zuva_r2_n2X0PA-70" value="6" style="rounded=0;whiteSpace=wrap;html=1;fillColor=#e1d5e7;strokeColor=#9673a6;" vertex="1" parent="1">
          <mxGeometry x="250" y="450" width="30" height="10" as="geometry" />
        </mxCell>
        <mxCell id="Ya-Gv7zuva_r2_n2X0PA-71" value="" style="endArrow=none;html=1;rounded=0;fillColor=#e1d5e7;strokeColor=#9673a6;" edge="1" parent="1">
          <mxGeometry width="50" height="50" relative="1" as="geometry">
            <mxPoint x="334.93" y="460" as="sourcePoint" />
            <mxPoint x="334.93" y="460" as="targetPoint" />
            <Array as="points">
              <mxPoint x="334.93" y="470" />
            </Array>
          </mxGeometry>
        </mxCell>
        <mxCell id="Ya-Gv7zuva_r2_n2X0PA-72" value="" style="endArrow=none;html=1;rounded=0;fillColor=#e1d5e7;strokeColor=#9673a6;" edge="1" parent="1">
          <mxGeometry width="50" height="50" relative="1" as="geometry">
            <mxPoint x="334.93" y="520" as="sourcePoint" />
            <mxPoint x="334.93" y="520" as="targetPoint" />
            <Array as="points">
              <mxPoint x="334.93" y="530" />
            </Array>
          </mxGeometry>
        </mxCell>
        <mxCell id="Ya-Gv7zuva_r2_n2X0PA-73" value="" style="endArrow=none;html=1;rounded=0;fillColor=#e1d5e7;strokeColor=#9673a6;" edge="1" parent="1">
          <mxGeometry width="50" height="50" relative="1" as="geometry">
            <mxPoint x="334.93" y="500" as="sourcePoint" />
            <mxPoint x="334.93" y="500" as="targetPoint" />
            <Array as="points">
              <mxPoint x="334.93" y="510" />
            </Array>
          </mxGeometry>
        </mxCell>
        <mxCell id="Ya-Gv7zuva_r2_n2X0PA-74" value="Step 1 - Unknown" style="text;html=1;align=center;verticalAlign=middle;resizable=0;points=[];autosize=1;strokeColor=#b85450;fillColor=#f8cecc;" vertex="1" parent="1">
          <mxGeometry x="240" y="360" width="120" height="30" as="geometry" />
        </mxCell>
        <mxCell id="Ya-Gv7zuva_r2_n2X0PA-75" value="Step 1 - Unknown" style="text;html=1;strokeColor=#b85450;fillColor=#f8cecc;align=center;verticalAlign=middle;whiteSpace=wrap;rounded=0;" vertex="1" parent="1">
          <mxGeometry x="550" y="110" width="120" height="30" as="geometry" />
        </mxCell>
        <mxCell id="Ya-Gv7zuva_r2_n2X0PA-76" value="Step 2 - Up&amp;amp;Down&amp;amp;Fan" style="text;html=1;strokeColor=#b85450;fillColor=#f8cecc;align=center;verticalAlign=middle;whiteSpace=wrap;rounded=0;" vertex="1" parent="1">
          <mxGeometry x="560" y="180" width="120" height="30" as="geometry" />
        </mxCell>
        <mxCell id="Ya-Gv7zuva_r2_n2X0PA-77" value="Step 3 - Up&amp;amp;Down" style="text;html=1;strokeColor=#b85450;fillColor=#f8cecc;align=center;verticalAlign=middle;whiteSpace=wrap;rounded=0;" vertex="1" parent="1">
          <mxGeometry x="490" y="260" width="120" height="30" as="geometry" />
        </mxCell>
        <mxCell id="Ya-Gv7zuva_r2_n2X0PA-78" value="Step 4 - Up" style="text;html=1;strokeColor=#b85450;fillColor=#f8cecc;align=center;verticalAlign=middle;whiteSpace=wrap;rounded=0;" vertex="1" parent="1">
          <mxGeometry x="320" y="260" width="120" height="30" as="geometry" />
        </mxCell>
        <mxCell id="Ya-Gv7zuva_r2_n2X0PA-79" value="Step 5 - Down" style="text;html=1;strokeColor=#b85450;fillColor=#f8cecc;align=center;verticalAlign=middle;whiteSpace=wrap;rounded=0;" vertex="1" parent="1">
          <mxGeometry x="250" y="180" width="120" height="30" as="geometry" />
        </mxCell>
        <mxCell id="Ya-Gv7zuva_r2_n2X0PA-80" value="Step 6 - Up2" style="text;html=1;strokeColor=#b85450;fillColor=#f8cecc;align=center;verticalAlign=middle;whiteSpace=wrap;rounded=0;" vertex="1" parent="1">
          <mxGeometry x="260" y="110" width="120" height="30" as="geometry" />
        </mxCell>
        <mxCell id="Ya-Gv7zuva_r2_n2X0PA-81" value="Step 0 - Closed" style="text;html=1;strokeColor=#b85450;fillColor=#f8cecc;align=center;verticalAlign=middle;whiteSpace=wrap;rounded=0;" vertex="1" parent="1">
          <mxGeometry x="405" y="30" width="120" height="30" as="geometry" />
        </mxCell>
        <mxCell id="Ya-Gv7zuva_r2_n2X0PA-84" value="" style="endArrow=none;html=1;rounded=0;fillColor=#f8cecc;strokeColor=#b85450;" edge="1" parent="1">
          <mxGeometry width="50" height="50" relative="1" as="geometry">
            <mxPoint x="320" y="554.86" as="sourcePoint" />
            <mxPoint x="280" y="554.86" as="targetPoint" />
          </mxGeometry>
        </mxCell>
        <mxCell id="Ya-Gv7zuva_r2_n2X0PA-85" value="" style="endArrow=none;html=1;rounded=0;fillColor=#f8cecc;strokeColor=#b85450;" edge="1" parent="1">
          <mxGeometry width="50" height="50" relative="1" as="geometry">
            <mxPoint x="320" y="670" as="sourcePoint" />
            <mxPoint x="280" y="670" as="targetPoint" />
          </mxGeometry>
        </mxCell>
        <mxCell id="Ya-Gv7zuva_r2_n2X0PA-86" value="" style="endArrow=none;html=1;rounded=0;fillColor=#f8cecc;strokeColor=#b85450;" edge="1" parent="1">
          <mxGeometry width="50" height="50" relative="1" as="geometry">
            <mxPoint x="320" y="474.86" as="sourcePoint" />
            <mxPoint x="280" y="474.86" as="targetPoint" />
          </mxGeometry>
        </mxCell>
        <mxCell id="Ya-Gv7zuva_r2_n2X0PA-87" value="" style="rounded=0;whiteSpace=wrap;html=1;movable=0;resizable=0;rotatable=0;deletable=0;editable=0;locked=1;connectable=0;" vertex="1" parent="1">
          <mxGeometry x="400" y="400" width="120" height="170" as="geometry" />
        </mxCell>
        <mxCell id="Ya-Gv7zuva_r2_n2X0PA-88" value="" style="rounded=0;whiteSpace=wrap;html=1;" vertex="1" parent="1">
          <mxGeometry x="455" y="570" width="10" height="30" as="geometry" />
        </mxCell>
        <mxCell id="Ya-Gv7zuva_r2_n2X0PA-89" value="P1" style="rounded=0;whiteSpace=wrap;html=1;fillColor=#e1d5e7;strokeColor=#9673a6;" vertex="1" parent="1">
          <mxGeometry x="480" y="550" width="30" height="10" as="geometry" />
        </mxCell>
        <mxCell id="Ya-Gv7zuva_r2_n2X0PA-90" value="1" style="rounded=0;whiteSpace=wrap;html=1;fillColor=#e1d5e7;strokeColor=#9673a6;" vertex="1" parent="1">
          <mxGeometry x="410" y="550" width="30" height="10" as="geometry" />
        </mxCell>
        <mxCell id="Ya-Gv7zuva_r2_n2X0PA-91" value="P2" style="rounded=0;whiteSpace=wrap;html=1;fillColor=#e1d5e7;strokeColor=#9673a6;" vertex="1" parent="1">
          <mxGeometry x="480" y="530" width="30" height="10" as="geometry" />
        </mxCell>
        <mxCell id="Ya-Gv7zuva_r2_n2X0PA-92" value="2" style="rounded=0;whiteSpace=wrap;html=1;fillColor=#e1d5e7;strokeColor=#9673a6;" vertex="1" parent="1">
          <mxGeometry x="410" y="530" width="30" height="10" as="geometry" />
        </mxCell>
        <mxCell id="Ya-Gv7zuva_r2_n2X0PA-93" value="P3" style="rounded=0;whiteSpace=wrap;html=1;fillColor=#e1d5e7;strokeColor=#9673a6;" vertex="1" parent="1">
          <mxGeometry x="480" y="510" width="30" height="10" as="geometry" />
        </mxCell>
        <mxCell id="Ya-Gv7zuva_r2_n2X0PA-94" value="P4" style="rounded=0;whiteSpace=wrap;html=1;fillColor=#e1d5e7;strokeColor=#9673a6;" vertex="1" parent="1">
          <mxGeometry x="480" y="490" width="30" height="10" as="geometry" />
        </mxCell>
        <mxCell id="Ya-Gv7zuva_r2_n2X0PA-95" value="P5" style="rounded=0;whiteSpace=wrap;html=1;fillColor=#e1d5e7;strokeColor=#9673a6;" vertex="1" parent="1">
          <mxGeometry x="480" y="470" width="30" height="10" as="geometry" />
        </mxCell>
        <mxCell id="Ya-Gv7zuva_r2_n2X0PA-96" value="P6" style="rounded=0;whiteSpace=wrap;html=1;fillColor=#e1d5e7;strokeColor=#9673a6;" vertex="1" parent="1">
          <mxGeometry x="480" y="450" width="30" height="10" as="geometry" />
        </mxCell>
        <mxCell id="Ya-Gv7zuva_r2_n2X0PA-97" value="3" style="rounded=0;whiteSpace=wrap;html=1;fillColor=#e1d5e7;strokeColor=#9673a6;" vertex="1" parent="1">
          <mxGeometry x="410" y="510" width="30" height="10" as="geometry" />
        </mxCell>
        <mxCell id="Ya-Gv7zuva_r2_n2X0PA-98" value="4" style="rounded=0;whiteSpace=wrap;html=1;fillColor=#e1d5e7;strokeColor=#9673a6;" vertex="1" parent="1">
          <mxGeometry x="410" y="490" width="30" height="10" as="geometry" />
        </mxCell>
        <mxCell id="Ya-Gv7zuva_r2_n2X0PA-99" value="5" style="rounded=0;whiteSpace=wrap;html=1;fillColor=#e1d5e7;strokeColor=#9673a6;" vertex="1" parent="1">
          <mxGeometry x="410" y="470" width="30" height="10" as="geometry" />
        </mxCell>
        <mxCell id="Ya-Gv7zuva_r2_n2X0PA-100" value="6" style="rounded=0;whiteSpace=wrap;html=1;fillColor=#e1d5e7;strokeColor=#9673a6;" vertex="1" parent="1">
          <mxGeometry x="410" y="450" width="30" height="10" as="geometry" />
        </mxCell>
        <mxCell id="Ya-Gv7zuva_r2_n2X0PA-101" value="" style="endArrow=none;html=1;rounded=0;fillColor=#e1d5e7;strokeColor=#9673a6;" edge="1" parent="1">
          <mxGeometry width="50" height="50" relative="1" as="geometry">
            <mxPoint x="494.93" y="460" as="sourcePoint" />
            <mxPoint x="494.93" y="460" as="targetPoint" />
            <Array as="points">
              <mxPoint x="494.93" y="470" />
            </Array>
          </mxGeometry>
        </mxCell>
        <mxCell id="Ya-Gv7zuva_r2_n2X0PA-102" value="" style="endArrow=none;html=1;rounded=0;fillColor=#e1d5e7;strokeColor=#9673a6;" edge="1" parent="1">
          <mxGeometry width="50" height="50" relative="1" as="geometry">
            <mxPoint x="494.93" y="520" as="sourcePoint" />
            <mxPoint x="494.93" y="520" as="targetPoint" />
            <Array as="points">
              <mxPoint x="494.93" y="530" />
            </Array>
          </mxGeometry>
        </mxCell>
        <mxCell id="Ya-Gv7zuva_r2_n2X0PA-103" value="" style="endArrow=none;html=1;rounded=0;fillColor=#e1d5e7;strokeColor=#9673a6;" edge="1" parent="1">
          <mxGeometry width="50" height="50" relative="1" as="geometry">
            <mxPoint x="494.93" y="500" as="sourcePoint" />
            <mxPoint x="494.93" y="500" as="targetPoint" />
            <Array as="points">
              <mxPoint x="494.93" y="510" />
            </Array>
          </mxGeometry>
        </mxCell>
        <mxCell id="Ya-Gv7zuva_r2_n2X0PA-105" value="" style="endArrow=none;html=1;rounded=0;fillColor=#f8cecc;strokeColor=#b85450;" edge="1" parent="1">
          <mxGeometry width="50" height="50" relative="1" as="geometry">
            <mxPoint x="480" y="554.86" as="sourcePoint" />
            <mxPoint x="440" y="554.86" as="targetPoint" />
          </mxGeometry>
        </mxCell>
        <mxCell id="Ya-Gv7zuva_r2_n2X0PA-107" value="Step 2 - Up&amp;amp;Down&amp;amp;Fan" style="text;html=1;strokeColor=#b85450;fillColor=#f8cecc;align=center;verticalAlign=middle;whiteSpace=wrap;rounded=0;movable=0;resizable=0;rotatable=0;deletable=0;editable=0;locked=1;connectable=0;" vertex="1" parent="1">
          <mxGeometry x="400" y="360" width="120" height="30" as="geometry" />
        </mxCell>
        <mxCell id="Ya-Gv7zuva_r2_n2X0PA-108" value="" style="endArrow=none;html=1;rounded=0;fillColor=#f8cecc;strokeColor=#b85450;" edge="1" parent="1">
          <mxGeometry width="50" height="50" relative="1" as="geometry">
            <mxPoint x="320" y="454.83000000000004" as="sourcePoint" />
            <mxPoint x="280" y="454.83000000000004" as="targetPoint" />
          </mxGeometry>
        </mxCell>
        <mxCell id="Ya-Gv7zuva_r2_n2X0PA-109" value="" style="endArrow=none;html=1;rounded=0;fillColor=#f8cecc;strokeColor=#b85450;" edge="1" parent="1">
          <mxGeometry width="50" height="50" relative="1" as="geometry">
            <mxPoint x="480" y="454.80000000000007" as="sourcePoint" />
            <mxPoint x="440" y="454.80000000000007" as="targetPoint" />
          </mxGeometry>
        </mxCell>
        <mxCell id="Ya-Gv7zuva_r2_n2X0PA-110" value="" style="endArrow=none;html=1;rounded=0;fillColor=#f8cecc;strokeColor=#b85450;" edge="1" parent="1">
          <mxGeometry width="50" height="50" relative="1" as="geometry">
            <mxPoint x="480" y="474.86000000000007" as="sourcePoint" />
            <mxPoint x="440" y="474.86000000000007" as="targetPoint" />
          </mxGeometry>
        </mxCell>
        <mxCell id="Ya-Gv7zuva_r2_n2X0PA-111" value="" style="endArrow=none;html=1;rounded=0;fillColor=#f8cecc;strokeColor=#b85450;" edge="1" parent="1">
          <mxGeometry width="50" height="50" relative="1" as="geometry">
            <mxPoint x="480" y="514.8600000000001" as="sourcePoint" />
            <mxPoint x="440" y="514.8600000000001" as="targetPoint" />
          </mxGeometry>
        </mxCell>
        <mxCell id="Ya-Gv7zuva_r2_n2X0PA-112" value="" style="endArrow=none;html=1;rounded=0;fillColor=#f8cecc;strokeColor=#b85450;" edge="1" parent="1">
          <mxGeometry width="50" height="50" relative="1" as="geometry">
            <mxPoint x="480" y="534.8600000000001" as="sourcePoint" />
            <mxPoint x="440" y="534.8600000000001" as="targetPoint" />
          </mxGeometry>
        </mxCell>
        <mxCell id="Ya-Gv7zuva_r2_n2X0PA-113" value="" style="rounded=0;whiteSpace=wrap;html=1;movable=0;resizable=0;rotatable=0;deletable=0;editable=0;locked=1;connectable=0;" vertex="1" parent="1">
          <mxGeometry x="560" y="400" width="120" height="170" as="geometry" />
        </mxCell>
        <mxCell id="Ya-Gv7zuva_r2_n2X0PA-114" value="" style="rounded=0;whiteSpace=wrap;html=1;" vertex="1" parent="1">
          <mxGeometry x="615" y="570" width="10" height="30" as="geometry" />
        </mxCell>
        <mxCell id="Ya-Gv7zuva_r2_n2X0PA-115" value="P1" style="rounded=0;whiteSpace=wrap;html=1;fillColor=#e1d5e7;strokeColor=#9673a6;" vertex="1" parent="1">
          <mxGeometry x="640" y="550" width="30" height="10" as="geometry" />
        </mxCell>
        <mxCell id="Ya-Gv7zuva_r2_n2X0PA-116" value="1" style="rounded=0;whiteSpace=wrap;html=1;fillColor=#e1d5e7;strokeColor=#9673a6;" vertex="1" parent="1">
          <mxGeometry x="570" y="550" width="30" height="10" as="geometry" />
        </mxCell>
        <mxCell id="Ya-Gv7zuva_r2_n2X0PA-117" value="P2" style="rounded=0;whiteSpace=wrap;html=1;fillColor=#e1d5e7;strokeColor=#9673a6;" vertex="1" parent="1">
          <mxGeometry x="640" y="530" width="30" height="10" as="geometry" />
        </mxCell>
        <mxCell id="Ya-Gv7zuva_r2_n2X0PA-118" value="2" style="rounded=0;whiteSpace=wrap;html=1;fillColor=#e1d5e7;strokeColor=#9673a6;" vertex="1" parent="1">
          <mxGeometry x="570" y="530" width="30" height="10" as="geometry" />
        </mxCell>
        <mxCell id="Ya-Gv7zuva_r2_n2X0PA-119" value="P3" style="rounded=0;whiteSpace=wrap;html=1;fillColor=#e1d5e7;strokeColor=#9673a6;" vertex="1" parent="1">
          <mxGeometry x="640" y="510" width="30" height="10" as="geometry" />
        </mxCell>
        <mxCell id="Ya-Gv7zuva_r2_n2X0PA-120" value="P4" style="rounded=0;whiteSpace=wrap;html=1;fillColor=#e1d5e7;strokeColor=#9673a6;" vertex="1" parent="1">
          <mxGeometry x="640" y="490" width="30" height="10" as="geometry" />
        </mxCell>
        <mxCell id="Ya-Gv7zuva_r2_n2X0PA-121" value="P5" style="rounded=0;whiteSpace=wrap;html=1;fillColor=#e1d5e7;strokeColor=#9673a6;" vertex="1" parent="1">
          <mxGeometry x="640" y="470" width="30" height="10" as="geometry" />
        </mxCell>
        <mxCell id="Ya-Gv7zuva_r2_n2X0PA-122" value="P6" style="rounded=0;whiteSpace=wrap;html=1;fillColor=#e1d5e7;strokeColor=#9673a6;" vertex="1" parent="1">
          <mxGeometry x="640" y="450" width="30" height="10" as="geometry" />
        </mxCell>
        <mxCell id="Ya-Gv7zuva_r2_n2X0PA-123" value="3" style="rounded=0;whiteSpace=wrap;html=1;fillColor=#e1d5e7;strokeColor=#9673a6;" vertex="1" parent="1">
          <mxGeometry x="570" y="510" width="30" height="10" as="geometry" />
        </mxCell>
        <mxCell id="Ya-Gv7zuva_r2_n2X0PA-124" value="4" style="rounded=0;whiteSpace=wrap;html=1;fillColor=#e1d5e7;strokeColor=#9673a6;" vertex="1" parent="1">
          <mxGeometry x="570" y="490" width="30" height="10" as="geometry" />
        </mxCell>
        <mxCell id="Ya-Gv7zuva_r2_n2X0PA-125" value="5" style="rounded=0;whiteSpace=wrap;html=1;fillColor=#e1d5e7;strokeColor=#9673a6;" vertex="1" parent="1">
          <mxGeometry x="570" y="470" width="30" height="10" as="geometry" />
        </mxCell>
        <mxCell id="Ya-Gv7zuva_r2_n2X0PA-126" value="6" style="rounded=0;whiteSpace=wrap;html=1;fillColor=#e1d5e7;strokeColor=#9673a6;" vertex="1" parent="1">
          <mxGeometry x="570" y="450" width="30" height="10" as="geometry" />
        </mxCell>
        <mxCell id="Ya-Gv7zuva_r2_n2X0PA-127" value="" style="endArrow=none;html=1;rounded=0;fillColor=#e1d5e7;strokeColor=#9673a6;" edge="1" parent="1">
          <mxGeometry width="50" height="50" relative="1" as="geometry">
            <mxPoint x="654.9300000000001" y="460" as="sourcePoint" />
            <mxPoint x="654.9300000000001" y="460" as="targetPoint" />
            <Array as="points">
              <mxPoint x="654.9300000000001" y="470" />
            </Array>
          </mxGeometry>
        </mxCell>
        <mxCell id="Ya-Gv7zuva_r2_n2X0PA-128" value="" style="endArrow=none;html=1;rounded=0;fillColor=#e1d5e7;strokeColor=#9673a6;" edge="1" parent="1">
          <mxGeometry width="50" height="50" relative="1" as="geometry">
            <mxPoint x="654.9300000000001" y="520" as="sourcePoint" />
            <mxPoint x="654.9300000000001" y="520" as="targetPoint" />
            <Array as="points">
              <mxPoint x="654.9300000000001" y="530" />
            </Array>
          </mxGeometry>
        </mxCell>
        <mxCell id="Ya-Gv7zuva_r2_n2X0PA-129" value="" style="endArrow=none;html=1;rounded=0;fillColor=#e1d5e7;strokeColor=#9673a6;" edge="1" parent="1">
          <mxGeometry width="50" height="50" relative="1" as="geometry">
            <mxPoint x="654.9300000000001" y="500" as="sourcePoint" />
            <mxPoint x="654.9300000000001" y="500" as="targetPoint" />
            <Array as="points">
              <mxPoint x="654.9300000000001" y="510" />
            </Array>
          </mxGeometry>
        </mxCell>
        <mxCell id="Ya-Gv7zuva_r2_n2X0PA-131" value="Step 3 - Up&amp;amp;Down" style="text;html=1;strokeColor=#b85450;fillColor=#f8cecc;align=center;verticalAlign=middle;whiteSpace=wrap;rounded=0;movable=0;resizable=0;rotatable=0;deletable=0;editable=0;locked=1;connectable=0;" vertex="1" parent="1">
          <mxGeometry x="560" y="360" width="120" height="30" as="geometry" />
        </mxCell>
        <mxCell id="Ya-Gv7zuva_r2_n2X0PA-132" value="" style="endArrow=none;html=1;rounded=0;fillColor=#f8cecc;strokeColor=#b85450;" edge="1" parent="1">
          <mxGeometry width="50" height="50" relative="1" as="geometry">
            <mxPoint x="640" y="454.88000000000005" as="sourcePoint" />
            <mxPoint x="600" y="454.88000000000005" as="targetPoint" />
          </mxGeometry>
        </mxCell>
        <mxCell id="Ya-Gv7zuva_r2_n2X0PA-133" value="" style="endArrow=none;html=1;rounded=0;fillColor=#f8cecc;strokeColor=#b85450;" edge="1" parent="1">
          <mxGeometry width="50" height="50" relative="1" as="geometry">
            <mxPoint x="640" y="514.8800000000001" as="sourcePoint" />
            <mxPoint x="600" y="514.8800000000001" as="targetPoint" />
          </mxGeometry>
        </mxCell>
        <mxCell id="Ya-Gv7zuva_r2_n2X0PA-134" value="" style="endArrow=none;html=1;rounded=0;fillColor=#f8cecc;strokeColor=#b85450;" edge="1" parent="1">
          <mxGeometry width="50" height="50" relative="1" as="geometry">
            <mxPoint x="640" y="534.8800000000001" as="sourcePoint" />
            <mxPoint x="600" y="534.8800000000001" as="targetPoint" />
          </mxGeometry>
        </mxCell>
        <mxCell id="Ya-Gv7zuva_r2_n2X0PA-135" value="" style="endArrow=none;html=1;rounded=0;fillColor=#f8cecc;strokeColor=#b85450;" edge="1" parent="1">
          <mxGeometry width="50" height="50" relative="1" as="geometry">
            <mxPoint x="640" y="554.8800000000001" as="sourcePoint" />
            <mxPoint x="600" y="554.8800000000001" as="targetPoint" />
          </mxGeometry>
        </mxCell>
        <mxCell id="Ya-Gv7zuva_r2_n2X0PA-136" value="" style="rounded=0;whiteSpace=wrap;html=1;movable=0;resizable=0;rotatable=0;deletable=0;editable=0;locked=1;connectable=0;" vertex="1" parent="1">
          <mxGeometry x="720" y="400" width="120" height="170" as="geometry" />
        </mxCell>
        <mxCell id="Ya-Gv7zuva_r2_n2X0PA-137" value="" style="rounded=0;whiteSpace=wrap;html=1;movable=0;resizable=0;rotatable=0;deletable=0;editable=0;locked=1;connectable=0;" vertex="1" parent="1">
          <mxGeometry x="775" y="570" width="10" height="30" as="geometry" />
        </mxCell>
        <mxCell id="Ya-Gv7zuva_r2_n2X0PA-138" value="P1" style="rounded=0;whiteSpace=wrap;html=1;fillColor=#e1d5e7;strokeColor=#9673a6;" vertex="1" parent="1">
          <mxGeometry x="800" y="550" width="30" height="10" as="geometry" />
        </mxCell>
        <mxCell id="Ya-Gv7zuva_r2_n2X0PA-139" value="1" style="rounded=0;whiteSpace=wrap;html=1;fillColor=#e1d5e7;strokeColor=#9673a6;" vertex="1" parent="1">
          <mxGeometry x="730" y="550" width="30" height="10" as="geometry" />
        </mxCell>
        <mxCell id="Ya-Gv7zuva_r2_n2X0PA-140" value="P2" style="rounded=0;whiteSpace=wrap;html=1;fillColor=#e1d5e7;strokeColor=#9673a6;" vertex="1" parent="1">
          <mxGeometry x="800" y="530" width="30" height="10" as="geometry" />
        </mxCell>
        <mxCell id="Ya-Gv7zuva_r2_n2X0PA-141" value="2" style="rounded=0;whiteSpace=wrap;html=1;fillColor=#e1d5e7;strokeColor=#9673a6;" vertex="1" parent="1">
          <mxGeometry x="730" y="530" width="30" height="10" as="geometry" />
        </mxCell>
        <mxCell id="Ya-Gv7zuva_r2_n2X0PA-142" value="P3" style="rounded=0;whiteSpace=wrap;html=1;fillColor=#e1d5e7;strokeColor=#9673a6;" vertex="1" parent="1">
          <mxGeometry x="800" y="510" width="30" height="10" as="geometry" />
        </mxCell>
        <mxCell id="Ya-Gv7zuva_r2_n2X0PA-143" value="P4" style="rounded=0;whiteSpace=wrap;html=1;fillColor=#e1d5e7;strokeColor=#9673a6;" vertex="1" parent="1">
          <mxGeometry x="800" y="490" width="30" height="10" as="geometry" />
        </mxCell>
        <mxCell id="Ya-Gv7zuva_r2_n2X0PA-144" value="P5" style="rounded=0;whiteSpace=wrap;html=1;fillColor=#e1d5e7;strokeColor=#9673a6;" vertex="1" parent="1">
          <mxGeometry x="800" y="470" width="30" height="10" as="geometry" />
        </mxCell>
        <mxCell id="Ya-Gv7zuva_r2_n2X0PA-145" value="P6" style="rounded=0;whiteSpace=wrap;html=1;fillColor=#e1d5e7;strokeColor=#9673a6;" vertex="1" parent="1">
          <mxGeometry x="800" y="450" width="30" height="10" as="geometry" />
        </mxCell>
        <mxCell id="Ya-Gv7zuva_r2_n2X0PA-146" value="3" style="rounded=0;whiteSpace=wrap;html=1;fillColor=#e1d5e7;strokeColor=#9673a6;" vertex="1" parent="1">
          <mxGeometry x="730" y="510" width="30" height="10" as="geometry" />
        </mxCell>
        <mxCell id="Ya-Gv7zuva_r2_n2X0PA-147" value="4" style="rounded=0;whiteSpace=wrap;html=1;fillColor=#e1d5e7;strokeColor=#9673a6;" vertex="1" parent="1">
          <mxGeometry x="730" y="490" width="30" height="10" as="geometry" />
        </mxCell>
        <mxCell id="Ya-Gv7zuva_r2_n2X0PA-148" value="5" style="rounded=0;whiteSpace=wrap;html=1;fillColor=#e1d5e7;strokeColor=#9673a6;" vertex="1" parent="1">
          <mxGeometry x="730" y="470" width="30" height="10" as="geometry" />
        </mxCell>
        <mxCell id="Ya-Gv7zuva_r2_n2X0PA-149" value="6" style="rounded=0;whiteSpace=wrap;html=1;fillColor=#e1d5e7;strokeColor=#9673a6;" vertex="1" parent="1">
          <mxGeometry x="730" y="450" width="30" height="10" as="geometry" />
        </mxCell>
        <mxCell id="Ya-Gv7zuva_r2_n2X0PA-150" value="" style="endArrow=none;html=1;rounded=0;fillColor=#e1d5e7;strokeColor=#9673a6;" edge="1" parent="1">
          <mxGeometry width="50" height="50" relative="1" as="geometry">
            <mxPoint x="814.9300000000001" y="460" as="sourcePoint" />
            <mxPoint x="814.9300000000001" y="460" as="targetPoint" />
            <Array as="points">
              <mxPoint x="814.9300000000001" y="470" />
            </Array>
          </mxGeometry>
        </mxCell>
        <mxCell id="Ya-Gv7zuva_r2_n2X0PA-151" value="" style="endArrow=none;html=1;rounded=0;fillColor=#e1d5e7;strokeColor=#9673a6;" edge="1" parent="1">
          <mxGeometry width="50" height="50" relative="1" as="geometry">
            <mxPoint x="814.9300000000001" y="520" as="sourcePoint" />
            <mxPoint x="814.9300000000001" y="520" as="targetPoint" />
            <Array as="points">
              <mxPoint x="814.9300000000001" y="530" />
            </Array>
          </mxGeometry>
        </mxCell>
        <mxCell id="Ya-Gv7zuva_r2_n2X0PA-152" value="" style="endArrow=none;html=1;rounded=0;fillColor=#e1d5e7;strokeColor=#9673a6;" edge="1" parent="1">
          <mxGeometry width="50" height="50" relative="1" as="geometry">
            <mxPoint x="814.9300000000001" y="500" as="sourcePoint" />
            <mxPoint x="814.9300000000001" y="500" as="targetPoint" />
            <Array as="points">
              <mxPoint x="814.9300000000001" y="510" />
            </Array>
          </mxGeometry>
        </mxCell>
        <mxCell id="Ya-Gv7zuva_r2_n2X0PA-154" value="Step 4 - Up" style="text;html=1;strokeColor=#b85450;fillColor=#f8cecc;align=center;verticalAlign=middle;whiteSpace=wrap;rounded=0;movable=0;resizable=0;rotatable=0;deletable=0;editable=0;locked=1;connectable=0;" vertex="1" parent="1">
          <mxGeometry x="720" y="360" width="120" height="30" as="geometry" />
        </mxCell>
      </root>
    </mxGraphModel>
  </diagram>
</mxfile>
